<?xml version="1.0" encoding="UTF-8" standalone="no"?>
<!DOCTYPE svg PUBLIC "-//W3C//DTD SVG 1.1//EN" "http://www.w3.org/Graphics/SVG/1.1/DTD/svg11.dtd">
<svg width="25px" height="25px" version="1.1" xmlns="http://www.w3.org/2000/svg" xmlns:xlink="http://www.w3.org/1999/xlink" xml:space="preserve" xmlns:serif="http://www.serif.com/" style="fill-rule:evenodd;clip-rule:evenodd;stroke-linejoin:round;stroke-miterlimit:2;">
    <g transform="matrix(1,0,0,1,-1833,-48)">
        <g transform="matrix(1,0,0,1,0,30.298)">
            <g id="beats" transform="matrix(0.500001,0,0,0.500002,1346.03,-99.3057)">
                <g id="beats-bg" transform="matrix(0.827698,0,0,1.29375,182.103,19.7231)">
                    <ellipse cx="986" cy="184.647" rx="28.996" ry="18.551"/>
                </g>
                <g id="beats-symbol" transform="matrix(0.275165,0,0,0.275165,931.919,193.946)">
                    <path d="M255.462,172.578c0.603,1.016 1.239,1.789 1.906,2.319c1.148,0.911 3.33,1.822 6.545,2.733c10.981,2.999 16.472,7.117 16.472,12.356c0,3.416 -2.589,7.421 -7.766,12.014l-1.566,-2.335c1.962,-2.239 2.943,-4.156 2.943,-5.75c0,-2.468 -2.505,-4.48 -7.515,-6.036c-4.481,-1.336 -8.154,-2.789 -11.019,-4.359l0,18.058c0.603,1.016 1.239,1.789 1.906,2.319c1.148,0.911 3.33,1.822 6.545,2.733c10.981,2.999 16.472,7.117 16.472,12.356c0,3.416 -2.589,7.421 -7.766,12.014l-1.566,-2.335c1.962,-2.239 2.943,-4.156 2.943,-5.75c0,-2.468 -2.505,-4.48 -7.515,-6.036c-4.481,-1.336 -8.154,-2.789 -11.019,-4.359l0,71.98c0,8.831 -12.099,16 -27,16c-14.902,0 -27,-7.169 -27,-16c0,-8.831 12.098,-16 27,-16c7.406,0 14.119,1.771 19,4.637l0,-103.637l8,0l0,3.078Z" style="fill:white;"/>
                </g>
            </g>
        </g>
    </g>
</svg>
