<?xml version="1.0" encoding="UTF-8" standalone="no"?><!DOCTYPE svg PUBLIC "-//W3C//DTD SVG 1.1//EN" "http://www.w3.org/Graphics/SVG/1.1/DTD/svg11.dtd"><svg width="49px" height="49px" version="1.1" xmlns="http://www.w3.org/2000/svg" xmlns:xlink="http://www.w3.org/1999/xlink" xml:space="preserve" xmlns:serif="http://www.serif.com/" style="fill-rule:evenodd;clip-rule:evenodd;stroke-linejoin:round;stroke-miterlimit:2;"><g transform="matrix(1,0,0,1,-1833,-176)"><g transform="matrix(1,0,0,1,2.27374e-13,20.6936)"><g id="beats" transform="matrix(1,0,0,1,858.927,-79.0069)"><g id="beats-bg" transform="matrix(0.827698,0,0,1.29375,182.103,19.7231)"><ellipse cx="986" cy="184.647" rx="28.996" ry="18.551"/></g><g id="beats-symbol" transform="matrix(0.275165,0,0,0.275165,931.919,193.946)"><path d="M255.462,172.578C256.065,173.594 256.701,174.367 257.368,174.897C258.516,175.808 260.698,176.719 263.913,177.63C274.894,180.629 280.385,184.747 280.385,189.986C280.385,193.402 277.796,197.407 272.619,202L271.053,199.665C273.015,197.426 273.996,195.509 273.996,193.915C273.996,191.447 271.491,189.435 266.481,187.879C262,186.543 258.327,185.09 255.462,183.52L255.462,201.578C256.065,202.594 256.701,203.367 257.368,203.897C258.516,204.808 260.698,205.719 263.913,206.63C274.894,209.629 280.385,213.747 280.385,218.986C280.385,222.402 277.796,226.407 272.619,231L271.053,228.665C273.015,226.426 273.996,224.509 273.996,222.915C273.996,220.447 271.491,218.435 266.481,216.879C262,215.543 258.327,214.09 255.462,212.52L255.462,284.5C255.462,293.331 243.363,300.5 228.462,300.5C213.56,300.5 201.462,293.331 201.462,284.5C201.462,275.669 213.56,268.5 228.462,268.5C235.868,268.5 242.581,270.271 247.462,273.137L247.462,169.5L255.462,169.5L255.462,172.578Z" style="fill:white;"/></g></g></g></g></svg>