<svg width="49" height="49" xmlns="http://www.w3.org/2000/svg" fill-rule="evenodd" clip-rule="evenodd"
    stroke-linejoin="round" stroke-miterlimit="2">
    <circle cx="24.084" cy="24.175" r="24" />
    <path
        d="M28.084 6.999c.166.279.341.492.525.638.316.25.916.501 1.8.752 3.022.825 4.533 1.958 4.533 3.4 0 .94-.712 2.042-2.137 3.306l-.431-.643c.54-.616.81-1.144.81-1.582 0-.679-.689-1.233-2.068-1.661-1.233-.368-2.244-.767-3.032-1.2v4.969c.166.28.341.493.525.639.316.25.916.501 1.8.752 3.022.825 4.533 1.958 4.533 3.399 0 .941-.712 2.043-2.137 3.306l-.431-.642c.54-.616.81-1.144.81-1.582 0-.679-.689-1.233-2.068-1.661-1.233-.368-2.244-.768-3.032-1.2v19.807c0 2.43-3.329 4.402-7.429 4.402-4.101 0-7.43-1.972-7.43-4.402s3.329-4.403 7.43-4.403c2.037 0 3.885.487 5.228 1.276V6.152h2.201v.847z"
        fill="#fff" />
</svg>