<?xml version="1.0" encoding="UTF-8" standalone="no"?><!DOCTYPE svg PUBLIC "-//W3C//DTD SVG 1.1//EN" "http://www.w3.org/Graphics/SVG/1.1/DTD/svg11.dtd"><svg width="49px" height="49px" version="1.1" xmlns="http://www.w3.org/2000/svg" xmlns:xlink="http://www.w3.org/1999/xlink" xml:space="preserve" xmlns:serif="http://www.serif.com/" style="fill-rule:evenodd;clip-rule:evenodd;stroke-linejoin:round;stroke-miterlimit:2;"><g transform="matrix(1,0,0,1,-2059,-176)"><g transform="matrix(1,0,0,1,2.27374e-13,20.6936)"><g id="pause" transform="matrix(1.04847,0,0,1.15015,-475.822,-364.533)"><g id="pause-bg" transform="matrix(0.915622,0,0,0.834676,170.103,68.2843)"><circle cx="2480.11" cy="485" r="25"/></g><g id="pause-symbol" transform="matrix(0.261039,0,0,0.261501,1817.46,360.672)"><g id="pause-2" transform="matrix(0.953772,0,0,0.869454,82.0639,-10)"><path d="M2436.9,455.348C2436.9,450.741 2433.16,447 2428.54,447C2423.92,447 2420.18,450.741 2420.18,455.348L2420.18,556.652C2420.18,561.26 2423.92,565 2428.54,565C2433.16,565 2436.9,561.26 2436.9,556.652L2436.9,455.348Z" style="fill:white;"/></g><g id="pause-1" transform="matrix(0.953772,0,0,0.869454,62.2958,-10)"><path d="M2436.9,455.348C2436.9,450.741 2433.16,447 2428.54,447C2423.92,447 2420.18,450.741 2420.18,455.348L2420.18,556.652C2420.18,561.26 2423.92,565 2428.54,565C2433.16,565 2436.9,561.26 2436.9,556.652L2436.9,455.348Z" style="fill:white;"/></g></g></g></g></g></svg>