<?xml version="1.0" encoding="UTF-8" standalone="no"?>
<!DOCTYPE svg PUBLIC "-//W3C//DTD SVG 1.1//EN" "http://www.w3.org/Graphics/SVG/1.1/DTD/svg11.dtd">
<svg width="25px" height="25px" version="1.1" xmlns="http://www.w3.org/2000/svg" xmlns:xlink="http://www.w3.org/1999/xlink" xml:space="preserve" xmlns:serif="http://www.serif.com/" style="fill-rule:evenodd;clip-rule:evenodd;stroke-linejoin:round;stroke-miterlimit:2;">
    <g transform="matrix(1,0,0,1,-2059,-48)">
        <g transform="matrix(1,0,0,1,0,30.298)">
            <g id="pause" transform="matrix(0.524234,0,0,0.575073,791.803,-242.068)">
                <g id="pause-bg" transform="matrix(0.915622,0,0,0.834676,170.103,68.2843)">
                    <circle cx="2480.11" cy="485" r="25"/>
                </g>
                <g id="pause-symbol" transform="matrix(0.261039,0,0,0.261501,1817.46,360.672)">
                    <g id="pause-2" transform="matrix(0.953772,0,0,0.869454,82.0639,-10)">
                        <path d="M2436.9,455.348c-0,-4.607 -3.748,-8.348 -8.363,-8.348c-4.616,0 -8.364,3.741 -8.364,8.348l0,101.304c0,4.608 3.748,8.348 8.364,8.348c4.615,0 8.363,-3.74 8.363,-8.348l-0,-101.304Z" style="fill:white;"/>
                    </g>
                    <g id="pause-1" transform="matrix(0.953772,0,0,0.869454,62.2958,-10)">
                        <path d="M2436.9,455.348c-0,-4.607 -3.748,-8.348 -8.363,-8.348c-4.616,0 -8.364,3.741 -8.364,8.348l0,101.304c0,4.608 3.748,8.348 8.364,8.348c4.615,0 8.363,-3.74 8.363,-8.348l-0,-101.304Z" style="fill:white;"/>
                    </g>
                </g>
            </g>
        </g>
    </g>
</svg>
