<?xml version="1.0" encoding="UTF-8" standalone="no"?><!DOCTYPE svg PUBLIC "-//W3C//DTD SVG 1.1//EN" "http://www.w3.org/Graphics/SVG/1.1/DTD/svg11.dtd"><svg width="49px" height="49px" version="1.1" xmlns="http://www.w3.org/2000/svg" xmlns:xlink="http://www.w3.org/1999/xlink" xml:space="preserve" xmlns:serif="http://www.serif.com/" style="fill-rule:evenodd;clip-rule:evenodd;stroke-linejoin:round;stroke-miterlimit:1.5;"><g transform="matrix(1,0,0,1,-2116,-176)"><g transform="matrix(1,0,0,1,2.27374e-13,20.6936)"><g id="reset" transform="matrix(1.04847,0,0,1.15015,-514.507,-327.466)"><g id="reset-bg" transform="matrix(0.915622,0,0,0.834676,260.956,36.0562)"><circle cx="2480.11" cy="485" r="25"/></g><g id="reset-symbol" transform="matrix(0.953772,0,0,0.869454,18.6365,71.3561)"><g transform="matrix(1,-0,-0,1,2610.97,400.702)"><path d="M20.484,14.242L10.431,14.669L16.121,6.37C15.243,9.429 17.425,13.365 20.484,14.242Z" style="fill:white;"/><path d="M9,24.298C9,32.582 15.716,39.298 24,39.298C32.279,39.298 39,32.576 39,24.298C39,16.019 32.279,9.298 24,9.298C21.456,9.298 18.953,9.945 16.728,11.178" style="fill:none;stroke:white;stroke-width:3px;"/></g></g></g></g></g></svg>