<?xml version="1.0" encoding="UTF-8" standalone="no"?>
<!DOCTYPE svg PUBLIC "-//W3C//DTD SVG 1.1//EN" "http://www.w3.org/Graphics/SVG/1.1/DTD/svg11.dtd">
<svg width="28px" height="29px" version="1.1" xmlns="http://www.w3.org/2000/svg" xmlns:xlink="http://www.w3.org/1999/xlink" xml:space="preserve" xmlns:serif="http://www.serif.com/" style="fill-rule:evenodd;clip-rule:evenodd;stroke-linecap:round;stroke-linejoin:round;stroke-miterlimit:1.5;">
    <g transform="matrix(1,0,0,1,-2114,-46)">
        <g transform="matrix(1,0,0,1,0,30.298)">
            <g id="reset" transform="matrix(0.524234,0,0,0.575073,800.746,-223.535)">
                <g id="reset-bg" transform="matrix(0.915622,0,0,0.834676,260.956,36.0562)">
                    <circle cx="2480.11" cy="485" r="25"/>
                </g>
                <g id="reset-symbol" transform="matrix(0.953772,0,0,0.869454,18.6365,71.3561)">
                    <g transform="matrix(2,-0,-0,2,2606.97,396.404)">
                        <path d="M15.295,8.737l-4.931,-0.999l3.758,-3.345c-0.793,1.379 -0.206,3.551 1.173,4.344Z" style="fill:white;"/>
                        <path d="M6.5,14.298c0,4.142 3.358,7.5 7.5,7.5c4.139,-0 7.5,-3.361 7.5,-7.5c-0,-4.139 -3.361,-7.5 -7.5,-7.5c-0.054,-0 -0.107,0.001 -0.161,0.002" style="fill:none;stroke:white;stroke-width:1.5px;"/>
                    </g>
                </g>
            </g>
        </g>
    </g>
</svg>
