<?xml version="1.0" encoding="UTF-8" standalone="no"?>
<!DOCTYPE svg PUBLIC "-//W3C//DTD SVG 1.1//EN" "http://www.w3.org/Graphics/SVG/1.1/DTD/svg11.dtd">
<svg width="25px" height="25px" version="1.1" xmlns="http://www.w3.org/2000/svg" xmlns:xlink="http://www.w3.org/1999/xlink" xml:space="preserve" xmlns:serif="http://www.serif.com/" style="fill-rule:evenodd;clip-rule:evenodd;stroke-linejoin:round;stroke-miterlimit:2;">
    <g transform="matrix(1,0,0,1,-1889,-48)">
        <g transform="matrix(1,0,0,1,0,30.298)">
            <g id="setings" transform="matrix(0.500001,0,0,0.500002,1435.14,12.0004)">
                <g id="settings-bg" transform="matrix(0.827698,0,0,1.29375,117.032,-202.888)">
                    <ellipse cx="986" cy="184.647" rx="28.996" ry="18.551"/>
                </g>
                <g id="setings-symbol" transform="matrix(0.819994,0,0,0.735219,137.268,-176.431)">
                    <path d="M974.812,264.909c-2.791,-0.611 -5.661,-0.611 -8.452,0l-0.933,5.666c-2.423,0.847 -4.648,2.28 -6.517,4.197l-4.866,-1.933c-1.87,2.39 -3.305,5.163 -4.226,8.164l3.934,3.733c-0.554,2.764 -0.554,5.63 0,8.394l-3.934,3.733c0.921,3.001 2.356,5.774 4.226,8.164l4.866,-1.932c1.869,1.917 4.094,3.35 6.517,4.197l0.933,5.666c2.791,0.61 5.661,0.61 8.452,0l0.932,-5.666c2.423,-0.847 4.649,-2.28 6.518,-4.197l4.866,1.932c1.869,-2.39 3.305,-5.163 4.226,-8.164l-3.934,-3.733c0.554,-2.764 0.554,-5.63 0,-8.394l3.934,-3.733c-0.921,-3.001 -2.357,-5.774 -4.226,-8.164l-4.866,1.933c-1.869,-1.917 -4.095,-3.35 -6.518,-4.197l-0.932,-5.666Zm-4.226,14.575c4.676,0 8.472,4.234 8.472,9.449c0,5.215 -3.796,9.449 -8.472,9.449c-4.676,0 -8.472,-4.234 -8.472,-9.449c0,-5.215 3.796,-9.449 8.472,-9.449Z" style="fill:white;"/>
                </g>
            </g>
        </g>
    </g>
</svg>
