<?xml version="1.0" encoding="UTF-8" standalone="no"?><!DOCTYPE svg PUBLIC "-//W3C//DTD SVG 1.1//EN" "http://www.w3.org/Graphics/SVG/1.1/DTD/svg11.dtd"><svg width="46px" height="49px" version="1.1" xmlns="http://www.w3.org/2000/svg" xmlns:xlink="http://www.w3.org/1999/xlink" xml:space="preserve" xmlns:serif="http://www.serif.com/" style="fill-rule:evenodd;clip-rule:evenodd;stroke-linejoin:round;stroke-miterlimit:2;"><path id="settings" d="M27.444,0.624c-3.051,-0.599 -6.19,-0.599 -9.241,0l-1.02,5.554c-2.649,0.831 -5.082,2.235 -7.125,4.115l-5.32,-1.895c-2.044,2.343 -3.614,5.061 -4.621,8.003l4.301,3.66c-0.606,2.709 -0.606,5.519 -0,8.228l-4.301,3.66c1.007,2.942 2.577,5.66 4.621,8.003l5.32,-1.894c2.043,1.879 4.476,3.283 7.125,4.114l1.02,5.554c3.051,0.599 6.19,0.599 9.241,0l1.019,-5.554c2.649,-0.831 5.082,-2.235 7.126,-4.114l5.32,1.894c2.044,-2.343 3.613,-5.061 4.62,-8.003l-4.3,-3.66c0.605,-2.709 0.605,-5.519 -0,-8.228l4.3,-3.66c-1.007,-2.942 -2.576,-5.66 -4.62,-8.003l-5.32,1.895c-2.044,-1.88 -4.477,-3.284 -7.126,-4.115l-1.019,-5.554Zm-4.621,14.288c5.113,0 9.263,4.151 9.263,9.263c0,5.112 -4.15,9.263 -9.263,9.263c-5.112,0 -9.263,-4.151 -9.263,-9.263c0,-5.112 4.151,-9.263 9.263,-9.263Z"/></svg>