<?xml version="1.0" encoding="UTF-8" standalone="no"?><!DOCTYPE svg PUBLIC "-//W3C//DTD SVG 1.1//EN" "http://www.w3.org/Graphics/SVG/1.1/DTD/svg11.dtd"><svg width="49px" height="49px" version="1.1" xmlns="http://www.w3.org/2000/svg" xmlns:xlink="http://www.w3.org/1999/xlink" xml:space="preserve" xmlns:serif="http://www.serif.com/" style="fill-rule:evenodd;clip-rule:evenodd;stroke-linecap:round;stroke-linejoin:round;stroke-miterlimit:1.5;"><g id="volume"><circle id="bpm-bg" cx="24.223" cy="24.397" r="24"/><g><path d="M31.313,36.17c3.918,-2.686 6.259,-7.131 6.259,-11.882c0,-4.751 -2.341,-9.196 -6.259,-11.882" style="fill:none;stroke:white;stroke-width:3px;"/><path d="M28.654,31.738c2.456,-1.684 3.924,-4.471 3.924,-7.45c0,-2.979 -1.468,-5.766 -3.924,-7.45" style="fill:none;stroke:white;stroke-width:2px;"/><path d="M27.196,27.53c1.068,-0.733 1.707,-1.946 1.707,-3.242c0,-1.296 -0.639,-2.509 -1.707,-3.242" style="fill:none;stroke:white;stroke-width:1.5px;"/><path d="M22.845,12.492c0.296,-0.195 0.675,-0.211 0.986,-0.043c0.312,0.168 0.506,0.494 0.507,0.848c0.002,4.6 0.009,16.846 0.012,21.722c0.001,0.393 -0.219,0.753 -0.569,0.933c-0.35,0.179 -0.771,0.148 -1.09,-0.082c-3.064,-2.203 -9.454,-6.797 -11.164,-8.026c-0.269,-0.194 -0.428,-0.505 -0.429,-0.836c-0.001,-1.345 -0.003,-4.889 -0.004,-6.254c-0,-0.341 0.171,-0.659 0.456,-0.846c1.783,-1.17 8.321,-5.463 11.295,-7.416Z" style="fill:white;"/></g></g></svg>