<?xml version="1.0" encoding="UTF-8" standalone="no"?>
<!DOCTYPE svg PUBLIC "-//W3C//DTD SVG 1.1//EN" "http://www.w3.org/Graphics/SVG/1.1/DTD/svg11.dtd"><svg width="100%"
    height="100%" viewBox="0 0 352 724" version="1.1" xmlns="http://www.w3.org/2000/svg"
    xmlns:xlink="http://www.w3.org/1999/xlink" xml:space="preserve" xmlns:serif="http://www.serif.com/"
    style="fill-rule:evenodd;clip-rule:evenodd;stroke-linecap:round;stroke-linejoin:round;stroke-miterlimit:2;">
    <rect id="port-circle" x="0.466" y="0.578" width="351.007" height="723.058" style="fill:#f2cc8f;" />
    <g id="port-circle1" serif:id="port-circle">
        <circle id="top-bg" cx="175.792" cy="177.267" r="150" style="fill:#e07a5f;" />
        <circle id="placeholder" cx="175.97" cy="477.778" r="118" style="fill:#cacaca;fill-opacity:0;" />
        <path id="bottom-curve"
            d="M178.159,327.791l-2.367,0c-82.188,0 -148.816,67.157 -148.816,150c-0,82.787 66.682,150 148.816,150c82.19,0 148.817,-67.157 148.817,-150"
            style="fill:none;stroke:#3d405b;stroke-width:8px;" />
        <g id="play-controls">
            <g id="reset">
                <circle id="reset-bg" cx="240.97" cy="676.301" r="24" style="fill:#3d405b;" />
                <path id="reset-symbol"
                    d="M233.343,661.669c2.353,-1.227 4.969,-1.868 7.627,-1.868c9.106,-0 16.5,7.393 16.5,16.5c-0,9.106 -7.394,16.5 -16.5,16.5c-9.113,-0 -16.5,-7.388 -16.5,-16.5c-0,-0.828 0.672,-1.5 1.5,-1.5c0.828,-0 1.5,0.672 1.5,1.5c-0,7.455 6.044,13.5 13.5,13.5c7.451,-0 13.5,-6.05 13.5,-13.5c-0,-7.451 -6.049,-13.5 -13.5,-13.5c-2.142,-0 -4.251,0.509 -6.153,1.483l1.025,1.819c0.102,0.18 0.096,0.401 -0.014,0.576c-0.11,0.174 -0.307,0.275 -0.513,0.261l-6.576,-0.441c-0.189,-0.013 -0.359,-0.12 -0.452,-0.285c-0.093,-0.165 -0.097,-0.366 -0.01,-0.534l3.028,-5.854c0.095,-0.184 0.283,-0.3 0.489,-0.304c0.207,-0.004 0.399,0.106 0.5,0.286l1.049,1.861Z"
                    style="fill:#f2cc8f;" />
            </g>
            <g id="pause">
                <circle id="pause-bg" cx="175.625" cy="698.191" r="24" style="fill:#3d405b;" />
                <path id="pause-symbol"
                    d="M180.513,684.945l0,26.491c0,1.205 -0.978,2.183 -2.183,2.183c-1.205,0 -2.183,-0.978 -2.183,-2.183l-0,-26.491c-0,-1.205 0.978,-2.183 2.183,-2.183c1.205,0 2.183,0.978 2.183,2.183Zm-5.41,0l-0,26.491c-0,1.205 -0.978,2.183 -2.183,2.183c-1.205,0 -2.183,-0.978 -2.183,-2.183l-0,-26.491c-0,-1.205 0.978,-2.183 2.183,-2.183c1.205,0 2.183,0.978 2.183,2.183Z"
                    style="fill:#f2cc8f;" />
            </g>
            <g id="play">
                <circle id="play-bg" cx="110.97" cy="676.301" r="24" style="fill:#3d405b;" />
                <path id="play-symbol"
                    d="M127.759,679.878l-24,12c-1.24,0.62 -2.713,0.554 -3.892,-0.175c-1.179,-0.729 -1.897,-2.016 -1.897,-3.402l-0,-24c-0,-1.387 0.718,-2.674 1.897,-3.403c1.179,-0.729 2.652,-0.795 3.892,-0.175l24,12c1.355,0.677 2.211,2.062 2.211,3.578c-0,1.515 -0.856,2.9 -2.211,3.577Z"
                    style="fill:#f2cc8f;" />
            </g>
        </g>
        <g id="beats">
            <ellipse id="beats-bg" cx="324.566" cy="177.268" rx="24" ry="24" style="fill:#3d405b;" />
            <path id="beats-symbol"
                d="M324.296,159.268l0.938,-0c0.072,0.697 0.18,1.311 0.324,1.84c0.145,0.529 0.337,0.998 0.577,1.406c0.409,0.65 0.902,1.209 1.479,1.678c0.578,0.469 1.239,1.076 1.984,1.821c0.722,0.698 1.431,1.473 2.129,2.327c0.697,0.854 1.28,1.822 1.749,2.904c0.469,1.082 0.704,2.296 0.704,3.643c-0,1.082 -0.169,2.261 -0.505,3.535c0.625,0.914 0.937,2.237 0.937,3.968c0,1.154 -0.156,2.303 -0.469,3.445c-0.312,1.142 -0.769,2.122 -1.37,2.94l-0.577,-0c1.13,-2.212 1.695,-4.136 1.695,-5.772c-0,-1.322 -0.373,-2.537 -1.118,-3.643c-0.481,-0.721 -1.016,-1.365 -1.605,-1.93c-0.59,-0.565 -1.341,-1.148 -2.255,-1.749c-0.914,-0.601 -2.14,-1.287 -3.679,-2.056l-0,15.871c-0,1.034 -0.343,1.99 -1.028,2.868c-0.686,0.878 -1.57,1.581 -2.652,2.11c-1.082,0.529 -2.2,0.794 -3.354,0.794c-1.01,-0 -1.876,-0.229 -2.598,-0.685c-0.721,-0.457 -1.082,-1.167 -1.082,-2.129c0,-1.154 0.349,-2.2 1.046,-3.138c0.698,-0.938 1.6,-1.689 2.706,-2.254c1.106,-0.566 2.248,-0.848 3.427,-0.848c1.082,-0 1.947,0.288 2.597,0.866l-0,-27.812Zm1.154,6.709c0,1.251 0.277,2.405 0.83,3.463c0.192,0.337 0.583,0.878 1.172,1.624c0.589,0.745 1.293,1.503 2.11,2.272c0.914,0.866 1.72,1.695 2.417,2.489c0.698,0.794 1.106,1.335 1.227,1.623c0.048,-0.192 0.084,-0.415 0.108,-0.667c0.024,-0.253 0.036,-0.535 0.036,-0.848c-0,-1.827 -0.589,-3.547 -1.768,-5.158c-1.178,-1.611 -3.222,-3.21 -6.132,-4.798Z"
                style="fill:#f2cc8f;fill-rule:nonzero;" />
        </g>
        <g id="bpm">
            <ellipse id="bpm-bg" cx="175.97" cy="327.268" rx="24" ry="24" style="fill:#3d405b;" />
            <path id="bpm-symbol"
                d="M192.955,310.296l-16.971,12.728c-1.17,1.17 -1.17,3.072 0.001,4.242c1.171,1.171 3.071,1.171 4.242,0l12.728,-16.97Z"
                style="fill:#f2cc8f;" />
        </g>
        <g id="settings">
            <ellipse id="settings-bg" cx="324.566" cy="477.768" rx="24" ry="24" style="fill:#3d405b;" />
            <path id="setings-symbol"
                d="M328.032,460.104c-2.289,-0.449 -4.642,-0.449 -6.931,-0l-0.765,4.166c-1.986,0.622 -3.811,1.676 -5.343,3.085l-3.991,-1.421c-1.533,1.757 -2.71,3.796 -3.465,6.003l3.226,2.744c-0.454,2.032 -0.454,4.139 0,6.172l-3.226,2.744c0.755,2.207 1.932,4.245 3.465,6.003l3.991,-1.421c1.532,1.409 3.357,2.463 5.343,3.086l0.765,4.166c2.289,0.448 4.642,0.448 6.931,-0l0.764,-4.166c1.987,-0.623 3.812,-1.677 5.345,-3.086l3.99,1.421c1.533,-1.758 2.71,-3.796 3.465,-6.003l-3.225,-2.744c0.454,-2.033 0.454,-4.14 -0,-6.172l3.225,-2.744c-0.755,-2.207 -1.932,-4.246 -3.465,-6.003l-3.99,1.421c-1.533,-1.409 -3.358,-2.463 -5.345,-3.085l-0.764,-4.166Zm-3.465,10.716c3.834,-0 6.947,3.113 6.947,6.947c-0,3.834 -3.113,6.947 -6.947,6.947c-3.835,-0 -6.947,-3.113 -6.947,-6.947c-0,-3.834 3.112,-6.947 6.947,-6.947Z"
                style="fill:#f2cc8f;" />
        </g>
        <g id="volume">
            <circle id="volume-bg" cx="26.966" cy="477.768" r="24" style="fill:#3d405b;" />
            <path id="volume-symbol"
                d="M34.904,490.778c-0.682,0.468 -1.617,0.294 -2.085,-0.389c-0.468,-0.683 -0.294,-1.617 0.389,-2.085c3.51,-2.407 5.607,-6.389 5.607,-10.645c0,-4.256 -2.097,-8.239 -5.607,-10.645c-0.683,-0.468 -0.857,-1.402 -0.389,-2.085c0.468,-0.683 1.403,-0.857 2.085,-0.389c4.326,2.965 6.911,7.873 6.911,13.119c0,5.246 -2.585,10.153 -6.911,13.119Zm-2.941,-4.844c-0.455,0.312 -1.078,0.196 -1.39,-0.26c-0.313,-0.455 -0.196,-1.078 0.259,-1.39c2.184,-1.497 3.489,-3.976 3.489,-6.625c0,-2.649 -1.305,-5.128 -3.489,-6.625c-0.455,-0.312 -0.572,-0.935 -0.259,-1.391c0.312,-0.455 0.935,-0.571 1.39,-0.259c2.728,1.871 4.358,4.966 4.358,8.275c0,3.309 -1.63,6.404 -4.358,8.275Zm-1.599,-4.415c-0.342,0.235 -0.809,0.148 -1.043,-0.194c-0.234,-0.341 -0.147,-0.808 0.194,-1.042c0.864,-0.594 1.381,-1.575 1.381,-2.624c0,-1.049 -0.517,-2.031 -1.381,-2.624c-0.341,-0.234 -0.428,-0.701 -0.194,-1.042c0.234,-0.342 0.701,-0.429 1.043,-0.194c1.271,0.872 2.032,2.317 2.032,3.86c0,1.543 -0.761,2.987 -2.032,3.86Zm-4.776,-15.656c0.296,-0.195 0.675,-0.211 0.986,-0.043c0.312,0.168 0.506,0.494 0.507,0.848c0.002,4.6 0.009,16.846 0.012,21.722c0.001,0.393 -0.219,0.753 -0.569,0.933c-0.35,0.179 -0.771,0.148 -1.09,-0.082c-3.064,-2.203 -9.454,-6.797 -11.164,-8.026c-0.269,-0.194 -0.428,-0.505 -0.429,-0.836c-0.001,-1.345 -0.003,-4.889 -0.004,-6.254c0,-0.341 0.171,-0.659 0.456,-0.846c1.783,-1.17 8.321,-5.463 11.295,-7.416Z"
                style="fill:#f2cc8f;" />
        </g>
        <g id="time-signature">
            <ellipse id="time-signature-bg" cx="26.966" cy="177.268" rx="24" ry="24" style="fill:#3d405b;" />
            <path id="time-signature-symbol"
                d="M27.975,165.028c1.504,-0 2.936,0.312 4.296,0.936c1.36,0.624 2.472,1.472 3.336,2.544c0.864,1.072 1.296,2.28 1.296,3.624c-0,1.184 -0.4,2.2 -1.2,3.048c-0.8,0.848 -1.808,1.272 -3.024,1.272c-1.088,-0 -1.984,-0.312 -2.688,-0.936c-0.704,-0.624 -1.056,-1.48 -1.056,-2.568c-0,-0.832 0.24,-1.536 0.72,-2.112c0.48,-0.576 1.056,-1.024 1.728,-1.344c0.352,-0.16 0.784,-0.296 1.296,-0.408c0.512,-0.112 0.768,-0.264 0.768,-0.456c-0,-0.512 -0.448,-0.992 -1.344,-1.44c-0.896,-0.448 -1.856,-0.672 -2.88,-0.672c-1.312,-0 -2.432,0.304 -3.36,0.912c-0.928,0.608 -1.624,1.648 -2.088,3.12c-0.464,1.472 -0.696,3.52 -0.696,6.144l-0,3.744c-0,1.184 0.184,2.344 0.552,3.48c0.368,1.136 0.984,2.072 1.848,2.808c0.864,0.736 2,1.104 3.408,1.104c1.6,-0 3.056,-0.72 4.368,-2.16c1.312,-1.44 2.16,-3.376 2.544,-5.808l1.296,-0c-0.128,1.856 -0.608,3.512 -1.44,4.968c-0.832,1.456 -1.952,2.6 -3.36,3.432c-1.408,0.832 -3.024,1.248 -4.848,1.248c-2.016,-0 -3.824,-0.584 -5.424,-1.752c-1.6,-1.168 -2.864,-2.728 -3.792,-4.68c-0.928,-1.952 -1.392,-4.128 -1.392,-6.528c-0,-1.536 0.296,-2.992 0.888,-4.368c0.592,-1.376 1.4,-2.6 2.424,-3.672c1.024,-1.072 2.208,-1.92 3.552,-2.544c1.344,-0.624 2.768,-0.936 4.272,-0.936Z"
                style="fill:#f2cc8f;fill-rule:nonzero;" />
        </g>
        <g transform="matrix(131.587,0,0,131.587,248.145,216.677)"></g><text x="103.531px" y="216.677px"
            style="font-family:'MuktaMahee-Bold', 'Mukta Mahee', sans-serif;font-weight:700;font-size:131.587px;fill:#3d405b;">6
            <tspan x="174.456px " y="216.677px ">0</tspan>
        </text>
        <g id="_12_pads" serif:id="12_pads">
            <circle id="inactive-beat" cx="223.97" cy="396.121" r="23" style="fill:#464646;fill-opacity:0;" />
            <circle id="inactive-beat1" serif:id="inactive-beat" cx="127.732" cy="396.121" r="23"
                style="fill:#464646;fill-opacity:0;" />
            <circle id="inactive-beat2" serif:id="inactive-beat" cx="257.623" cy="430.778" r="23"
                style="fill:#464646;fill-opacity:0;" />
            <circle id="inactive-beat3" serif:id="inactive-beat" cx="94.524" cy="430.778" r="23"
                style="fill:#464646;fill-opacity:0;" />
            <circle id="inactive-beat4" serif:id="inactive-beat" cx="270.97" cy="477.778" r="23"
                style="fill:#464646;fill-opacity:0;" />
            <circle id="inactive-beat5" serif:id="inactive-beat" cx="257.507" cy="525.39" r="23"
                style="fill:#464646;fill-opacity:0;" />
            <circle id="inactive-beat6" serif:id="inactive-beat" cx="223.144" cy="559.203" r="23"
                style="fill:#464646;fill-opacity:0;" />
            <circle id="inactive-beat7" serif:id="inactive-beat" cx="127.749" cy="559.203" r="23"
                style="fill:#464646;fill-opacity:0;" />
            <circle id="inactive-beat8" serif:id="inactive-beat" cx="175.97" cy="572.778" r="23"
                style="fill:#464646;fill-opacity:0;" />
            <circle id="inactive-beat9" serif:id="inactive-beat" cx="94.135" cy="525.39" r="23"
                style="fill:#464646;fill-opacity:0;" />
            <circle id="inactive-beat10" serif:id="inactive-beat" cx="81.223" cy="477.778" r="23"
                style="fill:#464646;fill-opacity:0;" />
            <circle id="active-beat" cx="175.97" cy="382.778" r="23" style="fill-opacity:0;" />
        </g>
        <g id="_9_pads" serif:id="9_pads">
            <circle id="inactive-beat11" serif:id="inactive-beat" cx="117.97" cy="409.525" r="28"
                style="fill:#464646;fill-opacity:0;" />
            <circle id="inactive-beat12" serif:id="inactive-beat" cx="87.008" cy="461.671" r="28"
                style="fill:#464646;fill-opacity:0;" />
            <circle id="inactive-beat13" serif:id="inactive-beat" cx="264.172" cy="461.671" r="28"
                style="fill:#464646;fill-opacity:0;" />
            <circle id="inactive-beat14" serif:id="inactive-beat" cx="254.698" cy="520.941" r="28"
                style="fill:#464646;fill-opacity:0;" />
            <circle id="inactive-beat15" serif:id="inactive-beat" cx="96.971" cy="520.961" r="28"
                style="fill:#464646;fill-opacity:0;" />
            <circle id="inactive-beat16" serif:id="inactive-beat" cx="144.494" cy="561.777" r="28"
                style="fill:#464646;fill-opacity:0;" />
            <circle id="inactive-beat17" serif:id="inactive-beat" cx="207.633" cy="561.777" r="28"
                style="fill:#464646;fill-opacity:0;" />
            <circle id="inactive-beat18" serif:id="inactive-beat" cx="233.97" cy="409.525" r="28"
                style="fill:#464646;fill-opacity:0;" />
            <circle id="active-beat1" serif:id="active-beat" cx="175.97" cy="387.778" r="28" style="fill-opacity:0;" />
        </g>
        <g id="_8_pads" serif:id="8_pads">
            <circle id="inactive-beat19" serif:id="inactive-beat" cx="237.454" cy="415.959" r="30"
                style="fill:#464646;fill-opacity:0;" />
            <circle id="inactive-beat20" serif:id="inactive-beat" cx="263.97" cy="477.778" r="30"
                style="fill:#464646;fill-opacity:0;" />
            <circle id="inactive-beat21" serif:id="inactive-beat" cx="237.454" cy="539.869" r="30"
                style="fill:#464646;fill-opacity:0;" />
            <circle id="inactive-beat22" serif:id="inactive-beat" cx="175.97" cy="565.778" r="30"
                style="fill:#464646;fill-opacity:0;" />
            <circle id="inactive-beat23" serif:id="inactive-beat" cx="114.649" cy="539.869" r="30"
                style="fill:#464646;fill-opacity:0;" />
            <circle id="inactive-beat24" serif:id="inactive-beat" cx="87.97" cy="477.778" r="30"
                style="fill:#464646;fill-opacity:0;" />
            <circle id="inactive-beat25" serif:id="inactive-beat" cx="114.649" cy="415.959" r="30"
                style="fill:#464646;fill-opacity:0;" />
            <circle id="active-beat2" serif:id="active-beat" cx="175.97" cy="389.778" r="30" style="fill-opacity:0;" />
        </g>
        <g id="_7_pads" serif:id="7_pads">
            <circle id="inactive-beat26" serif:id="inactive-beat" cx="239.681" cy="423.648" r="34"
                style="fill:#464646;fill-opacity:0;" />
            <circle id="inactive-beat27" serif:id="inactive-beat" cx="258.213" cy="493.648" r="34"
                style="fill:#464646;fill-opacity:0;" />
            <circle id="inactive-beat28" serif:id="inactive-beat" cx="216.013" cy="550.558" r="34"
                style="fill:#464646;fill-opacity:0;" />
            <circle id="inactive-beat29" serif:id="inactive-beat" cx="137.452" cy="550.558" r="34"
                style="fill:#464646;fill-opacity:0;" />
            <circle id="inactive-beat30" serif:id="inactive-beat" cx="93.824" cy="493.648" r="34"
                style="fill:#464646;fill-opacity:0;" />
            <circle id="inactive-beat31" serif:id="inactive-beat" cx="112.537" cy="423.648" r="34"
                style="fill:#464646;fill-opacity:0;" />
            <circle id="active-beat3" serif:id="active-beat" cx="175.97" cy="393.778" r="34" style="fill-opacity:0;" />
        </g>
        <g id="_6_pads" serif:id="6_pads">
            <circle id="inactive-beat32" serif:id="inactive-beat" cx="105.9" cy="438.983" r="37"
                style="fill:#464646;" />
            <circle id="inactive-beat33" serif:id="inactive-beat" cx="105.9" cy="517.574" r="37"
                style="fill:#464646;" />
            <circle id="inactive-beat34" serif:id="inactive-beat" cx="246.33" cy="517.574" r="37"
                style="fill:#464646;" />
            <circle id="inactive-beat35" serif:id="inactive-beat" cx="246.33" cy="438.983" r="37"
                style="fill:#464646;" />
            <circle id="inactive-beat36" serif:id="inactive-beat" cx="175.97" cy="558.778" r="37"
                style="fill:#464646;" />
            <circle id="active-beat4" serif:id="active-beat" cx="175.97" cy="396.778" r="37" />
        </g>
        <g id="_3_pads" serif:id="3_pads">
            <circle id="inactive-beat37" serif:id="inactive-beat" cx="121.647" cy="523.892" r="46.125"
                style="fill:#464646;fill-opacity:0;" />
            <circle id="inactive-beat38" serif:id="inactive-beat" cx="230.384" cy="523.892" r="46.125"
                style="fill:#464646;fill-opacity:0;" />
            <circle id="active-beat5" serif:id="active-beat" cx="175.97" cy="405.903" r="46.125"
                style="fill-opacity:0;" />
        </g>
        <g id="beat-indicators">
            <path id="whole-indicator"
                d="M143.142,232.95c-0,-3.912 1.427,-7.348 4.281,-10.308c2.855,-2.961 6.741,-5.287 11.657,-6.978c4.916,-1.692 10.335,-2.538 16.255,-2.538c6.027,0 11.577,0.82 16.652,2.458c5.075,1.639 9.146,3.939 12.212,6.899c3.066,2.961 4.599,6.449 4.599,10.467c-0,4.123 -1.48,7.692 -4.441,10.705c-2.96,3.013 -6.898,5.339 -11.815,6.978c-4.916,1.639 -10.334,2.458 -16.255,2.458c-5.921,0 -11.392,-0.793 -16.414,-2.379c-5.022,-1.586 -9.066,-3.885 -12.132,-6.898c-3.066,-3.014 -4.599,-6.635 -4.599,-10.864Zm36.475,16.969c3.595,0 6.053,-1.321 7.375,-3.964c1.321,-2.644 1.982,-5.763 1.982,-9.357c0,-3.701 -0.766,-7.084 -2.299,-10.15c-1.533,-3.066 -3.569,-5.524 -6.106,-7.375c-2.538,-1.85 -5.392,-2.775 -8.564,-2.775c-3.595,0 -6,1.322 -7.216,3.965c-1.216,2.643 -1.824,5.762 -1.824,9.357c0,3.594 0.74,6.925 2.221,9.991c1.48,3.066 3.462,5.551 5.947,7.454c2.484,1.903 5.313,2.854 8.484,2.854Z"
                style="fill-opacity:0;fill-rule:nonzero;" />
            <path id="sixteenths-indicator"
                d="M174.627,80.265l4.656,0c0.358,3.463 0.895,6.507 1.612,9.134c0.716,2.626 1.671,4.955 2.865,6.984c2.03,3.224 4.477,6 7.343,8.328c2.865,2.328 6.148,5.343 9.849,9.044c3.582,3.462 7.104,7.312 10.567,11.551c3.462,4.238 6.357,9.044 8.685,14.416c2.328,5.373 3.493,11.402 3.493,18.088c-0,5.373 -0.836,11.223 -2.508,17.551c3.104,4.537 4.657,11.103 4.657,19.699c-0,5.731 -0.776,11.432 -2.329,17.103c-1.552,5.671 -3.82,10.537 -6.805,14.596l-2.865,-0c5.611,-10.984 8.417,-20.535 8.417,-28.654c-0,-6.567 -1.851,-12.596 -5.552,-18.088c-2.388,-3.582 -5.044,-6.775 -7.969,-9.581c-2.925,-2.806 -6.656,-5.701 -11.193,-8.686c-4.537,-2.985 -10.626,-6.387 -18.267,-10.208l-0,78.799c-0,5.133 -1.701,9.879 -5.104,14.237c-3.403,4.358 -7.79,7.85 -13.163,10.477c-5.373,2.626 -10.924,3.94 -16.655,3.94c-5.015,-0 -9.313,-1.135 -12.894,-3.403c-3.582,-2.269 -5.373,-5.791 -5.373,-10.566c-0,-5.731 1.731,-10.925 5.193,-15.581c3.463,-4.656 7.94,-8.387 13.432,-11.193c5.492,-2.805 11.163,-4.208 17.013,-4.208c5.373,-0 9.671,1.432 12.895,4.298l-0,-138.077Zm5.73,33.311c0,6.208 1.373,11.939 4.119,17.192c0.956,1.672 2.896,4.358 5.821,8.059c2.925,3.701 6.417,7.462 10.476,11.282c4.537,4.299 8.537,8.418 11.999,12.358c3.463,3.939 5.492,6.626 6.089,8.058c0.239,-0.955 0.418,-2.059 0.537,-3.313c0.12,-1.253 0.18,-2.656 0.18,-4.208c-0,-9.074 -2.926,-17.61 -8.776,-25.61c-5.85,-7.999 -15.998,-15.939 -30.445,-23.818Z"
                style="fill-opacity:0;fill-rule:nonzero;" />
            <path id="quarter-indicator"
                d="M202.743,80.265l0,149.717c0,5.134 -1.701,9.91 -5.104,14.327c-3.402,4.418 -7.79,7.97 -13.163,10.656c-5.372,2.686 -11.043,4.03 -17.013,4.03c-5.492,-0 -9.909,-1.403 -13.252,-4.209c-3.343,-2.806 -5.015,-6.596 -5.015,-11.372c0,-3.701 1.075,-7.283 3.224,-10.745c2.149,-3.463 4.984,-6.597 8.506,-9.402c3.522,-2.806 7.373,-5.015 11.552,-6.627c4.178,-1.611 8.297,-2.417 12.357,-2.417c5.133,-0 9.551,1.492 13.252,4.477l0,-138.435l4.656,0Z"
                style="fill-opacity:0;fill-rule:nonzero;" />
            <path id="half-indicator"
                d="M198.001,80.265l4.247,0l0,148.646c0,3.776 -0.973,7.462 -2.92,11.06c-1.946,3.599 -4.571,6.813 -7.874,9.645c-3.304,2.831 -6.902,5.102 -10.795,6.813c-3.893,1.71 -7.786,2.566 -11.679,2.566c-5.663,-0 -10.293,-1.328 -13.891,-3.982c-3.599,-2.654 -5.398,-6.695 -5.398,-12.122c0,-6.016 1.681,-11.414 5.044,-16.192c3.362,-4.777 7.756,-8.553 13.183,-11.325c5.427,-2.772 11.208,-4.158 17.342,-4.158c5.191,-0 9.438,1.297 12.741,3.893l0,-134.844Zm-43.532,166.873c0,1.18 0.443,2.242 1.327,3.186c0.885,0.943 2.094,1.415 3.628,1.415c4.129,0 9.261,-1.71 15.396,-5.132c4.129,-2.359 7.874,-4.984 11.236,-7.874c3.363,-2.891 6.047,-5.781 8.052,-8.671c2.006,-2.891 3.008,-5.339 3.008,-7.344c0,-1.298 -0.324,-2.389 -0.973,-3.274c-0.649,-0.885 -1.799,-1.327 -3.451,-1.327c-2.241,-0 -4.954,0.708 -8.14,2.123c-3.185,1.416 -6.518,3.245 -9.998,5.486c-3.48,2.242 -6.754,4.69 -9.821,7.344c-3.067,2.654 -5.545,5.22 -7.432,7.698c-1.888,2.477 -2.832,4.601 -2.832,6.37Z"
                style="fill-opacity:0;fill-rule:nonzero;" />
            <path id="eigth-indicator"
                d="M176.057,85.649l4.516,-0c0.694,4.747 1.563,8.945 2.605,12.592c1.042,3.648 2.548,7.18 4.516,10.596c1.969,3.416 4.574,7.092 7.816,11.029c3.474,4.053 6.369,7.44 8.685,10.161c2.316,2.721 4.632,5.587 6.948,8.598c4.284,5.327 7.44,10.798 9.466,16.414c2.026,5.616 3.04,11.319 3.04,17.109c-0,12.043 -5.095,26.633 -15.285,43.771l-2.78,-0c3.243,-6.832 6.167,-13.693 8.772,-20.583c2.605,-6.89 3.908,-13.461 3.908,-19.714c0,-6.253 -1.621,-12.68 -4.863,-19.28c-3.243,-6.601 -7.788,-12.159 -13.635,-16.675c-5.848,-4.516 -12.246,-7.005 -19.193,-7.469l-0,98.311c-0,4.979 -1.593,9.64 -4.777,13.982c-3.184,4.343 -7.382,7.845 -12.593,10.509c-5.211,2.663 -10.942,3.995 -17.195,3.995c-4.98,-0 -9.177,-1.274 -12.593,-3.822c-3.416,-2.547 -5.124,-6.311 -5.124,-11.29c-0,-3.705 0.984,-7.266 2.953,-10.682c1.968,-3.416 4.574,-6.455 7.816,-9.119c3.242,-2.663 6.803,-4.747 10.682,-6.253c3.879,-1.505 7.787,-2.258 11.724,-2.258c6.716,0 11.58,1.332 14.591,3.995l-0,-133.917Z"
                style="fill-opacity:0;fill-rule:nonzero;" />
            <path id="trips-indicator"
                d="M213.634,229.762c0,2.52 -0.7,4.523 -2.099,6.01c-1.4,1.487 -3.289,2.475 -5.668,2.965l-0,0.21c3.009,0.35 5.248,1.294 6.717,2.834c1.47,1.539 2.205,3.551 2.205,6.035c-0,2.169 -0.508,4.102 -1.522,5.799c-1.015,1.697 -2.581,3.018 -4.697,3.963c-2.117,0.944 -4.837,1.417 -8.161,1.417c-1.96,-0 -3.779,-0.149 -5.458,-0.446c-1.68,-0.298 -3.289,-0.831 -4.829,-1.601l0,-4.304c1.575,0.77 3.272,1.374 5.091,1.811c1.819,0.437 3.569,0.656 5.248,0.656c3.359,-0 5.782,-0.656 7.269,-1.968c1.487,-1.312 2.23,-3.123 2.23,-5.432c0,-2.344 -0.918,-4.032 -2.755,-5.064c-1.837,-1.032 -4.417,-1.549 -7.741,-1.549l-3.621,0l-0,-3.936l3.674,0c3.079,0 5.414,-0.647 7.006,-1.941c1.592,-1.295 2.388,-3.009 2.388,-5.144c-0,-1.819 -0.613,-3.227 -1.837,-4.224c-1.225,-0.998 -2.887,-1.496 -4.986,-1.496c-2.029,-0 -3.761,0.297 -5.195,0.892c-1.435,0.595 -2.852,1.347 -4.251,2.257l-2.31,-3.149c1.33,-1.05 2.983,-1.959 4.96,-2.729c1.977,-0.77 4.225,-1.155 6.744,-1.155c3.918,0 6.831,0.875 8.738,2.624c1.907,1.75 2.86,3.971 2.86,6.665Zm-37.577,-149.497l4.516,0c0.694,4.748 1.563,8.946 2.605,12.593c1.042,3.648 2.548,7.18 4.516,10.595c1.969,3.416 4.574,7.093 7.816,11.03c3.474,4.053 6.369,7.44 8.685,10.161c2.316,2.721 4.632,5.587 6.948,8.598c4.284,5.327 7.44,10.798 9.466,16.414c2.026,5.616 3.04,11.319 3.04,17.109c-0,12.042 -5.095,26.633 -15.285,43.77l-2.78,0c3.243,-6.831 6.167,-13.692 8.772,-20.582c2.605,-6.89 3.908,-13.461 3.908,-19.714c0,-6.253 -1.621,-12.68 -4.863,-19.28c-3.243,-6.601 -7.788,-12.159 -13.635,-16.675c-5.848,-4.516 -12.246,-7.006 -19.193,-7.469l-0,98.311c-0,4.979 -1.593,9.64 -4.777,13.982c-3.184,4.342 -7.382,7.845 -12.593,10.509c-5.211,2.663 -10.942,3.994 -17.195,3.994c-4.98,0 -9.177,-1.273 -12.593,-3.821c-3.416,-2.547 -5.124,-6.311 -5.124,-11.29c-0,-3.705 0.984,-7.266 2.953,-10.682c1.968,-3.416 4.574,-6.456 7.816,-9.119c3.242,-2.663 6.803,-4.748 10.682,-6.253c3.879,-1.505 7.787,-2.258 11.724,-2.258c6.716,0 11.58,1.332 14.591,3.995l-0,-133.918Z"
                style="fill-opacity:0;" />
        </g>
        <g id="time-sig-indicators">
            <path id="_3-4" serif:id="3-4"
                d="M172.922,187.174l22.49,0l0,46.183l11.246,0l-0,13.803l-11.246,0l0,17.158l-17.86,-0l0,-17.158l-36.381,0l-0,-11.61l31.751,-48.376Zm-2.514,29.929l-10.451,16.254l17.595,0l0,-14.706l0.794,-16.125l-0.264,-0l-7.674,14.577Zm-16.757,-136.613c2.822,-1.806 5.975,-3.182 9.459,-4.128c3.484,-0.946 7.607,-1.42 12.37,-1.42c3.969,0 7.541,0.538 10.716,1.613c3.175,1.075 5.887,2.537 8.136,4.386c2.249,1.849 3.991,4.042 5.226,6.579c1.234,2.537 1.852,5.225 1.852,8.063c-0,2.408 -0.353,4.558 -1.059,6.45c-0.705,1.892 -1.653,3.59 -2.844,5.096c-1.191,1.505 -2.602,2.795 -4.233,3.87c-1.632,1.075 -3.33,1.999 -5.094,2.773c4.763,0.946 8.622,3.096 11.576,6.45c2.955,3.354 4.432,7.353 4.432,11.997c0,3.87 -0.75,7.225 -2.249,10.063c-1.499,2.838 -3.572,5.181 -6.218,7.03c-2.646,1.849 -5.799,3.247 -9.459,4.193c-3.66,0.946 -7.651,1.419 -11.973,1.419c-4.498,-0 -8.687,-0.43 -12.568,-1.29c-3.881,-0.86 -7.277,-2.064 -10.187,-3.612l3.969,-12.514c2.558,1.205 5.049,2.151 7.475,2.839c2.425,0.688 5.137,1.032 8.136,1.032c4.41,-0 7.827,-0.86 10.253,-2.58c2.425,-1.721 3.638,-4.043 3.638,-6.967c0,-3.01 -1.124,-5.461 -3.374,-7.353c-2.249,-1.892 -5.799,-2.838 -10.649,-2.838l-8.997,0l0,-13.287l6.351,0c4.586,0 8.092,-0.946 10.517,-2.838c2.426,-1.892 3.638,-4.472 3.638,-7.74c0,-3.182 -1.036,-5.526 -3.109,-7.031c-2.072,-1.505 -4.608,-2.257 -7.607,-2.257c-4.233,-0 -8.378,1.333 -12.436,3.999l-5.688,-11.997Zm56.711,85.184l-0,10.75l-66.148,0l-0,-10.75l66.148,-0Z"
                style="fill-opacity:0;" />
            <path id="_4-4" serif:id="4-4"
                d="M172.79,185.755l22.49,0l0,46.183l11.245,-0l0,13.803l-11.245,0l0,17.157l-17.86,0l0,-17.157l-36.382,0l0,-11.61l31.752,-48.376Zm-2.514,29.929l-10.451,16.254l17.595,-0l0,-14.706l0.794,-16.126l-0.265,0l-7.673,14.578Zm2.514,-139.322l22.49,-0l0,46.182l11.245,0l0,13.803l-11.245,0l0,17.158l-17.86,-0l0,-17.158l-36.382,0l0,-11.61l31.752,-48.375Zm-2.514,29.928l-10.451,16.254l17.595,0l0,-14.706l0.794,-16.125l-0.265,-0l-7.673,14.577Zm40.218,57.965l0,10.75l-66.148,0l-0,-10.75l66.148,-0Z"
                style="fill-opacity:0;" />
            <path id="_5-4" serif:id="5-4"
                d="M172.79,186.529l22.49,0l0,46.183l11.245,-0l0,13.803l-11.245,0l0,17.157l-17.86,0l0,-17.157l-36.382,0l0,-11.61l31.752,-48.376Zm-2.514,29.929l-10.451,16.254l17.595,-0l0,-14.706l0.794,-16.125l-0.265,-0l-7.673,14.577Zm32.81,-140.87l-0,13.803l-27.254,-0l-1.587,14.061c1.235,-0.172 2.161,-0.258 2.778,-0.258l2.381,-0c3.705,-0 7.211,0.473 10.518,1.419c3.307,0.946 6.174,2.43 8.599,4.451c2.426,2.021 4.366,4.536 5.821,7.546c1.456,3.01 2.183,6.579 2.183,10.707c0,3.698 -0.639,7.181 -1.918,10.449c-1.279,3.269 -3.263,6.128 -5.953,8.579c-2.69,2.451 -6.108,4.386 -10.253,5.805c-4.146,1.419 -9.041,2.129 -14.685,2.129c-4.41,-0 -8.335,-0.409 -11.775,-1.226c-3.439,-0.817 -6.35,-1.827 -8.731,-3.031l3.836,-13.03c2.205,1.032 4.454,1.871 6.747,2.516c2.294,0.645 4.94,0.968 7.938,0.968c5.116,-0 9.018,-1.161 11.709,-3.484c2.69,-2.322 4.035,-5.16 4.035,-8.514c-0,-4.128 -1.566,-7.245 -4.697,-9.352c-3.131,-2.107 -7.122,-3.161 -11.973,-3.161c-2.205,0 -4.388,0.151 -6.549,0.452c-2.16,0.301 -4.211,0.666 -6.151,1.096l3.969,-41.667l41.012,-0.258Zm7.408,89.441l0,10.75l-66.148,0l-0,-10.75l66.148,-0Z"
                style="fill-opacity:0;" />
            <path id="_6-4" serif:id="6-4"
                d="M172.79,187.174l22.49,0l0,46.183l11.245,0l0,13.803l-11.245,0l0,17.158l-17.86,-0l0,-17.158l-36.382,0l0,-11.61l31.752,-48.376Zm-2.514,29.929l-10.451,16.254l17.595,0l0,-14.706l0.794,-16.125l-0.265,-0l-7.673,14.577Zm40.218,-51.429l0,10.75l-66.148,0l-0,-10.75l66.148,-0Zm-23.549,-90.732c2.911,0 5.733,0.237 8.467,0.71c2.735,0.473 5.38,1.355 7.938,2.645l-4.101,13.287c-3.528,-1.978 -7.497,-2.967 -11.907,-2.967c-2.91,-0 -5.446,0.473 -7.607,1.419c-2.161,0.946 -4.013,2.236 -5.556,3.87c-1.544,1.634 -2.756,3.547 -3.638,5.74c-0.882,2.193 -1.456,4.58 -1.72,7.16c2.028,-1.72 4.476,-3.01 7.342,-3.87c2.867,-0.86 5.843,-1.29 8.93,-1.29c3.705,-0 7.122,0.602 10.253,1.806c3.131,1.204 5.821,2.902 8.07,5.096c2.249,2.193 3.991,4.859 5.226,7.998c1.235,3.139 1.852,6.686 1.852,10.642c0,4.042 -0.683,7.762 -2.05,11.159c-1.367,3.397 -3.308,6.321 -5.821,8.772c-2.514,2.451 -5.535,4.365 -9.063,5.741c-3.528,1.376 -7.497,2.064 -11.906,2.064c-3.705,-0 -7.453,-0.624 -11.246,-1.871c-3.792,-1.247 -7.232,-3.311 -10.319,-6.192c-3.087,-2.881 -5.6,-6.708 -7.541,-11.481c-1.94,-4.773 -2.91,-10.686 -2.91,-17.738c-0,-7.482 1.08,-13.932 3.241,-19.35c2.161,-5.418 5.005,-9.847 8.533,-13.287c3.528,-3.44 7.519,-5.977 11.973,-7.611c4.454,-1.634 8.974,-2.452 13.56,-2.452Zm-18.257,51.085c0,4.472 1.103,8.213 3.308,11.223c2.205,3.011 5.336,4.516 9.393,4.516c1.676,-0 3.153,-0.387 4.432,-1.161c1.279,-0.774 2.359,-1.806 3.241,-3.097c0.882,-1.29 1.566,-2.773 2.051,-4.45c0.485,-1.677 0.727,-3.419 0.727,-5.225c0,-4.3 -0.992,-7.482 -2.976,-9.546c-1.985,-2.064 -4.653,-3.096 -8.004,-3.096c-2.293,0 -4.278,0.409 -5.954,1.226c-1.675,0.817 -2.998,1.741 -3.969,2.773c-0.705,0.688 -1.256,1.57 -1.653,2.645c-0.397,1.075 -0.596,2.472 -0.596,4.192Z"
                style="fill-opacity:0;" />
            <path id="_6-8" serif:id="6-8"
                d="M208.841,164.255l-0,10.75l-66.149,0l0,-10.75l66.149,-0Zm-23.549,-90.732c2.91,0 5.733,0.237 8.467,0.71c2.734,0.473 5.38,1.355 7.937,2.645l-4.101,13.287c-3.528,-1.978 -7.497,-2.967 -11.906,-2.967c-2.911,-0 -5.447,0.473 -7.607,1.419c-2.161,0.946 -4.013,2.236 -5.557,3.87c-1.543,1.634 -2.756,3.547 -3.638,5.74c-0.882,2.193 -1.455,4.58 -1.72,7.16c2.029,-1.72 4.476,-3.01 7.342,-3.87c2.867,-0.86 5.844,-1.29 8.931,-1.29c3.704,-0 7.122,0.602 10.253,1.806c3.131,1.204 5.821,2.902 8.07,5.096c2.249,2.193 3.991,4.859 5.225,7.998c1.235,3.139 1.853,6.686 1.853,10.642c-0,4.042 -0.684,7.762 -2.051,11.159c-1.367,3.397 -3.308,6.321 -5.821,8.772c-2.514,2.451 -5.535,4.365 -9.062,5.741c-3.528,1.376 -7.497,2.064 -11.907,2.064c-3.704,-0 -7.453,-0.624 -11.245,-1.871c-3.793,-1.247 -7.233,-3.311 -10.32,-6.192c-3.086,-2.881 -5.6,-6.708 -7.54,-11.481c-1.941,-4.773 -2.911,-10.686 -2.911,-17.738c-0,-7.482 1.08,-13.932 3.241,-19.35c2.161,-5.418 5.005,-9.847 8.533,-13.287c3.528,-3.44 7.519,-5.977 11.973,-7.611c4.454,-1.635 8.974,-2.452 13.561,-2.452Zm-18.257,51.085c-0,4.472 1.102,8.213 3.307,11.223c2.205,3.011 5.336,4.516 9.393,4.516c1.676,-0 3.153,-0.387 4.432,-1.161c1.279,-0.774 2.359,-1.807 3.241,-3.097c0.882,-1.29 1.566,-2.773 2.051,-4.45c0.485,-1.677 0.728,-3.419 0.728,-5.225c-0,-4.3 -0.993,-7.482 -2.977,-9.546c-1.984,-2.064 -4.652,-3.096 -8.004,-3.096c-2.293,0 -4.278,0.409 -5.953,1.226c-1.676,0.817 -2.999,1.741 -3.969,2.773c-0.706,0.688 -1.257,1.57 -1.654,2.645c-0.397,1.075 -0.595,2.472 -0.595,4.192Zm11.576,61.147c4.498,0 8.423,0.581 11.774,1.742c3.352,1.161 6.108,2.687 8.269,4.579c2.161,1.892 3.792,4.064 4.895,6.515c1.102,2.451 1.653,4.924 1.653,7.418c0,4.214 -1.301,7.761 -3.902,10.642c-2.602,2.881 -5.932,5.182 -9.989,6.902c2.029,0.602 3.991,1.419 5.887,2.451c1.897,1.032 3.594,2.3 5.094,3.805c1.499,1.505 2.69,3.269 3.572,5.29c0.882,2.021 1.323,4.278 1.323,6.772c-0,3.526 -0.706,6.751 -2.117,9.675c-1.411,2.924 -3.44,5.44 -6.086,7.547c-2.646,2.107 -5.821,3.741 -9.525,4.902c-3.704,1.161 -7.805,1.742 -12.304,1.742c-4.498,-0 -8.511,-0.559 -12.039,-1.678c-3.527,-1.118 -6.548,-2.644 -9.062,-4.579c-2.514,-1.935 -4.432,-4.257 -5.755,-6.966c-1.323,-2.709 -1.984,-5.698 -1.984,-8.966c-0,-2.494 0.397,-4.73 1.19,-6.708c0.794,-1.978 1.875,-3.719 3.242,-5.225c1.367,-1.505 2.976,-2.816 4.828,-3.934c1.853,-1.118 3.793,-2.064 5.822,-2.838c-3.528,-1.548 -6.483,-3.806 -8.864,-6.773c-2.382,-2.967 -3.572,-6.385 -3.572,-10.255c-0,-2.666 0.573,-5.311 1.72,-7.934c1.146,-2.623 2.888,-4.988 5.225,-7.095c2.337,-2.107 5.226,-3.806 8.666,-5.096c3.439,-1.29 7.452,-1.935 12.039,-1.935Zm-9.79,20.899c-0,2.752 0.97,5.074 2.91,6.966c1.941,1.892 4.278,3.182 7.012,3.87c2.293,-0.774 4.256,-2.107 5.887,-3.999c1.632,-1.892 2.448,-3.913 2.448,-6.063c-0,-2.838 -0.816,-4.988 -2.448,-6.451c-1.631,-1.462 -3.858,-2.193 -6.681,-2.193c-2.822,0 -5.049,0.774 -6.681,2.322c-1.631,1.549 -2.447,3.398 -2.447,5.548Zm8.07,25.284c-2.911,0.946 -5.292,2.344 -7.144,4.193c-1.852,1.849 -2.778,4.149 -2.778,6.901c-0,2.924 0.992,5.246 2.976,6.966c1.985,1.72 4.697,2.58 8.137,2.58c2.91,0 5.402,-0.924 7.474,-2.773c2.073,-1.849 3.109,-4.15 3.109,-6.902c0,-2.752 -1.124,-5.095 -3.373,-7.03c-2.249,-1.935 -5.05,-3.247 -8.401,-3.935Z"
                style="fill-opacity:0;" />
            <path id="_7-8" serif:id="7-8"
                d="M208.841,164.255l-0,10.75l-66.149,0l0,-10.75l66.149,-0Zm-30.23,21.5c4.498,0 8.423,0.581 11.774,1.742c3.352,1.161 6.108,2.687 8.269,4.579c2.161,1.892 3.792,4.064 4.895,6.515c1.102,2.451 1.653,4.924 1.653,7.418c0,4.214 -1.301,7.761 -3.902,10.642c-2.602,2.881 -5.932,5.182 -9.989,6.902c2.029,0.602 3.991,1.419 5.887,2.451c1.897,1.032 3.594,2.3 5.094,3.805c1.499,1.505 2.69,3.269 3.572,5.29c0.882,2.021 1.323,4.278 1.323,6.772c-0,3.526 -0.706,6.751 -2.117,9.675c-1.411,2.924 -3.44,5.44 -6.086,7.547c-2.646,2.107 -5.821,3.741 -9.525,4.902c-3.704,1.161 -7.805,1.742 -12.304,1.742c-4.498,-0 -8.511,-0.559 -12.039,-1.678c-3.527,-1.118 -6.548,-2.644 -9.062,-4.579c-2.514,-1.935 -4.432,-4.257 -5.755,-6.966c-1.323,-2.709 -1.984,-5.698 -1.984,-8.966c-0,-2.494 0.397,-4.73 1.19,-6.708c0.794,-1.978 1.875,-3.719 3.242,-5.225c1.367,-1.505 2.976,-2.816 4.828,-3.934c1.853,-1.118 3.793,-2.064 5.822,-2.838c-3.528,-1.548 -6.483,-3.806 -8.864,-6.773c-2.382,-2.967 -3.572,-6.385 -3.572,-10.255c-0,-2.666 0.573,-5.311 1.72,-7.934c1.146,-2.623 2.888,-4.988 5.225,-7.095c2.337,-2.107 5.226,-3.806 8.666,-5.096c3.439,-1.29 7.452,-1.935 12.039,-1.935Zm-9.79,20.899c-0,2.752 0.97,5.074 2.91,6.966c1.941,1.892 4.278,3.182 7.012,3.87c2.293,-0.774 4.256,-2.107 5.887,-3.999c1.632,-1.892 2.448,-3.913 2.448,-6.063c-0,-2.838 -0.816,-4.988 -2.448,-6.451c-1.631,-1.462 -3.858,-2.193 -6.681,-2.193c-2.822,0 -5.049,0.774 -6.681,2.322c-1.631,1.549 -2.447,3.398 -2.447,5.548Zm8.07,25.284c-2.911,0.946 -5.292,2.344 -7.144,4.193c-1.852,1.849 -2.778,4.149 -2.778,6.901c-0,2.924 0.992,5.246 2.976,6.966c1.985,1.72 4.697,2.58 8.137,2.58c2.91,0 5.402,-0.924 7.474,-2.773c2.073,-1.849 3.109,-4.15 3.109,-6.902c0,-2.752 -1.124,-5.095 -3.373,-7.03c-2.249,-1.935 -5.05,-3.247 -8.401,-3.935Zm29.05,-158.415l0,11.224l-33.206,69.016l-16.141,-6.837l31.487,-60.889l-33.868,-0l-0,-12.514l51.728,0Z"
                style="fill-opacity:0;" />
            <path id="_9-8" serif:id="9-8"
                d="M208.841,164.416l-0,10.75l-66.149,0l0,-10.75l66.149,0Zm-30.23,21.501c4.498,-0 8.423,0.58 11.774,1.741c3.352,1.161 6.108,2.688 8.269,4.58c2.161,1.892 3.792,4.063 4.895,6.514c1.102,2.451 1.653,4.924 1.653,7.418c0,4.214 -1.301,7.761 -3.902,10.642c-2.602,2.882 -5.932,5.182 -9.989,6.902c2.029,0.602 3.991,1.419 5.887,2.451c1.897,1.032 3.594,2.301 5.094,3.806c1.499,1.505 2.69,3.268 3.572,5.289c0.882,2.021 1.323,4.278 1.323,6.772c-0,3.526 -0.706,6.752 -2.117,9.676c-1.411,2.924 -3.44,5.439 -6.086,7.546c-2.646,2.107 -5.821,3.741 -9.525,4.902c-3.704,1.161 -7.805,1.742 -12.304,1.742c-4.498,-0 -8.511,-0.559 -12.039,-1.677c-3.527,-1.118 -6.548,-2.645 -9.062,-4.58c-2.514,-1.935 -4.432,-4.257 -5.755,-6.966c-1.323,-2.709 -1.984,-5.698 -1.984,-8.966c-0,-2.494 0.397,-4.73 1.19,-6.708c0.794,-1.978 1.875,-3.719 3.242,-5.224c1.367,-1.505 2.976,-2.817 4.828,-3.935c1.853,-1.118 3.793,-2.064 5.822,-2.838c-3.528,-1.548 -6.483,-3.805 -8.864,-6.772c-2.382,-2.968 -3.572,-6.386 -3.572,-10.256c-0,-2.666 0.573,-5.311 1.72,-7.934c1.146,-2.623 2.888,-4.988 5.225,-7.095c2.337,-2.107 5.226,-3.805 8.666,-5.095c3.439,-1.29 7.452,-1.935 12.039,-1.935Zm-9.79,20.898c-0,2.752 0.97,5.074 2.91,6.966c1.941,1.892 4.278,3.182 7.012,3.87c2.293,-0.774 4.256,-2.107 5.887,-3.999c1.632,-1.892 2.448,-3.913 2.448,-6.063c-0,-2.838 -0.816,-4.988 -2.448,-6.45c-1.631,-1.462 -3.858,-2.193 -6.681,-2.193c-2.822,-0 -5.049,0.774 -6.681,2.322c-1.631,1.548 -2.447,3.397 -2.447,5.547Zm8.07,25.284c-2.911,0.946 -5.292,2.344 -7.144,4.193c-1.852,1.849 -2.778,4.149 -2.778,6.901c-0,2.924 0.992,5.246 2.976,6.967c1.985,1.72 4.697,2.58 8.137,2.58c2.91,-0 5.402,-0.925 7.474,-2.774c2.073,-1.849 3.109,-4.15 3.109,-6.902c0,-2.752 -1.124,-5.095 -3.373,-7.03c-2.249,-1.935 -5.05,-3.247 -8.401,-3.935Zm-6.549,-78.756c-4.41,0 -8.246,-0.344 -11.51,-1.032c-3.263,-0.688 -6.041,-1.677 -8.334,-2.967l3.836,-12.9c1.764,0.946 3.837,1.742 6.218,2.387c2.382,0.645 5.027,0.967 7.938,0.967c5.733,0 10.055,-1.72 12.965,-5.16c2.911,-3.44 4.586,-7.955 5.027,-13.545c-1.499,1.204 -3.417,2.258 -5.755,3.161c-2.337,0.903 -5.049,1.354 -8.136,1.354c-3.969,0 -7.585,-0.559 -10.848,-1.677c-3.263,-1.118 -6.064,-2.752 -8.401,-4.902c-2.337,-2.15 -4.145,-4.795 -5.424,-7.934c-1.279,-3.139 -1.918,-6.729 -1.918,-10.771c-0,-4.042 0.705,-7.719 2.116,-11.03c1.411,-3.311 3.418,-6.149 6.02,-8.514c2.602,-2.365 5.755,-4.193 9.459,-5.483c3.704,-1.29 7.894,-1.935 12.568,-1.935c3.705,0 7.321,0.688 10.849,2.064c3.527,1.376 6.658,3.526 9.393,6.45c2.734,2.924 4.939,6.708 6.614,11.353c1.676,4.644 2.514,10.234 2.514,16.77c0,7.396 -0.904,13.803 -2.712,19.221c-1.808,5.418 -4.3,9.912 -7.475,13.481c-3.175,3.569 -6.901,6.235 -11.179,7.998c-4.277,1.763 -8.886,2.644 -13.825,2.644Zm16.14,-51.858c0,-4.3 -0.926,-7.848 -2.778,-10.643c-1.852,-2.795 -4.41,-4.193 -7.673,-4.193c-3.352,0 -6.086,1.032 -8.202,3.096c-2.117,2.065 -3.176,5.333 -3.176,9.805c0,4.386 1.103,7.568 3.308,9.546c2.205,1.978 4.983,2.967 8.335,2.967c1.763,-0 3.417,-0.344 4.961,-1.032c1.543,-0.688 2.756,-1.548 3.638,-2.58c1.058,-1.376 1.587,-3.698 1.587,-6.966Z"
                style="fill-opacity:0;" />
            <path id="_12-8" serif:id="12-8"
                d="M212.531,162.266l-0,10.75l-66.149,0l0,-10.75l66.149,0Zm-30.23,21.5c4.498,0 8.423,0.581 11.774,1.742c3.352,1.161 6.108,2.688 8.269,4.58c2.161,1.892 3.792,4.063 4.895,6.514c1.102,2.451 1.654,4.924 1.654,7.418c-0,4.214 -1.301,7.761 -3.903,10.642c-2.602,2.882 -5.931,5.182 -9.989,6.902c2.029,0.602 3.991,1.419 5.888,2.451c1.896,1.032 3.594,2.301 5.093,3.806c1.499,1.505 2.69,3.268 3.572,5.289c0.882,2.021 1.323,4.278 1.323,6.772c0,3.526 -0.706,6.751 -2.117,9.676c-1.411,2.924 -3.439,5.439 -6.085,7.546c-2.646,2.107 -5.821,3.741 -9.526,4.902c-3.704,1.161 -7.805,1.742 -12.303,1.742c-4.498,-0 -8.511,-0.559 -12.039,-1.677c-3.528,-1.118 -6.549,-2.645 -9.063,-4.58c-2.513,-1.935 -4.432,-4.257 -5.755,-6.966c-1.323,-2.709 -1.984,-5.698 -1.984,-8.966c-0,-2.494 0.397,-4.73 1.191,-6.708c0.793,-1.978 1.874,-3.719 3.241,-5.224c1.367,-1.505 2.977,-2.817 4.829,-3.935c1.852,-1.118 3.792,-2.064 5.821,-2.838c-3.528,-1.548 -6.483,-3.805 -8.864,-6.773c-2.381,-2.967 -3.572,-6.385 -3.572,-10.255c-0,-2.666 0.573,-5.311 1.72,-7.934c1.146,-2.623 2.888,-4.988 5.225,-7.095c2.338,-2.107 5.226,-3.805 8.666,-5.095c3.44,-1.291 7.453,-1.936 12.039,-1.936Zm-9.79,20.899c-0,2.752 0.97,5.074 2.91,6.966c1.941,1.892 4.278,3.182 7.012,3.87c2.293,-0.774 4.256,-2.107 5.887,-3.999c1.632,-1.892 2.448,-3.913 2.448,-6.063c-0,-2.838 -0.816,-4.988 -2.448,-6.45c-1.631,-1.462 -3.858,-2.193 -6.681,-2.193c-2.822,-0 -5.049,0.774 -6.681,2.322c-1.631,1.548 -2.447,3.397 -2.447,5.547Zm8.07,25.284c-2.91,0.946 -5.292,2.344 -7.144,4.193c-1.852,1.849 -2.778,4.149 -2.778,6.901c-0,2.924 0.992,5.246 2.976,6.966c1.985,1.721 4.697,2.581 8.137,2.581c2.91,-0 5.402,-0.925 7.474,-2.774c2.073,-1.849 3.109,-4.15 3.109,-6.902c0,-2.752 -1.124,-5.095 -3.373,-7.03c-2.249,-1.935 -5.049,-3.247 -8.401,-3.935Zm-36.632,-152.889l15.611,0l-0,77.144l-18.389,-0l-0,-61.018l-14.95,6.966l-4.233,-13.288l21.961,-9.804Zm56.755,12.126c-4.939,0 -9.922,2.022 -14.949,6.064l-7.541,-11.224c3.087,-2.494 6.593,-4.536 10.517,-6.127c3.925,-1.591 8.842,-2.387 14.751,-2.387c3.881,0 7.387,0.559 10.518,1.677c3.131,1.118 5.799,2.688 8.004,4.709c2.205,2.021 3.903,4.429 5.093,7.224c1.191,2.795 1.786,5.827 1.786,9.095c0,5.16 -1.83,10.642 -5.49,16.447c-3.66,5.805 -9.062,11.933 -16.206,18.383l-7.938,7.353l30.296,0l-0,13.804l-48.95,-0l-3.307,-11.869l11.642,-11.352c4.057,-3.956 7.431,-7.439 10.121,-10.449c2.69,-3.01 4.85,-5.719 6.482,-8.127c1.632,-2.408 2.778,-4.623 3.44,-6.644c0.661,-2.021 0.992,-4.02 0.992,-5.998c0,-3.612 -0.904,-6.278 -2.712,-7.998c-1.808,-1.721 -3.991,-2.581 -6.549,-2.581Z"
                style="fill-opacity:0;" />
        </g>
    </g>
</svg>