<?xml version="1.0" encoding="UTF-8" standalone="no"?>
<!DOCTYPE svg PUBLIC "-//W3C//DTD SVG 1.1//EN" "http://www.w3.org/Graphics/SVG/1.1/DTD/svg11.dtd"><svg width="100%"
    height="100%" viewBox="0 0 352 724" version="1.1" xmlns="http://www.w3.org/2000/svg"
    xmlns:xlink="http://www.w3.org/1999/xlink" xml:space="preserve" xmlns:serif="http://www.serif.com/"
    style="fill-rule:evenodd;clip-rule:evenodd;stroke-linecap:round;stroke-linejoin:round;stroke-miterlimit:2;">
    <rect id="port-circle-settings" x="0.033" y="0.406" width="351.007" height="723.058" style="fill:#f2cc8f;" />
    <g id="port-circle-settings1" serif:id="port-circle-settings">
        <circle id="top-bg" cx="175.359" cy="177.095" r="150" style="fill:#e07a5f;" />
        <path id="bottom-curve"
            d="M177.726,327.619l-2.367,0c-82.189,0 -148.817,67.157 -148.817,150c0,82.787 66.683,150 148.817,150c82.19,0 148.817,-67.157 148.817,-150"
            style="fill:none;stroke:#3d405b;stroke-width:8px;" />
        <g id="_12_pads" serif:id="12_pads">
            <circle id="inactive-beat" cx="175.209" cy="382.982" r="23" style="fill:#464646;" />
            <g id="subdivision-group">
                <path id="top-subdivision"
                    d="M195.117,371.464c-6.361,-10.995 -20.431,-14.752 -31.426,-8.391c-3.495,2.021 -6.396,4.927 -8.412,8.425l8.976,5.172c1.108,-1.922 2.702,-3.519 4.623,-4.631c6.043,-3.496 13.776,-1.431 17.272,4.612l8.967,-5.187Z"
                    style="fill:#e07a5f;" />
                <path id="left-subdivision"
                    d="M155.279,371.498c-6.341,11.007 -2.56,25.07 8.446,31.412c3.498,2.015 7.465,3.075 11.503,3.071l-0.009,-10.359c-2.219,0.002 -4.4,-0.58 -6.322,-1.688c-6.049,-3.485 -8.127,-11.215 -4.642,-17.264l-8.976,-5.172Z"
                    style="fill:#e07a5f;" />
                <path id="right-subdivision"
                    d="M175.228,405.981c12.702,-0.011 22.991,-10.317 22.98,-23.02c-0.004,-4.037 -1.07,-8.002 -3.091,-11.497l-8.967,5.187c1.111,1.921 1.697,4.1 1.699,6.319c0.006,6.982 -5.649,12.646 -12.63,12.652l0.009,10.359Z"
                    style="fill:#e07a5f;" />
            </g>
        </g>
        <g id="play-controls">
            <g id="reset">
                <circle id="reset-bg" cx="240.537" cy="665.406" r="24" style="fill:#3d405b;" />
                <path id="reset-symbol"
                    d="M232.91,650.775c2.353,-1.227 4.969,-1.869 7.627,-1.869c9.106,0 16.5,7.394 16.5,16.5c-0,9.107 -7.394,16.5 -16.5,16.5c-9.113,0 -16.5,-7.387 -16.5,-16.5c-0,-0.828 0.672,-1.5 1.5,-1.5c0.827,0 1.5,0.672 1.5,1.5c-0,7.456 6.044,13.5 13.5,13.5c7.45,0 13.5,-6.049 13.5,-13.5c-0,-7.451 -6.05,-13.5 -13.5,-13.5c-2.142,0 -4.251,0.51 -6.153,1.484l1.025,1.819c0.101,0.18 0.096,0.401 -0.014,0.575c-0.11,0.175 -0.307,0.275 -0.513,0.262l-6.576,-0.441c-0.189,-0.013 -0.359,-0.12 -0.452,-0.285c-0.093,-0.165 -0.097,-0.366 -0.01,-0.534l3.028,-5.854c0.095,-0.184 0.283,-0.3 0.489,-0.304c0.206,-0.004 0.398,0.106 0.5,0.286l1.049,1.861Z"
                    style="fill:#f2cc8f;" />
            </g>
            <g id="pause">
                <circle id="pause-bg" cx="175.192" cy="680.406" r="24" style="fill:#3d405b;" />
                <path id="pause-symbol"
                    d="M180.08,667.161l-0,26.491c-0,1.205 -0.978,2.183 -2.183,2.183c-1.205,-0 -2.183,-0.978 -2.183,-2.183l-0,-26.491c-0,-1.205 0.978,-2.183 2.183,-2.183c1.205,-0 2.183,0.978 2.183,2.183Zm-5.41,-0l-0,26.491c-0,1.205 -0.979,2.183 -2.184,2.183c-1.204,-0 -2.183,-0.978 -2.183,-2.183l0,-26.491c0,-1.205 0.979,-2.183 2.183,-2.183c1.205,-0 2.184,0.978 2.184,2.183Z"
                    style="fill:#f2cc8f;" />
            </g>
            <g id="play">
                <circle id="play-bg" cx="110.537" cy="665.406" r="24" style="fill:#3d405b;" />
                <path id="play-symbol"
                    d="M127.325,668.984l-24,12c-1.24,0.62 -2.712,0.554 -3.891,-0.175c-1.18,-0.729 -1.897,-2.016 -1.897,-3.403l-0,-24c-0,-1.386 0.717,-2.674 1.897,-3.402c1.179,-0.729 2.651,-0.795 3.891,-0.175l24,12c1.356,0.677 2.212,2.062 2.212,3.577c-0,1.515 -0.856,2.9 -2.212,3.578Z"
                    style="fill:#f2cc8f;" />
            </g>
        </g>
        <g id="subdivision">
            <ellipse id="subdivision-bg" cx="324.176" cy="477.619" rx="24" ry="24" style="fill:#3d405b;" />
            <path id="subdivision-off-symbol"
                d="M339.176,476.893l-0,1.666c-0,0.46 -0.374,0.834 -0.834,0.834l-28.333,-0c-0.46,-0 -0.833,-0.374 -0.833,-0.834l-0,-1.666c-0,-0.46 0.373,-0.834 0.833,-0.834l28.333,0c0.46,0 0.834,0.374 0.834,0.834Zm-13.164,-6.596l-0.906,-0.906c0.161,-0.33 0.106,-0.6 -0.165,-0.809c-0.272,-0.21 -0.514,-0.238 -0.729,-0.085l-0.834,-0.833c0.137,-0.065 0.27,-0.111 0.399,-0.139c0.129,-0.028 0.264,-0.043 0.406,-0.043c0.558,0 1.033,0.196 1.423,0.587c0.391,0.391 0.587,0.865 0.587,1.423c-0,0.134 -0.014,0.278 -0.043,0.432c-0.028,0.154 -0.074,0.279 -0.138,0.373Zm1.787,1.8l-0.64,-0.653c0.354,-0.282 0.66,-0.59 0.918,-0.924c0.258,-0.334 0.467,-0.676 0.628,-1.025c-0.427,-0.875 -1.034,-1.576 -1.823,-2.103c-0.789,-0.528 -1.654,-0.791 -2.595,-0.791c-0.332,-0 -0.66,0.028 -0.983,0.084c-0.324,0.057 -0.56,0.121 -0.711,0.194l-0.761,-0.774c0.274,-0.112 0.639,-0.219 1.095,-0.32c0.456,-0.1 0.894,-0.151 1.314,-0.151c1.156,0 2.236,0.339 3.24,1.015c1.005,0.676 1.751,1.626 2.239,2.851c-0.194,0.531 -0.459,1.014 -0.797,1.449c-0.339,0.435 -0.713,0.817 -1.124,1.148Zm0.314,2.717l-1.848,-1.824c-0.282,0.113 -0.602,0.204 -0.962,0.272c-0.359,0.069 -0.735,0.103 -1.127,0.103c-1.192,-0 -2.291,-0.338 -3.298,-1.015c-1.007,-0.676 -1.755,-1.626 -2.247,-2.85c0.137,-0.419 0.359,-0.836 0.665,-1.251c0.306,-0.414 0.656,-0.816 1.051,-1.205l-1.486,-1.446l0.58,-0.604l9.216,9.216l-0.544,0.604Zm-7.09,-7.102c-0.29,0.25 -0.56,0.533 -0.809,0.852c-0.25,0.318 -0.439,0.63 -0.568,0.936c0.418,0.895 1.033,1.602 1.845,2.12c0.812,0.519 1.739,0.779 2.781,0.779c0.226,-0 0.455,-0.017 0.689,-0.049c0.233,-0.032 0.422,-0.08 0.567,-0.145l-0.797,-0.797c-0.072,0.024 -0.158,0.048 -0.257,0.073c-0.099,0.024 -0.198,0.036 -0.298,0.036c-0.554,-0 -1.029,-0.194 -1.424,-0.581c-0.396,-0.388 -0.594,-0.867 -0.594,-1.436c0,-0.093 0.008,-0.186 0.025,-0.281c0.016,-0.095 0.036,-0.186 0.06,-0.275l-1.22,-1.232Zm4.989,18.228l-0.906,-0.905c0.161,-0.331 0.106,-0.6 -0.165,-0.81c-0.272,-0.209 -0.514,-0.237 -0.729,-0.084l-0.834,-0.834c0.137,-0.064 0.27,-0.11 0.399,-0.139c0.129,-0.028 0.264,-0.042 0.406,-0.042c0.558,0 1.033,0.195 1.423,0.586c0.391,0.391 0.587,0.866 0.587,1.424c-0,0.134 -0.014,0.278 -0.043,0.432c-0.028,0.154 -0.074,0.278 -0.138,0.372Zm1.787,1.8l-0.64,-0.652c0.354,-0.282 0.66,-0.59 0.918,-0.924c0.258,-0.335 0.467,-0.676 0.628,-1.026c-0.427,-0.874 -1.034,-1.575 -1.823,-2.103c-0.789,-0.527 -1.654,-0.791 -2.595,-0.791c-0.332,0 -0.66,0.028 -0.983,0.085c-0.324,0.056 -0.56,0.121 -0.711,0.193l-0.761,-0.773c0.274,-0.113 0.639,-0.219 1.095,-0.32c0.456,-0.101 0.894,-0.151 1.314,-0.151c1.156,0 2.236,0.338 3.24,1.015c1.005,0.676 1.751,1.626 2.239,2.85c-0.194,0.532 -0.459,1.015 -0.797,1.45c-0.339,0.435 -0.713,0.817 -1.124,1.147Zm0.314,2.718l-1.848,-1.824c-0.282,0.113 -0.602,0.203 -0.962,0.272c-0.359,0.068 -0.735,0.102 -1.127,0.102c-1.192,0 -2.291,-0.338 -3.298,-1.014c-1.007,-0.677 -1.755,-1.627 -2.247,-2.851c0.137,-0.419 0.359,-0.835 0.665,-1.25c0.306,-0.415 0.656,-0.816 1.051,-1.205l-1.486,-1.446l0.58,-0.604l9.216,9.216l-0.544,0.604Zm-7.09,-7.102c-0.29,0.249 -0.56,0.533 -0.809,0.851c-0.25,0.318 -0.439,0.63 -0.568,0.936c0.418,0.895 1.033,1.602 1.845,2.121c0.812,0.519 1.739,0.778 2.781,0.778c0.226,0 0.455,-0.016 0.689,-0.048c0.233,-0.032 0.422,-0.081 0.567,-0.145l-0.797,-0.797c-0.072,0.024 -0.158,0.048 -0.257,0.072c-0.099,0.024 -0.198,0.036 -0.298,0.036c-0.554,0 -1.029,-0.193 -1.424,-0.581c-0.396,-0.387 -0.594,-0.866 -0.594,-1.436c0,-0.092 0.008,-0.186 0.025,-0.281c0.016,-0.094 0.036,-0.186 0.06,-0.274l-1.22,-1.232Z"
                style="fill:#f2cc8f;" />
            <path id="subdivisions-on-symbol"
                d="M339.176,476.893l-0,1.666c-0,0.46 -0.374,0.834 -0.834,0.834l-28.333,-0c-0.46,-0 -0.833,-0.374 -0.833,-0.834l-0,-1.666c-0,-0.46 0.373,-0.834 0.833,-0.834l28.333,0c0.46,0 0.834,0.374 0.834,0.834Zm-15,-3.416c-1.245,-0 -2.376,-0.367 -3.393,-1.1c-1.018,-0.733 -1.778,-1.685 -2.281,-2.855c0.503,-1.17 1.263,-2.122 2.281,-2.855c1.017,-0.734 2.148,-1.1 3.393,-1.1c1.244,-0 2.375,0.366 3.392,1.1c1.018,0.733 1.778,1.685 2.281,2.855c-0.503,1.17 -1.263,2.122 -2.281,2.855c-1.017,0.733 -2.148,1.1 -3.392,1.1Zm-0.001,-0.989c1,0 1.911,-0.268 2.732,-0.804c0.821,-0.536 1.451,-1.257 1.891,-2.162c-0.44,-0.906 -1.07,-1.627 -1.89,-2.163c-0.82,-0.536 -1.731,-0.804 -2.731,-0.804c-1.001,0 -1.914,0.268 -2.739,0.804c-0.825,0.536 -1.457,1.257 -1.898,2.163c0.441,0.905 1.073,1.626 1.897,2.162c0.824,0.536 1.737,0.804 2.738,0.804Zm0.004,-0.902c-0.574,-0 -1.062,-0.2 -1.465,-0.6c-0.402,-0.399 -0.603,-0.886 -0.603,-1.461c0,-0.574 0.2,-1.062 0.6,-1.464c0.4,-0.402 0.887,-0.603 1.461,-0.603c0.574,-0 1.063,0.199 1.465,0.599c0.402,0.4 0.603,0.887 0.603,1.461c-0,0.575 -0.2,1.063 -0.6,1.465c-0.399,0.402 -0.886,0.603 -1.461,0.603Zm-0.005,-0.878c0.325,0 0.605,-0.116 0.838,-0.348c0.233,-0.233 0.35,-0.512 0.35,-0.837c0,-0.325 -0.116,-0.604 -0.349,-0.838c-0.232,-0.233 -0.511,-0.35 -0.836,-0.35c-0.325,0 -0.605,0.116 -0.838,0.349c-0.233,0.232 -0.35,0.511 -0.35,0.836c-0,0.326 0.116,0.605 0.349,0.838c0.232,0.234 0.511,0.35 0.836,0.35Zm0.002,18.39c-1.245,-0 -2.376,-0.367 -3.393,-1.1c-1.018,-0.734 -1.778,-1.685 -2.281,-2.855c0.503,-1.171 1.263,-2.122 2.281,-2.856c1.017,-0.733 2.148,-1.1 3.393,-1.1c1.244,0 2.375,0.367 3.392,1.1c1.018,0.734 1.778,1.685 2.281,2.856c-0.503,1.17 -1.263,2.121 -2.281,2.855c-1.017,0.733 -2.148,1.1 -3.392,1.1Zm-0.001,-0.989c1,-0 1.911,-0.268 2.732,-0.804c0.821,-0.536 1.451,-1.257 1.891,-2.162c-0.44,-0.906 -1.07,-1.627 -1.89,-2.163c-0.82,-0.536 -1.731,-0.804 -2.731,-0.804c-1.001,0 -1.914,0.268 -2.739,0.804c-0.825,0.536 -1.457,1.257 -1.898,2.163c0.441,0.905 1.073,1.626 1.897,2.162c0.824,0.536 1.737,0.804 2.738,0.804Zm0.004,-0.902c-0.574,-0 -1.062,-0.2 -1.465,-0.6c-0.402,-0.399 -0.603,-0.886 -0.603,-1.461c0,-0.574 0.2,-1.062 0.6,-1.465c0.4,-0.402 0.887,-0.603 1.461,-0.603c0.574,0 1.063,0.2 1.465,0.6c0.402,0.399 0.603,0.886 0.603,1.461c-0,0.574 -0.2,1.062 -0.6,1.465c-0.399,0.402 -0.886,0.603 -1.461,0.603Zm-0.005,-0.878c0.325,0 0.605,-0.116 0.838,-0.349c0.233,-0.232 0.35,-0.511 0.35,-0.836c0,-0.325 -0.116,-0.605 -0.349,-0.838c-0.232,-0.233 -0.511,-0.35 -0.836,-0.35c-0.325,-0 -0.605,0.116 -0.838,0.349c-0.233,0.232 -0.35,0.511 -0.35,0.836c-0,0.325 0.116,0.605 0.349,0.838c0.232,0.233 0.511,0.35 0.836,0.35Z"
                style="fill:#f2cc8f;" />
        </g>
        <g id="division">
            <ellipse id="division-bg" cx="324.176" cy="177.106" rx="24" ry="24" style="fill:#3d405b;" />
            <path id="division-symbol"
                d="M339.176,176.154l-0,1.667c-0,0.46 -0.374,0.833 -0.834,0.833l-28.333,0c-0.46,0 -0.833,-0.373 -0.833,-0.833l-0,-1.667c-0,-0.46 0.373,-0.833 0.833,-0.833l28.333,0c0.46,0 0.834,0.373 0.834,0.833Zm-15.005,13.334c-0.662,-0 -1.286,-0.128 -1.872,-0.384c-0.586,-0.256 -1.097,-0.602 -1.533,-1.038c-0.436,-0.436 -0.783,-0.947 -1.038,-1.534c-0.256,-0.586 -0.384,-1.211 -0.384,-1.875c-0,-0.668 0.128,-1.296 0.384,-1.883c0.256,-0.588 0.604,-1.101 1.042,-1.54c0.439,-0.438 0.95,-0.783 1.533,-1.033c0.584,-0.251 1.206,-0.377 1.866,-0.377c0.669,0 1.298,0.126 1.888,0.376c0.59,0.251 1.104,0.596 1.54,1.034c0.437,0.438 0.781,0.952 1.033,1.541c0.251,0.588 0.377,1.217 0.377,1.887c0,0.664 -0.125,1.287 -0.376,1.869c-0.25,0.582 -0.595,1.092 -1.033,1.53c-0.438,0.439 -0.952,0.786 -1.541,1.042c-0.588,0.257 -1.217,0.385 -1.886,0.385Zm0.005,-0.713c1.14,0 2.112,-0.402 2.915,-1.208c0.802,-0.805 1.204,-1.776 1.204,-2.911c-0,-1.14 -0.402,-2.112 -1.204,-2.915c-0.803,-0.803 -1.775,-1.204 -2.915,-1.204c-1.136,-0 -2.106,0.401 -2.912,1.204c-0.805,0.803 -1.208,1.775 -1.208,2.915c0,1.135 0.403,2.106 1.208,2.911c0.806,0.806 1.776,1.208 2.912,1.208Zm0.768,-3.354c-0.146,-0 -0.269,-0.052 -0.37,-0.157c-0.1,-0.105 -0.151,-0.226 -0.151,-0.363c0,-0.146 0.051,-0.27 0.151,-0.371c0.101,-0.1 0.224,-0.151 0.369,-0.151c0.147,0 0.27,0.051 0.371,0.151c0.101,0.101 0.151,0.224 0.151,0.37c0,0.138 -0.05,0.26 -0.151,0.364c-0.101,0.105 -0.224,0.157 -0.37,0.157Zm-0.28,2.025c-0.288,0 -0.546,-0.083 -0.776,-0.25c-0.229,-0.168 -0.39,-0.389 -0.482,-0.665c-0.024,-0.082 -0.058,-0.163 -0.101,-0.243c-0.043,-0.079 -0.09,-0.149 -0.142,-0.209l-0.659,-0.667c-0.21,-0.205 -0.368,-0.433 -0.473,-0.684c-0.105,-0.252 -0.158,-0.519 -0.158,-0.802c0,-0.585 0.2,-1.076 0.6,-1.475c0.4,-0.398 0.888,-0.597 1.464,-0.597c0.524,-0 0.98,0.171 1.37,0.513c0.39,0.342 0.618,0.768 0.683,1.276l-0.72,0c-0.065,-0.318 -0.221,-0.577 -0.469,-0.777c-0.247,-0.2 -0.536,-0.3 -0.866,-0.3c-0.377,-0 -0.696,0.133 -0.958,0.398c-0.261,0.265 -0.391,0.587 -0.391,0.963c-0,0.186 0.035,0.365 0.106,0.538c0.071,0.172 0.175,0.321 0.312,0.447l0.659,0.659c0.1,0.108 0.182,0.224 0.248,0.35c0.065,0.125 0.126,0.258 0.18,0.398c0.039,0.122 0.111,0.221 0.216,0.299c0.105,0.077 0.224,0.116 0.358,0.116c0.175,-0 0.323,-0.062 0.443,-0.187c0.121,-0.125 0.182,-0.267 0.182,-0.427l0.712,0c-0,0.369 -0.13,0.682 -0.389,0.94c-0.259,0.258 -0.576,0.386 -0.949,0.386Zm-0.493,-13.295c-0.662,-0 -1.286,-0.128 -1.872,-0.384c-0.586,-0.255 -1.097,-0.601 -1.533,-1.037c-0.436,-0.436 -0.783,-0.948 -1.038,-1.534c-0.256,-0.587 -0.384,-1.212 -0.384,-1.876c-0,-0.668 0.128,-1.295 0.384,-1.883c0.256,-0.588 0.604,-1.101 1.042,-1.539c0.439,-0.439 0.95,-0.783 1.533,-1.034c0.584,-0.251 1.206,-0.376 1.866,-0.376c0.669,-0 1.298,0.125 1.888,0.376c0.59,0.25 1.104,0.595 1.54,1.033c0.437,0.439 0.781,0.952 1.033,1.541c0.251,0.589 0.377,1.218 0.377,1.887c0,0.665 -0.125,1.288 -0.376,1.869c-0.25,0.582 -0.595,1.092 -1.033,1.53c-0.438,0.439 -0.952,0.786 -1.541,1.043c-0.588,0.256 -1.217,0.384 -1.886,0.384Zm0.005,-0.712c1.14,-0 2.112,-0.403 2.915,-1.208c0.802,-0.806 1.204,-1.776 1.204,-2.912c-0,-1.14 -0.402,-2.112 -1.204,-2.915c-0.803,-0.803 -1.775,-1.204 -2.915,-1.204c-1.136,0 -2.106,0.401 -2.912,1.204c-0.805,0.803 -1.208,1.775 -1.208,2.915c0,1.136 0.403,2.106 1.208,2.912c0.806,0.805 1.776,1.208 2.912,1.208Zm0.488,-1.329c-0.288,-0 -0.546,-0.084 -0.776,-0.251c-0.229,-0.167 -0.39,-0.389 -0.482,-0.664c-0.024,-0.083 -0.058,-0.164 -0.101,-0.244c-0.043,-0.079 -0.09,-0.149 -0.142,-0.209l-0.659,-0.666c-0.21,-0.205 -0.368,-0.434 -0.473,-0.685c-0.105,-0.252 -0.158,-0.519 -0.158,-0.802c0,-0.584 0.2,-1.076 0.6,-1.474c0.4,-0.399 0.888,-0.598 1.464,-0.598c0.524,-0 0.98,0.171 1.37,0.513c0.39,0.342 0.618,0.768 0.683,1.277l-0.72,-0c-0.065,-0.318 -0.221,-0.577 -0.469,-0.777c-0.247,-0.201 -0.536,-0.301 -0.866,-0.301c-0.377,0 -0.696,0.133 -0.958,0.398c-0.261,0.266 -0.391,0.587 -0.391,0.964c-0,0.186 0.035,0.365 0.106,0.537c0.071,0.172 0.175,0.321 0.312,0.448l0.659,0.658c0.1,0.108 0.182,0.225 0.248,0.35c0.065,0.126 0.126,0.258 0.18,0.398c0.039,0.122 0.111,0.221 0.216,0.299c0.105,0.077 0.224,0.116 0.358,0.116c0.175,0 0.323,-0.062 0.443,-0.187c0.121,-0.125 0.182,-0.267 0.182,-0.427l0.712,0c-0,0.369 -0.13,0.682 -0.389,0.94c-0.259,0.258 -0.576,0.387 -0.949,0.387Zm0.28,-2.026c-0.146,0 -0.269,-0.052 -0.37,-0.157c-0.1,-0.105 -0.151,-0.226 -0.151,-0.362c0,-0.147 0.051,-0.271 0.151,-0.371c0.101,-0.101 0.224,-0.152 0.369,-0.152c0.147,0 0.27,0.051 0.371,0.152c0.101,0.1 0.151,0.224 0.151,0.369c0,0.139 -0.05,0.26 -0.151,0.364c-0.101,0.105 -0.224,0.157 -0.37,0.157Z"
                style="fill:#f2cc8f;" />
        </g>
        <g id="bpm">
            <ellipse id="bpm-bg" cx="175.537" cy="327.096" rx="24" ry="24" style="fill:#3d405b;" />
            <path id="bpm-symbol"
                d="M192.522,310.124l-16.971,12.728c-1.17,1.171 -1.17,3.072 0,4.243c1.171,1.17 3.072,1.17 4.243,-0l12.728,-16.971Z"
                style="fill:#f2cc8f;" />
        </g>
        <g id="settings">
            <ellipse id="settings-bg" cx="175.537" cy="627.619" rx="24" ry="24" style="fill:#3d405b;" />
            <path id="settings-symbol"
                d="M179.002,609.955c-2.288,-0.449 -4.642,-0.449 -6.93,0l-0.765,4.166c-1.987,0.623 -3.812,1.676 -5.344,3.086l-3.99,-1.421c-1.534,1.757 -2.71,3.796 -3.466,6.002l3.226,2.745c-0.454,2.032 -0.454,4.139 0,6.171l-3.226,2.745c0.756,2.206 1.932,4.245 3.466,6.002l3.99,-1.421c1.532,1.41 3.357,2.463 5.344,3.086l0.765,4.166c2.288,0.448 4.642,0.448 6.93,-0l0.765,-4.166c1.986,-0.623 3.812,-1.676 5.344,-3.086l3.99,1.421c1.533,-1.757 2.71,-3.796 3.466,-6.002l-3.226,-2.745c0.454,-2.032 0.454,-4.139 -0,-6.171l3.226,-2.745c-0.756,-2.206 -1.933,-4.245 -3.466,-6.002l-3.99,1.421c-1.532,-1.41 -3.358,-2.463 -5.344,-3.086l-0.765,-4.166Zm-3.465,10.716c3.834,0 6.947,3.113 6.947,6.947c-0,3.834 -3.113,6.947 -6.947,6.947c-3.834,0 -6.947,-3.113 -6.947,-6.947c0,-3.834 3.113,-6.947 6.947,-6.947Z"
                style="fill:#f2cc8f;" />
        </g>
        <g id="volume">
            <circle id="volume-bg" cx="26.533" cy="177.095" r="24" style="fill:#3d405b;" />
            <path id="volume-symbol"
                d="M34.471,190.105c-0.682,0.468 -1.617,0.294 -2.085,-0.389c-0.468,-0.683 -0.294,-1.617 0.389,-2.085c3.51,-2.407 5.607,-6.389 5.607,-10.645c0,-4.256 -2.097,-8.239 -5.607,-10.645c-0.683,-0.468 -0.857,-1.402 -0.389,-2.085c0.468,-0.683 1.403,-0.857 2.085,-0.389c4.326,2.965 6.911,7.873 6.911,13.119c0,5.246 -2.585,10.153 -6.911,13.119Zm-2.941,-4.844c-0.456,0.312 -1.078,0.196 -1.391,-0.26c-0.312,-0.455 -0.196,-1.078 0.26,-1.39c2.184,-1.497 3.489,-3.976 3.489,-6.625c0,-2.649 -1.305,-5.128 -3.489,-6.625c-0.456,-0.312 -0.572,-0.935 -0.26,-1.391c0.313,-0.455 0.935,-0.571 1.391,-0.259c2.728,1.871 4.358,4.966 4.358,8.275c0,3.309 -1.63,6.404 -4.358,8.275Zm-1.599,-4.415c-0.342,0.235 -0.809,0.148 -1.043,-0.194c-0.234,-0.341 -0.148,-0.808 0.194,-1.042c0.864,-0.594 1.381,-1.575 1.381,-2.624c0,-1.049 -0.517,-2.03 -1.381,-2.624c-0.342,-0.234 -0.428,-0.701 -0.194,-1.042c0.234,-0.342 0.701,-0.429 1.043,-0.194c1.271,0.872 2.032,2.317 2.032,3.86c0,1.543 -0.761,2.988 -2.032,3.86Zm-4.776,-15.656c0.296,-0.195 0.675,-0.211 0.986,-0.043c0.312,0.168 0.506,0.494 0.507,0.848c0.002,4.6 0.009,16.846 0.012,21.722c0.001,0.393 -0.219,0.753 -0.569,0.933c-0.35,0.179 -0.771,0.148 -1.09,-0.082c-3.064,-2.203 -9.454,-6.797 -11.164,-8.026c-0.269,-0.194 -0.428,-0.505 -0.429,-0.836c-0.001,-1.345 -0.003,-4.889 -0.004,-6.254c0,-0.341 0.171,-0.659 0.456,-0.846c1.783,-1.17 8.321,-5.463 11.295,-7.416Z"
                style="fill:#f2cc8f;" />
        </g>
        <g id="time-signature">
            <ellipse id="time-signature-bg" cx="26.542" cy="477.619" rx="24" ry="24" style="fill:#3d405b;" />
            <path id="time-signature-symbol"
                d="M27.551,465.379c1.504,-0 2.936,0.312 4.296,0.936c1.36,0.624 2.472,1.472 3.336,2.544c0.864,1.072 1.296,2.28 1.296,3.624c-0,1.184 -0.4,2.2 -1.2,3.048c-0.8,0.848 -1.808,1.272 -3.024,1.272c-1.088,-0 -1.984,-0.312 -2.688,-0.936c-0.704,-0.624 -1.056,-1.48 -1.056,-2.568c-0,-0.832 0.24,-1.536 0.72,-2.112c0.48,-0.576 1.056,-1.024 1.728,-1.344c0.352,-0.16 0.784,-0.296 1.296,-0.408c0.512,-0.112 0.768,-0.264 0.768,-0.456c-0,-0.512 -0.448,-0.992 -1.344,-1.44c-0.896,-0.448 -1.856,-0.672 -2.88,-0.672c-1.312,-0 -2.432,0.304 -3.36,0.912c-0.928,0.608 -1.624,1.648 -2.088,3.12c-0.464,1.472 -0.696,3.52 -0.696,6.144l-0,3.744c-0,1.184 0.184,2.344 0.552,3.48c0.368,1.136 0.984,2.072 1.848,2.808c0.864,0.736 2,1.104 3.408,1.104c1.6,-0 3.056,-0.72 4.368,-2.16c1.312,-1.44 2.16,-3.376 2.544,-5.808l1.296,-0c-0.128,1.856 -0.608,3.512 -1.44,4.968c-0.832,1.456 -1.952,2.6 -3.36,3.432c-1.408,0.832 -3.024,1.248 -4.848,1.248c-2.016,-0 -3.824,-0.584 -5.424,-1.752c-1.6,-1.168 -2.864,-2.728 -3.792,-4.68c-0.928,-1.952 -1.392,-4.128 -1.392,-6.528c-0,-1.536 0.296,-2.992 0.888,-4.368c0.592,-1.376 1.4,-2.6 2.424,-3.672c1.024,-1.072 2.208,-1.92 3.552,-2.544c1.344,-0.624 2.768,-0.936 4.272,-0.936Z"
                style="fill:#f2cc8f;fill-rule:nonzero;" />
            <path id="pitch-symbol"
                d="M29.855,471.619l1.244,0l0,11.527c1.11,-1.218 1.759,-1.759 2.544,-2.165c0.838,-0.406 1.704,-0.622 2.516,-0.622c2.381,-0 4.031,1.569 4.031,3.842c0,1.894 -0.649,3.301 -2.408,5.195c-1.109,1.191 -2.841,2.652 -4.572,3.896c-1.516,1.083 -1.921,1.461 -2.571,2.327l-0.784,0l-0,-24Zm1.244,13.231l0,8.686c5.141,-4.411 6.792,-6.683 6.792,-9.227c-0,-1.407 -1.056,-2.516 -2.409,-2.516c-0.405,-0 -0.838,0.108 -1.298,0.27c-1.353,0.542 -2.057,1.164 -3.085,2.787Zm-4.887,-10.195l-2.864,1.275l-0,4.682l-1.232,0l0,-4.124l-5.126,2.291l-0,4.84l-1.232,0l0,-4.281l-2.864,1.274l0,-2.406l2.864,-1.274l0,-7.074l-2.864,1.274l0,-2.405l2.864,-1.275l0,-4.682l1.232,-0l-0,4.124l5.126,-2.291l0,-4.984l1.232,0l-0,4.425l2.864,-1.274l-0,2.405l-2.864,1.275l-0,7.074l2.864,-1.275l-0,2.406Zm-4.096,-0.573l0,-7.074l-5.126,2.291l-0,7.074l5.126,-2.291Z"
                style="fill:#f2cc8f;" />
        </g>
        <g transform="matrix(131.587,0,0,131.587,247.712,216.505)"></g><text x="103.098px" y="216.505px"
            style="font-family:'MuktaMahee-Bold', 'Mukta Mahee', sans-serif;font-weight:700;font-size:131.587px;fill:#3d405b;">6
            <tspan x="174.023px " y="216.505px ">0</tspan>
        </text>
        <g id="time-sig-indicators">
            <path id="_3-4" serif:id="3-4"
                d="M155.126,91.174c3.274,-2.151 6.642,-3.671 10.103,-4.56c3.46,-0.888 6.968,-1.333 10.523,-1.333c3.554,0 6.805,0.538 9.751,1.614c2.946,1.076 5.472,2.572 7.577,4.49c2.104,1.917 3.741,4.162 4.91,6.735c1.17,2.572 1.754,5.401 1.754,8.488c0,5.145 -1.286,9.377 -3.858,12.698c-2.573,3.321 -5.776,5.682 -9.611,7.085c4.77,1.31 8.699,3.719 11.785,7.226c3.087,3.508 4.631,7.741 4.631,12.698c-0,4.209 -0.842,7.787 -2.526,10.734c-1.684,2.946 -3.882,5.331 -6.594,7.155c-2.713,1.824 -5.753,3.134 -9.12,3.929c-3.368,0.795 -6.782,1.192 -10.243,1.192c-3.554,0 -7.202,-0.374 -10.944,-1.122c-3.741,-0.748 -6.968,-1.777 -9.681,-3.087l1.543,-5.472c5.239,2.619 11.552,3.929 18.942,3.929c2.713,-0 5.355,-0.351 7.927,-1.052c2.573,-0.702 4.864,-1.754 6.875,-3.157c2.011,-1.403 3.625,-3.181 4.841,-5.332c1.216,-2.151 1.824,-4.724 1.824,-7.717c-0,-5.145 -1.988,-9.167 -5.963,-12.066c-3.975,-2.9 -9.097,-4.35 -15.364,-4.35l-10.242,0l-0,-5.612l7.717,-0c2.899,-0 5.635,-0.374 8.208,-1.123c2.572,-0.748 4.84,-1.87 6.805,-3.367c1.964,-1.497 3.507,-3.297 4.63,-5.402c1.122,-2.104 1.683,-4.56 1.683,-7.366c0,-4.77 -1.566,-8.652 -4.7,-11.645c-3.133,-2.994 -7.46,-4.49 -12.978,-4.49c-3.087,-0 -5.987,0.374 -8.699,1.122c-2.713,0.748 -5.8,2.152 -9.261,4.209l-2.245,-5.051Zm29.493,95.316l7.998,-0l-0,54.299l14.171,-0l-0,5.752l-14.171,0l-0,22.169l-7.156,-0l0,-22.169l-41.531,0l0,-4.069l40.689,-55.982Zm-31.85,54.299l32.692,-0l0,-29.605l0.421,-17.819l-11.084,17.117l-22.029,30.307Zm51.821,-65.617l-0,5.846l-58.462,-0l0,-5.846l58.462,-0Z"
                style="fill:#3d405b;fill-opacity:0;" />
            <path id="_4-4" serif:id="4-4"
                d="M184.619,186.49l7.998,-0l-0,54.299l14.171,-0l-0,5.752l-14.171,0l-0,22.169l-7.156,-0l0,-22.169l-41.531,0l0,-4.069l40.689,-55.982Zm-31.85,54.299l32.692,-0l0,-29.605l0.421,-17.819l-11.084,17.117l-22.029,30.307Zm31.85,-153.972l7.998,0l-0,54.299l14.171,-0l-0,5.753l-14.171,-0l-0,22.168l-7.156,0l0,-22.168l-41.531,-0l0,-4.069l40.689,-55.983Zm-31.85,54.299l32.692,-0l0,-29.605l0.421,-17.819l-11.084,17.118l-22.029,30.306Zm51.821,34.056l-0,5.846l-58.462,-0l0,-5.846l58.462,-0Z"
                style="fill:#3d405b;fill-opacity:0;" />
            <path id="_5-4" serif:id="5-4"
                d="M184.619,186.076l7.998,0l-0,54.299l14.171,0l-0,5.753l-14.171,-0l-0,22.169l-7.156,-0l0,-22.169l-41.531,-0l0,-4.069l40.689,-55.983Zm-31.85,54.299l32.692,0l0,-29.604l0.421,-17.819l-11.084,17.117l-22.029,30.306Zm51.821,-65.617l-0,5.846l-58.462,0l0,-5.846l58.462,0Zm-6.992,-89.477l-0,5.753l-32.832,0l-2.947,28.202c1.029,-0.187 2.385,-0.374 4.069,-0.561c1.684,-0.188 3.461,-0.281 5.332,-0.281c3.648,-0 7.179,0.514 10.593,1.543c3.414,1.029 6.407,2.573 8.98,4.63c2.572,2.058 4.653,4.607 6.243,7.647c1.591,3.04 2.386,6.524 2.386,10.453c-0,3.929 -0.702,7.483 -2.105,10.663c-1.403,3.181 -3.414,5.893 -6.033,8.138c-2.619,2.245 -5.823,3.999 -9.611,5.262c-3.789,1.263 -8.021,1.894 -12.698,1.894c-3.18,-0 -6.384,-0.257 -9.611,-0.772c-3.227,-0.514 -5.916,-1.426 -8.068,-2.736l1.824,-5.752c1.965,1.216 4.373,2.104 7.226,2.665c2.853,0.562 5.636,0.842 8.348,0.842c3.368,0 6.478,-0.374 9.331,-1.122c2.853,-0.748 5.331,-1.941 7.436,-3.578c2.105,-1.637 3.765,-3.695 4.981,-6.174c1.216,-2.478 1.824,-5.448 1.824,-8.909c-0,-5.799 -2.105,-10.43 -6.314,-13.89c-4.209,-3.461 -9.915,-5.192 -17.117,-5.192c-2.526,0 -4.841,0.117 -6.946,0.351c-2.104,0.234 -4.326,0.678 -6.664,1.333l4.069,-40.409l38.304,0Z"
                style="fill:#3d405b;fill-opacity:0;" />
            <path id="_6-4" serif:id="6-4"
                d="M184.619,186.076l7.998,0l-0,54.299l14.171,0l-0,5.753l-14.171,-0l-0,22.169l-7.156,-0l0,-22.169l-41.531,-0l0,-4.069l40.689,-55.983Zm-31.85,54.299l32.692,0l0,-29.604l0.421,-17.819l-11.084,17.117l-22.029,30.306Zm51.821,-65.617l-0,5.846l-58.462,0l0,-5.846l58.462,0Zm-21.865,-88.378c3.087,0 5.706,0.164 7.857,0.492c2.152,0.327 4.443,0.912 6.875,1.753l-1.543,5.613c-1.871,-0.842 -3.765,-1.427 -5.683,-1.754c-1.917,-0.328 -4.092,-0.491 -6.524,-0.491c-4.115,-0 -7.927,0.771 -11.435,2.315c-3.508,1.543 -6.548,3.812 -9.12,6.805c-2.572,2.993 -4.653,6.641 -6.243,10.944c-1.591,4.302 -2.526,9.26 -2.807,14.872c0.936,-1.403 2.152,-2.806 3.648,-4.209c1.497,-1.403 3.227,-2.642 5.192,-3.718c1.964,-1.076 4.115,-1.941 6.454,-2.596c2.338,-0.655 4.864,-0.982 7.576,-0.982c3.555,0 6.922,0.561 10.103,1.684c3.18,1.122 5.963,2.806 8.348,5.051c2.385,2.245 4.256,5.028 5.612,8.348c1.356,3.321 2.035,7.132 2.035,11.435c-0,4.209 -0.679,8.068 -2.035,11.575c-1.356,3.508 -3.227,6.525 -5.612,9.05c-2.385,2.526 -5.215,4.467 -8.489,5.823c-3.274,1.356 -6.875,2.035 -10.803,2.035c-3.648,-0 -7.179,-0.632 -10.594,-1.895c-3.414,-1.262 -6.454,-3.414 -9.12,-6.454c-2.665,-3.04 -4.793,-7.039 -6.384,-11.996c-1.59,-4.958 -2.385,-11.084 -2.385,-18.38c0,-8.045 1.029,-14.92 3.087,-20.625c2.058,-5.706 4.747,-10.383 8.068,-14.031c3.32,-3.648 7.085,-6.337 11.294,-8.068c4.21,-1.73 8.419,-2.596 12.628,-2.596Zm-28.061,52.896c-0,3.929 0.561,7.483 1.683,10.664c1.123,3.18 2.666,5.846 4.63,7.997c1.965,2.152 4.256,3.812 6.875,4.981c2.62,1.169 5.426,1.754 8.419,1.754c2.713,-0 5.285,-0.515 7.717,-1.543c2.432,-1.029 4.536,-2.503 6.314,-4.42c1.777,-1.918 3.18,-4.256 4.209,-7.016c1.029,-2.759 1.543,-5.869 1.543,-9.33c0,-3.554 -0.514,-6.665 -1.543,-9.33c-1.029,-2.666 -2.456,-4.888 -4.28,-6.665c-1.824,-1.777 -3.975,-3.11 -6.454,-3.999c-2.478,-0.888 -5.168,-1.333 -8.067,-1.333c-2.432,0 -4.701,0.375 -6.805,1.123c-2.105,0.748 -4.022,1.707 -5.753,2.876c-1.73,1.169 -3.227,2.549 -4.49,4.139c-1.262,1.59 -2.221,3.227 -2.876,4.911c-0.281,0.748 -0.538,1.567 -0.772,2.455c-0.233,0.889 -0.35,1.801 -0.35,2.736Z"
                style="fill:#3d405b;fill-opacity:0;" />
            <path id="_7-4" serif:id="7-4"
                d="M184.619,186.49l7.998,-0l-0,54.299l14.171,-0l-0,5.752l-14.171,0l-0,22.169l-7.156,-0l0,-22.169l-41.531,0l0,-4.069l40.689,-55.982Zm-31.85,54.299l32.692,-0l0,-29.605l0.421,-17.819l-11.084,17.117l-22.029,30.307Zm51.821,-65.617l-0,5.846l-58.462,-0l0,-5.846l58.462,-0Zm-3.555,-89.189l0,4.069l-38.163,79.273l-6.314,-2.806l36.62,-74.783l-43.495,-0l-0,-5.753l51.352,-0Z"
                style="fill:#3d405b;fill-opacity:0;" />
            <path id="_6-8" serif:id="6-8"
                d="M204.59,174.758l-0,5.846l-58.462,0l0,-5.846l58.462,0Zm-21.865,-88.378c3.087,0 5.706,0.164 7.857,0.492c2.152,0.327 4.443,0.912 6.875,1.753l-1.543,5.613c-1.871,-0.842 -3.765,-1.427 -5.683,-1.754c-1.917,-0.328 -4.092,-0.491 -6.524,-0.491c-4.115,-0 -7.927,0.771 -11.435,2.315c-3.508,1.543 -6.548,3.812 -9.12,6.805c-2.572,2.993 -4.653,6.641 -6.243,10.944c-1.591,4.302 -2.526,9.26 -2.807,14.872c0.936,-1.403 2.152,-2.806 3.648,-4.209c1.497,-1.403 3.227,-2.642 5.192,-3.718c1.964,-1.076 4.115,-1.941 6.454,-2.596c2.338,-0.655 4.864,-0.982 7.576,-0.982c3.555,0 6.922,0.561 10.103,1.684c3.18,1.122 5.963,2.806 8.348,5.051c2.385,2.245 4.256,5.028 5.612,8.348c1.356,3.321 2.035,7.132 2.035,11.435c-0,4.209 -0.679,8.068 -2.035,11.575c-1.356,3.508 -3.227,6.525 -5.612,9.05c-2.385,2.526 -5.215,4.467 -8.489,5.823c-3.274,1.356 -6.875,2.035 -10.803,2.035c-3.648,-0 -7.179,-0.632 -10.594,-1.895c-3.414,-1.262 -6.454,-3.414 -9.12,-6.454c-2.665,-3.04 -4.793,-7.039 -6.384,-11.996c-1.59,-4.958 -2.385,-11.084 -2.385,-18.38c0,-8.045 1.029,-14.92 3.087,-20.625c2.058,-5.706 4.747,-10.383 8.068,-14.031c3.32,-3.648 7.085,-6.337 11.294,-8.068c4.21,-1.73 8.419,-2.596 12.628,-2.596Zm-28.061,52.896c-0,3.929 0.561,7.483 1.683,10.664c1.123,3.18 2.666,5.846 4.63,7.997c1.965,2.152 4.256,3.812 6.875,4.981c2.62,1.169 5.426,1.754 8.419,1.754c2.713,-0 5.285,-0.515 7.717,-1.543c2.432,-1.029 4.536,-2.503 6.314,-4.42c1.777,-1.918 3.18,-4.256 4.209,-7.016c1.029,-2.759 1.543,-5.869 1.543,-9.33c0,-3.554 -0.514,-6.665 -1.543,-9.33c-1.029,-2.666 -2.456,-4.888 -4.28,-6.665c-1.824,-1.777 -3.975,-3.11 -6.454,-3.999c-2.478,-0.888 -5.168,-1.333 -8.067,-1.333c-2.432,0 -4.701,0.375 -6.805,1.123c-2.105,0.748 -4.022,1.707 -5.753,2.876c-1.73,1.169 -3.227,2.549 -4.49,4.139c-1.262,1.59 -2.221,3.227 -2.876,4.911c-0.281,0.748 -0.538,1.567 -0.772,2.455c-0.233,0.889 -0.35,1.801 -0.35,2.736Zm20.905,47.588c4.023,-0 7.6,0.561 10.734,1.684c3.133,1.122 5.776,2.619 7.927,4.489c2.152,1.871 3.765,4.046 4.841,6.525c1.076,2.478 1.613,5.074 1.613,7.787c0,3.928 -1.169,7.53 -3.507,10.803c-2.339,3.274 -6.595,6.034 -12.768,8.278c5.893,1.965 10.429,4.748 13.61,8.349c3.18,3.601 4.77,8.021 4.77,13.259c-0,3.648 -0.702,6.898 -2.105,9.751c-1.403,2.853 -3.344,5.238 -5.822,7.156c-2.479,1.917 -5.379,3.391 -8.699,4.419c-3.321,1.029 -6.899,1.544 -10.734,1.544c-3.929,-0 -7.553,-0.515 -10.874,-1.544c-3.32,-1.028 -6.22,-2.502 -8.699,-4.419c-2.479,-1.918 -4.419,-4.256 -5.823,-7.016c-1.403,-2.759 -2.104,-5.869 -2.104,-9.33c-0,-5.332 1.45,-9.751 4.349,-13.259c2.9,-3.508 7.437,-6.337 13.61,-8.489c-4.957,-1.964 -8.722,-4.536 -11.295,-7.716c-2.572,-3.181 -3.858,-7.016 -3.858,-11.506c0,-2.899 0.514,-5.612 1.543,-8.138c1.029,-2.525 2.596,-4.723 4.701,-6.594c2.104,-1.871 4.7,-3.344 7.787,-4.42c3.086,-1.075 6.688,-1.613 10.803,-1.613Zm-0.561,43.074c-6.08,1.029 -10.991,3.087 -14.732,6.174c-3.742,3.086 -5.612,7.155 -5.612,12.206c-0,2.245 0.444,4.397 1.333,6.455c0.888,2.057 2.198,3.858 3.928,5.401c1.731,1.544 3.882,2.76 6.454,3.648c2.573,0.889 5.589,1.333 9.05,1.333c3.274,0 6.197,-0.444 8.769,-1.333c2.573,-0.888 4.747,-2.104 6.525,-3.648c1.777,-1.543 3.133,-3.344 4.068,-5.401c0.936,-2.058 1.404,-4.21 1.404,-6.455c-0,-4.77 -1.918,-8.769 -5.753,-11.996c-3.835,-3.227 -8.98,-5.355 -15.434,-6.384Zm-17.117,-22.449c-0,2.245 0.444,4.279 1.333,6.103c0.888,1.824 2.104,3.438 3.648,4.841c1.543,1.403 3.344,2.572 5.401,3.508c2.058,0.935 4.256,1.683 6.595,2.245c2.432,-0.562 4.77,-1.333 7.015,-2.316c2.245,-0.982 4.209,-2.174 5.893,-3.577c1.684,-1.403 3.04,-3.017 4.069,-4.841c1.029,-1.824 1.543,-3.812 1.543,-5.963c0,-2.338 -0.491,-4.443 -1.473,-6.314c-0.982,-1.871 -2.292,-3.461 -3.928,-4.77c-1.637,-1.31 -3.531,-2.292 -5.683,-2.947c-2.151,-0.654 -4.396,-0.982 -6.735,-0.982c-5.799,0 -10.195,1.45 -13.188,4.35c-2.994,2.899 -4.49,6.454 -4.49,10.663Z"
                style="fill:#3d405b;fill-opacity:0;" />
            <path id="_7-8" serif:id="7-8"
                d="M204.59,174.758l-0,5.846l-58.462,0l0,-5.846l58.462,0Zm-29.021,12.106c4.023,-0 7.6,0.561 10.734,1.684c3.133,1.122 5.776,2.619 7.927,4.489c2.152,1.871 3.765,4.046 4.841,6.525c1.076,2.478 1.613,5.074 1.613,7.787c0,3.928 -1.169,7.53 -3.507,10.803c-2.339,3.274 -6.595,6.034 -12.768,8.278c5.893,1.965 10.429,4.748 13.61,8.349c3.18,3.601 4.77,8.021 4.77,13.259c-0,3.648 -0.702,6.898 -2.105,9.751c-1.403,2.853 -3.344,5.238 -5.822,7.156c-2.479,1.917 -5.379,3.391 -8.699,4.419c-3.321,1.029 -6.899,1.544 -10.734,1.544c-3.929,-0 -7.553,-0.515 -10.874,-1.544c-3.32,-1.028 -6.22,-2.502 -8.699,-4.419c-2.479,-1.918 -4.419,-4.256 -5.823,-7.016c-1.403,-2.759 -2.104,-5.869 -2.104,-9.33c-0,-5.332 1.45,-9.751 4.349,-13.259c2.9,-3.508 7.437,-6.337 13.61,-8.489c-4.957,-1.964 -8.722,-4.536 -11.295,-7.716c-2.572,-3.181 -3.858,-7.016 -3.858,-11.506c0,-2.899 0.514,-5.612 1.543,-8.138c1.029,-2.525 2.596,-4.723 4.701,-6.594c2.104,-1.871 4.7,-3.344 7.787,-4.42c3.086,-1.075 6.688,-1.613 10.803,-1.613Zm-17.678,20.625c-0,2.245 0.444,4.279 1.333,6.103c0.888,1.824 2.104,3.438 3.648,4.841c1.543,1.403 3.344,2.572 5.401,3.508c2.058,0.935 4.256,1.683 6.595,2.245c2.432,-0.562 4.77,-1.333 7.015,-2.316c2.245,-0.982 4.209,-2.174 5.893,-3.577c1.684,-1.403 3.04,-3.017 4.069,-4.841c1.029,-1.824 1.543,-3.812 1.543,-5.963c0,-2.338 -0.491,-4.443 -1.473,-6.314c-0.982,-1.871 -2.292,-3.461 -3.928,-4.77c-1.637,-1.31 -3.531,-2.292 -5.683,-2.947c-2.151,-0.654 -4.396,-0.982 -6.735,-0.982c-5.799,0 -10.195,1.45 -13.188,4.35c-2.994,2.899 -4.49,6.454 -4.49,10.663Zm17.117,22.449c-6.08,1.029 -10.991,3.087 -14.732,6.174c-3.742,3.086 -5.612,7.155 -5.612,12.206c-0,2.245 0.444,4.397 1.333,6.455c0.888,2.057 2.198,3.858 3.928,5.401c1.731,1.544 3.882,2.76 6.454,3.648c2.573,0.889 5.589,1.333 9.05,1.333c3.274,0 6.197,-0.444 8.769,-1.333c2.573,-0.888 4.747,-2.104 6.525,-3.648c1.777,-1.543 3.133,-3.344 4.068,-5.401c0.936,-2.058 1.404,-4.21 1.404,-6.455c-0,-4.77 -1.918,-8.769 -5.753,-11.996c-3.835,-3.227 -8.98,-5.355 -15.434,-6.384Zm26.027,-143.207l0,4.069l-38.163,79.274l-6.314,-2.806l36.62,-74.784l-43.495,-0l-0,-5.753l51.352,0Z"
                style="fill:#3d405b;fill-opacity:0;" />
            <path id="_9-8" serif:id="9-8"
                d="M204.59,174.758l-0,5.846l-58.462,0l0,-5.846l58.462,0Zm-29.021,12.106c4.023,-0 7.6,0.561 10.734,1.684c3.133,1.122 5.776,2.619 7.927,4.489c2.152,1.871 3.765,4.046 4.841,6.525c1.076,2.478 1.613,5.074 1.613,7.787c0,3.928 -1.169,7.53 -3.507,10.803c-2.339,3.274 -6.595,6.034 -12.768,8.278c5.893,1.965 10.429,4.748 13.61,8.349c3.18,3.601 4.77,8.021 4.77,13.259c-0,3.648 -0.702,6.898 -2.105,9.751c-1.403,2.853 -3.344,5.238 -5.822,7.156c-2.479,1.917 -5.379,3.391 -8.699,4.419c-3.321,1.029 -6.899,1.544 -10.734,1.544c-3.929,-0 -7.553,-0.515 -10.874,-1.544c-3.32,-1.028 -6.22,-2.502 -8.699,-4.419c-2.479,-1.918 -4.419,-4.256 -5.823,-7.016c-1.403,-2.759 -2.104,-5.869 -2.104,-9.33c-0,-5.332 1.45,-9.751 4.349,-13.259c2.9,-3.508 7.437,-6.337 13.61,-8.489c-4.957,-1.964 -8.722,-4.536 -11.295,-7.716c-2.572,-3.181 -3.858,-7.016 -3.858,-11.506c0,-2.899 0.514,-5.612 1.543,-8.138c1.029,-2.525 2.596,-4.723 4.701,-6.594c2.104,-1.871 4.7,-3.344 7.787,-4.42c3.086,-1.075 6.688,-1.613 10.803,-1.613Zm-17.678,20.625c-0,2.245 0.444,4.279 1.333,6.103c0.888,1.824 2.104,3.438 3.648,4.841c1.543,1.403 3.344,2.572 5.401,3.508c2.058,0.935 4.256,1.683 6.595,2.245c2.432,-0.562 4.77,-1.333 7.015,-2.316c2.245,-0.982 4.209,-2.174 5.893,-3.577c1.684,-1.403 3.04,-3.017 4.069,-4.841c1.029,-1.824 1.543,-3.812 1.543,-5.963c0,-2.338 -0.491,-4.443 -1.473,-6.314c-0.982,-1.871 -2.292,-3.461 -3.928,-4.77c-1.637,-1.31 -3.531,-2.292 -5.683,-2.947c-2.151,-0.654 -4.396,-0.982 -6.735,-0.982c-5.799,0 -10.195,1.45 -13.188,4.35c-2.994,2.899 -4.49,6.454 -4.49,10.663Zm17.117,22.449c-6.08,1.029 -10.991,3.087 -14.732,6.174c-3.742,3.086 -5.612,7.155 -5.612,12.206c-0,2.245 0.444,4.397 1.333,6.455c0.888,2.057 2.198,3.858 3.928,5.401c1.731,1.544 3.882,2.76 6.454,3.648c2.573,0.889 5.589,1.333 9.05,1.333c3.274,0 6.197,-0.444 8.769,-1.333c2.573,-0.888 4.747,-2.104 6.525,-3.648c1.777,-1.543 3.133,-3.344 4.068,-5.401c0.936,-2.058 1.404,-4.21 1.404,-6.455c-0,-4.77 -1.918,-8.769 -5.753,-11.996c-3.835,-3.227 -8.98,-5.355 -15.434,-6.384Zm-6.103,-62.074c-3.368,-0 -6.22,-0.164 -8.559,-0.491c-2.338,-0.328 -4.583,-0.959 -6.735,-1.894l1.544,-5.613c1.683,0.749 3.765,1.31 6.243,1.684c2.479,0.374 4.888,0.561 7.226,0.561c8.419,0 15.036,-2.806 19.854,-8.418c4.817,-5.612 7.459,-14.171 7.927,-25.676c-1.871,2.993 -4.724,5.565 -8.559,7.717c-3.835,2.151 -8.512,3.227 -14.03,3.227c-3.555,-0 -6.922,-0.608 -10.103,-1.824c-3.18,-1.216 -5.963,-2.97 -8.348,-5.262c-2.385,-2.292 -4.279,-5.098 -5.682,-8.418c-1.403,-3.321 -2.105,-7.133 -2.105,-11.435c0,-4.584 0.725,-8.629 2.175,-12.137c1.45,-3.508 3.437,-6.454 5.963,-8.839c2.525,-2.386 5.449,-4.186 8.769,-5.402c3.321,-1.216 6.852,-1.824 10.593,-1.824c3.461,-0 6.875,0.701 10.243,2.104c3.367,1.404 6.36,3.648 8.979,6.735c2.619,3.087 4.747,7.062 6.384,11.926c1.637,4.864 2.456,10.804 2.456,17.819c-0,8.325 -0.865,15.387 -2.596,21.187c-1.73,5.799 -4.116,10.499 -7.156,14.101c-3.04,3.601 -6.664,6.197 -10.873,7.787c-4.21,1.59 -8.746,2.385 -13.61,2.385Zm27.079,-51.072c0,-3.18 -0.468,-6.407 -1.403,-9.681c-0.935,-3.274 -2.315,-6.22 -4.139,-8.839c-1.824,-2.62 -4.046,-4.748 -6.665,-6.384c-2.619,-1.637 -5.612,-2.456 -8.979,-2.456c-2.713,0 -5.285,0.515 -7.717,1.544c-2.432,1.028 -4.56,2.502 -6.384,4.419c-1.824,1.918 -3.274,4.28 -4.35,7.086c-1.075,2.806 -1.613,5.939 -1.613,9.4c-0,3.555 0.514,6.642 1.543,9.261c1.029,2.619 2.456,4.84 4.28,6.664c1.824,1.824 3.975,3.18 6.454,4.069c2.478,0.889 5.168,1.333 8.067,1.333c5.051,0 9.354,-1.216 12.909,-3.648c3.554,-2.432 6.033,-5.332 7.436,-8.699c0.374,-1.403 0.561,-2.572 0.561,-3.508l0,-0.561Z"
                style="fill:#3d405b;fill-opacity:0;" />
            <path id="_11-8" serif:id="11-8"
                d="M210.436,174.945l-0,5.847l-58.462,-0l0,-5.847l58.462,0Zm-29.02,12.106c4.022,-0 7.599,0.561 10.733,1.684c3.134,1.122 5.776,2.619 7.927,4.489c2.152,1.871 3.765,4.046 4.841,6.525c1.076,2.478 1.614,5.074 1.614,7.787c-0,3.928 -1.17,7.53 -3.508,10.803c-2.339,3.274 -6.595,6.034 -12.768,8.279c5.893,1.964 10.429,4.747 13.61,8.348c3.18,3.601 4.77,8.021 4.77,13.259c0,3.648 -0.701,6.898 -2.104,9.751c-1.404,2.853 -3.344,5.238 -5.823,7.156c-2.479,1.917 -5.379,3.391 -8.699,4.42c-3.321,1.028 -6.899,1.543 -10.734,1.543c-3.928,-0 -7.553,-0.515 -10.874,-1.543c-3.32,-1.029 -6.22,-2.503 -8.699,-4.42c-2.478,-1.918 -4.419,-4.256 -5.822,-7.015c-1.403,-2.76 -2.105,-5.87 -2.105,-9.331c-0,-5.332 1.45,-9.751 4.35,-13.259c2.899,-3.508 7.436,-6.337 13.609,-8.489c-4.957,-1.964 -8.722,-4.536 -11.294,-7.716c-2.573,-3.181 -3.859,-7.016 -3.859,-11.506c0,-2.899 0.515,-5.612 1.544,-8.137c1.028,-2.526 2.595,-4.724 4.7,-6.595c2.104,-1.871 4.7,-3.344 7.787,-4.42c3.087,-1.075 6.688,-1.613 10.804,-1.613Zm-17.679,20.625c-0,2.245 0.444,4.279 1.333,6.103c0.888,1.824 2.104,3.438 3.648,4.841c1.543,1.403 3.344,2.572 5.402,3.508c2.057,0.935 4.256,1.683 6.594,2.245c2.432,-0.562 4.77,-1.333 7.015,-2.315c2.245,-0.983 4.21,-2.175 5.893,-3.578c1.684,-1.403 3.04,-3.017 4.069,-4.841c1.029,-1.824 1.544,-3.812 1.544,-5.963c-0,-2.338 -0.492,-4.443 -1.474,-6.314c-0.982,-1.871 -2.291,-3.461 -3.928,-4.77c-1.637,-1.31 -3.531,-2.292 -5.683,-2.947c-2.151,-0.654 -4.396,-0.982 -6.734,-0.982c-5.8,0 -10.196,1.45 -13.189,4.35c-2.994,2.899 -4.49,6.454 -4.49,10.663Zm17.117,22.449c-6.08,1.029 -10.99,3.087 -14.732,6.174c-3.741,3.087 -5.612,7.155 -5.612,12.206c-0,2.245 0.444,4.397 1.333,6.455c0.888,2.057 2.198,3.858 3.928,5.401c1.731,1.544 3.882,2.76 6.454,3.648c2.573,0.889 5.589,1.333 9.05,1.333c3.274,0 6.197,-0.444 8.769,-1.333c2.573,-0.888 4.747,-2.104 6.525,-3.648c1.777,-1.543 3.133,-3.344 4.069,-5.401c0.935,-2.058 1.403,-4.21 1.403,-6.455c-0,-4.77 -1.918,-8.769 -5.753,-11.996c-3.835,-3.227 -8.98,-5.355 -15.434,-6.384Zm-21.911,-142.645l5.332,-0l-0,82.22l-6.875,-0l-0,-74.363l-17.118,7.436l-1.543,-5.893l20.204,-9.4Zm47.704,-0l5.332,-0l0,82.22l-6.875,-0l0,-74.363l-17.117,7.436l-1.544,-5.893l20.204,-9.4Z"
                style="fill:#3d405b;fill-opacity:0;" />
            <path id="_12-8" serif:id="12-8"
                d="M207.513,171.835l-0,5.846l-58.462,0l0,-5.846l58.462,0Zm-29.021,12.106c4.023,-0 7.6,0.561 10.734,1.683c3.133,1.123 5.776,2.62 7.927,4.49c2.152,1.871 3.765,4.046 4.841,6.525c1.076,2.478 1.613,5.074 1.613,7.787c0,3.928 -1.169,7.529 -3.507,10.803c-2.339,3.274 -6.595,6.034 -12.768,8.278c5.893,1.965 10.429,4.747 13.61,8.349c3.18,3.601 4.77,8.021 4.77,13.259c0,3.648 -0.701,6.898 -2.105,9.751c-1.403,2.853 -3.344,5.238 -5.822,7.156c-2.479,1.917 -5.379,3.391 -8.699,4.419c-3.321,1.029 -6.899,1.544 -10.734,1.544c-3.928,-0 -7.553,-0.515 -10.874,-1.544c-3.32,-1.028 -6.22,-2.502 -8.699,-4.419c-2.478,-1.918 -4.419,-4.256 -5.822,-7.016c-1.404,-2.759 -2.105,-5.869 -2.105,-9.33c-0,-5.332 1.45,-9.751 4.349,-13.259c2.9,-3.508 7.437,-6.337 13.61,-8.489c-4.957,-1.964 -8.722,-4.536 -11.294,-7.717c-2.573,-3.18 -3.859,-7.015 -3.859,-11.505c0,-2.899 0.515,-5.612 1.543,-8.138c1.029,-2.525 2.596,-4.723 4.701,-6.594c2.104,-1.871 4.7,-3.344 7.787,-4.42c3.087,-1.075 6.688,-1.613 10.803,-1.613Zm-0.561,43.074c-6.08,1.029 -10.991,3.087 -14.732,6.174c-3.742,3.086 -5.612,7.155 -5.612,12.206c-0,2.245 0.444,4.397 1.333,6.454c0.888,2.058 2.198,3.859 3.928,5.402c1.731,1.544 3.882,2.76 6.454,3.648c2.573,0.889 5.589,1.333 9.05,1.333c3.274,0 6.197,-0.444 8.769,-1.333c2.573,-0.888 4.747,-2.104 6.525,-3.648c1.777,-1.543 3.133,-3.344 4.069,-5.402c0.935,-2.057 1.403,-4.209 1.403,-6.454c-0,-4.77 -1.918,-8.769 -5.753,-11.996c-3.835,-3.227 -8.98,-5.355 -15.434,-6.384Zm-17.117,-22.449c-0,2.245 0.444,4.279 1.333,6.103c0.888,1.824 2.104,3.438 3.648,4.841c1.543,1.403 3.344,2.572 5.401,3.508c2.058,0.935 4.256,1.683 6.595,2.245c2.432,-0.562 4.77,-1.333 7.015,-2.316c2.245,-0.982 4.209,-2.174 5.893,-3.577c1.684,-1.403 3.04,-3.017 4.069,-4.841c1.029,-1.824 1.543,-3.812 1.543,-5.963c0,-2.339 -0.491,-4.443 -1.473,-6.314c-0.982,-1.871 -2.291,-3.461 -3.928,-4.77c-1.637,-1.31 -3.531,-2.292 -5.683,-2.947c-2.151,-0.655 -4.396,-0.982 -6.735,-0.982c-5.799,0 -10.195,1.45 -13.188,4.35c-2.994,2.899 -4.49,6.454 -4.49,10.663Zm-13.867,-120.629l5.331,-0l0,82.22l-6.875,-0l0,-74.363l-17.117,7.436l-1.544,-5.893l20.205,-9.4Zm49.388,4.77c-2.993,0 -6.08,0.468 -9.26,1.403c-3.181,0.936 -6.408,2.853 -9.682,5.753l-3.367,-4.911c3.929,-3.274 7.787,-5.402 11.575,-6.384c3.789,-0.982 7.366,-1.473 10.734,-1.473c4.022,-0 7.553,0.585 10.593,1.754c3.04,1.169 5.566,2.783 7.577,4.84c2.011,2.058 3.531,4.537 4.56,7.437c1.029,2.899 1.543,6.033 1.543,9.4c0,3.181 -0.514,6.361 -1.543,9.541c-1.029,3.18 -2.596,6.501 -4.701,9.962c-2.104,3.461 -4.793,7.109 -8.067,10.944c-3.274,3.835 -7.203,7.951 -11.786,12.347l-11.505,11.084l40.969,0l0,5.753l-49.668,-0l-1.123,-4.63l11.084,-10.804c5.051,-4.957 9.424,-9.447 13.119,-13.469c3.695,-4.023 6.712,-7.788 9.05,-11.295c2.338,-3.508 4.069,-6.805 5.191,-9.892c1.123,-3.087 1.684,-6.173 1.684,-9.26c0,-5.612 -1.426,-10.032 -4.279,-13.259c-2.853,-3.227 -7.086,-4.841 -12.698,-4.841Z"
                style="fill:#3d405b;fill-opacity:0;" />
        </g>
        <g id="division-indicators">
            <g transform="matrix(131.587,0,0,131.587,244.642,214.49)"></g><text x="185.559px" y="214.49px"
                style="font-family:'MuktaMahee-Regular', 'Mukta Mahee', sans-serif;font-size:131.587px;fill:#3d405b;">2</text>
            <path id="division-sign"
                d="M186.695,173.457l-0,4.166c-0,1.15 -0.934,2.084 -2.083,2.084l-70.834,-0c-1.15,-0 -2.083,-0.934 -2.083,-2.084l-0,-4.166c-0,-1.15 0.933,-2.084 2.083,-2.084l70.834,0c1.149,0 2.083,0.934 2.083,2.084Zm-37.5,14.608c4.214,0 7.636,3.422 7.636,7.636c-0,4.215 -3.422,7.636 -7.636,7.636c-4.215,0 -7.636,-3.421 -7.636,-7.636c-0,-4.214 3.421,-7.636 7.636,-7.636Zm-0,-40.322c4.214,-0 7.636,3.421 7.636,7.636c-0,4.214 -3.422,7.636 -7.636,7.636c-4.215,-0 -7.636,-3.422 -7.636,-7.636c-0,-4.215 3.421,-7.636 7.636,-7.636Z"
                style="fill:#3d405b;" />
        </g>
    </g>
</svg>