<?xml version="1.0" encoding="UTF-8" standalone="no"?>
<!DOCTYPE svg PUBLIC "-//W3C//DTD SVG 1.1//EN" "http://www.w3.org/Graphics/SVG/1.1/DTD/svg11.dtd"><svg width="100%"
    height="100%" viewBox="0 0 352 724" version="1.1" xmlns="http://www.w3.org/2000/svg"
    xmlns:xlink="http://www.w3.org/1999/xlink" xml:space="preserve" xmlns:serif="http://www.serif.com/"
    style="fill-rule:evenodd;clip-rule:evenodd;stroke-linecap:round;stroke-linejoin:round;stroke-miterlimit:2;">
    <rect id="port-circle-settings" x="0.033" y="0.406" width="351.007" height="723.058" style="fill:#f2cc8f;" />
    <g id="port-circle-settings1" serif:id="port-circle-settings">
        <circle id="top-bg" cx="175.359" cy="177.095" r="150" style="fill:#e07a5f;" />
        <path id="bottom-curve"
            d="M177.726,327.619l-2.367,0c-82.189,0 -148.817,67.157 -148.817,150c0,82.787 66.683,150 148.817,150c82.19,0 148.817,-67.157 148.817,-150"
            style="fill:none;stroke:#3d405b;stroke-width:8px;" />
        <g id="settings-display">
            <g id="division-select">
                <circle id="division-select-bg" cx="229.951" cy="523.72" r="46.125" style="fill:#3d405b;" />
                <path id="division-select-symbol"
                    d="M192.343,516.148c1.024,0 1.98,0.152 2.868,0.456c0.888,0.304 1.652,0.756 2.292,1.356c0.64,0.6 1.144,1.352 1.512,2.256c0.368,0.904 0.552,1.956 0.552,3.156c-0,1.456 -0.216,2.688 -0.648,3.696c-0.432,1.008 -1.016,1.824 -1.752,2.448c-0.736,0.624 -1.592,1.072 -2.568,1.344c-0.976,0.272 -2.008,0.408 -3.096,0.408l-3.84,0l-0,-15.12l4.68,0Zm-2.952,13.704l1.896,0c0.8,0 1.584,-0.092 2.352,-0.276c0.768,-0.184 1.456,-0.52 2.064,-1.008c0.608,-0.488 1.096,-1.152 1.464,-1.992c0.368,-0.84 0.552,-1.908 0.552,-3.204c-0,-0.928 -0.14,-1.752 -0.42,-2.472c-0.28,-0.72 -0.672,-1.328 -1.176,-1.824c-0.504,-0.496 -1.116,-0.872 -1.836,-1.128c-0.72,-0.256 -1.512,-0.384 -2.376,-0.384l-2.52,0l-0,12.288Zm14.928,-13.704l-0,15.12l-1.728,0l-0,-15.12l1.728,0Zm3.816,0l3.264,8.856c0.256,0.672 0.52,1.372 0.792,2.1c0.272,0.728 0.52,1.428 0.744,2.1l0.048,0c0.24,-0.72 0.488,-1.432 0.744,-2.136c0.256,-0.704 0.512,-1.392 0.768,-2.064l3.312,-8.856l1.824,0l-5.88,15.12l-1.68,0l-5.784,-15.12l1.848,0Zm15.192,0l-0,15.12l-1.728,0l-0,-15.12l1.728,0Zm7.92,-0.192c0.72,0 1.412,0.064 2.076,0.192c0.664,0.128 1.324,0.344 1.98,0.648l-0.432,1.416c-0.688,-0.32 -1.308,-0.544 -1.86,-0.672c-0.552,-0.128 -1.116,-0.192 -1.692,-0.192c-0.976,0 -1.76,0.22 -2.352,0.66c-0.592,0.44 -0.888,1.06 -0.888,1.86c-0,0.704 0.224,1.26 0.672,1.668c0.448,0.408 1.144,0.764 2.088,1.068l1.608,0.528c1.232,0.416 2.132,0.98 2.7,1.692c0.568,0.712 0.852,1.524 0.852,2.436c-0,0.656 -0.124,1.244 -0.372,1.764c-0.248,0.52 -0.596,0.96 -1.044,1.32c-0.448,0.36 -0.984,0.64 -1.608,0.84c-0.624,0.2 -1.312,0.3 -2.064,0.3c-0.768,0 -1.532,-0.072 -2.292,-0.216c-0.76,-0.144 -1.524,-0.392 -2.292,-0.744l0.456,-1.416c0.672,0.336 1.332,0.58 1.98,0.732c0.648,0.152 1.332,0.228 2.052,0.228c0.976,0 1.788,-0.216 2.436,-0.648c0.648,-0.432 0.972,-1.096 0.972,-1.992c-0,-0.32 -0.044,-0.62 -0.132,-0.9c-0.088,-0.28 -0.244,-0.54 -0.468,-0.78c-0.224,-0.24 -0.528,-0.468 -0.912,-0.684c-0.384,-0.216 -0.872,-0.42 -1.464,-0.612l-1.56,-0.504c-1.008,-0.32 -1.824,-0.788 -2.448,-1.404c-0.624,-0.616 -0.936,-1.436 -0.936,-2.46c-0,-1.264 0.424,-2.268 1.272,-3.012c0.848,-0.744 2.072,-1.116 3.672,-1.116Zm9.48,0.192l-0,15.12l-1.728,0l-0,-15.12l1.728,0Zm9.936,-0.192c0.96,0 1.86,0.16 2.7,0.48c0.84,0.32 1.564,0.804 2.172,1.452c0.608,0.648 1.088,1.456 1.44,2.424c0.352,0.968 0.528,2.1 0.528,3.396c-0,1.264 -0.18,2.38 -0.54,3.348c-0.36,0.968 -0.852,1.78 -1.476,2.436c-0.624,0.656 -1.36,1.152 -2.208,1.488c-0.848,0.336 -1.752,0.504 -2.712,0.504c-0.96,0 -1.86,-0.164 -2.7,-0.492c-0.84,-0.328 -1.564,-0.816 -2.172,-1.464c-0.608,-0.648 -1.088,-1.456 -1.44,-2.424c-0.352,-0.968 -0.528,-2.1 -0.528,-3.396c-0,-1.264 0.18,-2.376 0.54,-3.336c0.36,-0.96 0.852,-1.768 1.476,-2.424c0.624,-0.656 1.356,-1.152 2.196,-1.488c0.84,-0.336 1.748,-0.504 2.724,-0.504Zm-5.088,7.752c-0,1.088 0.136,2.032 0.408,2.832c0.272,0.8 0.64,1.464 1.104,1.992c0.464,0.528 1.004,0.92 1.62,1.176c0.616,0.256 1.268,0.384 1.956,0.384c0.688,0 1.332,-0.128 1.932,-0.384c0.6,-0.256 1.128,-0.648 1.584,-1.176c0.456,-0.528 0.816,-1.192 1.08,-1.992c0.264,-0.8 0.396,-1.744 0.396,-2.832c-0,-1.104 -0.136,-2.06 -0.408,-2.868c-0.272,-0.808 -0.64,-1.468 -1.104,-1.98c-0.464,-0.512 -1.004,-0.892 -1.62,-1.14c-0.616,-0.248 -1.268,-0.372 -1.956,-0.372c-0.688,0 -1.332,0.128 -1.932,0.384c-0.6,0.256 -1.128,0.648 -1.584,1.176c-0.456,0.528 -0.816,1.192 -1.08,1.992c-0.264,0.8 -0.396,1.736 -0.396,2.808Zm14.952,-7.56l1.56,0l6.744,9.768c0.304,0.448 0.604,0.896 0.9,1.344c0.296,0.448 0.58,0.896 0.852,1.344l0.048,0c-0.032,-0.592 -0.052,-1.18 -0.06,-1.764c-0.008,-0.584 -0.012,-1.172 -0.012,-1.764l-0,-8.928l1.68,0l-0,15.12l-1.56,0l-6.6,-9.48c-0.336,-0.48 -0.668,-0.996 -0.996,-1.548c-0.328,-0.552 -0.636,-1.1 -0.924,-1.644l-0.048,0c0.032,0.72 0.056,1.428 0.072,2.124c0.016,0.696 0.024,1.404 0.024,2.124l-0,8.424l-1.68,0l-0,-15.12Z"
                    style="fill:#f2cc8f;" />
            </g>
            <g id="beat-select">
                <circle id="beat-select-bg" cx="121.214" cy="523.72" r="46.125" style="fill:#3d405b;" />
                <path id="beat-select-symbol"
                    d="M102.23,516.16c1.504,0 2.676,0.324 3.516,0.972c0.84,0.648 1.26,1.596 1.26,2.844c-0,0.928 -0.26,1.652 -0.78,2.172c-0.52,0.52 -1.172,0.884 -1.956,1.092c0.448,0.08 0.864,0.22 1.248,0.42c0.384,0.2 0.72,0.46 1.008,0.78c0.288,0.32 0.516,0.7 0.684,1.14c0.168,0.44 0.252,0.932 0.252,1.476c-0,0.624 -0.132,1.196 -0.396,1.716c-0.264,0.52 -0.636,0.964 -1.116,1.332c-0.48,0.368 -1.056,0.656 -1.728,0.864c-0.672,0.208 -1.408,0.312 -2.208,0.312l-3.84,0l-0,-15.12l4.056,0Zm-2.328,6.48l1.824,0c0.448,0 0.884,-0.04 1.308,-0.12c0.424,-0.08 0.8,-0.216 1.128,-0.408c0.328,-0.192 0.588,-0.452 0.78,-0.78c0.192,-0.328 0.288,-0.74 0.288,-1.236c-0,-0.896 -0.308,-1.544 -0.924,-1.944c-0.616,-0.4 -1.42,-0.6 -2.412,-0.6l-1.992,0l-0,5.088Zm-0,7.248l1.872,0c0.528,0 1.024,-0.052 1.488,-0.156c0.464,-0.104 0.872,-0.276 1.224,-0.516c0.352,-0.24 0.632,-0.556 0.84,-0.948c0.208,-0.392 0.312,-0.868 0.312,-1.428c-0,-0.544 -0.112,-0.996 -0.336,-1.356c-0.224,-0.36 -0.524,-0.648 -0.9,-0.864c-0.376,-0.216 -0.808,-0.372 -1.296,-0.468c-0.488,-0.096 -0.988,-0.144 -1.5,-0.144l-1.704,0l-0,5.88Zm10.68,-13.728l8.88,0l-0,1.416l-7.152,0l-0,5.184l6.528,0l-0,1.416l-6.528,0l-0,5.688l7.224,0l-0,1.416l-8.952,0l-0,-15.12Zm16.176,0l1.608,0l5.856,15.12l-1.824,0l-1.656,-4.32l-6.48,0l-1.656,4.32l-1.8,0l5.952,-15.12Zm-2.016,9.408l5.472,0l-1.2,-3.24c-0.208,-0.56 -0.436,-1.196 -0.684,-1.908c-0.248,-0.712 -0.508,-1.492 -0.78,-2.34l-0.048,0c-0.128,0.416 -0.256,0.808 -0.384,1.176c-0.128,0.368 -0.252,0.72 -0.372,1.056c-0.12,0.336 -0.24,0.668 -0.36,0.996c-0.12,0.328 -0.252,0.668 -0.396,1.02l-1.248,3.24Zm19.512,-9.408l-0,1.44l-4.968,0l-0,13.68l-1.728,0l-0,-13.68l-4.872,0l-0,-1.44l11.568,0Z"
                    style="fill:#f2cc8f;" />
            </g>
            <g id="bar-select">
                <circle id="bar-select-bg" cx="175.537" cy="405.731" r="46.125" style="fill:#3d405b;" />
                <path id="bar-select-symbol"
                    d="M161.389,398.171c1.504,0 2.676,0.324 3.516,0.972c0.84,0.648 1.26,1.596 1.26,2.844c-0,0.928 -0.26,1.652 -0.78,2.172c-0.52,0.52 -1.172,0.884 -1.956,1.092c0.448,0.08 0.864,0.22 1.248,0.42c0.384,0.2 0.72,0.46 1.008,0.78c0.288,0.32 0.516,0.7 0.684,1.14c0.168,0.44 0.252,0.932 0.252,1.476c-0,0.624 -0.132,1.196 -0.396,1.716c-0.264,0.52 -0.636,0.964 -1.116,1.332c-0.48,0.368 -1.056,0.656 -1.728,0.864c-0.672,0.208 -1.408,0.312 -2.208,0.312l-3.84,0l-0,-15.12l4.056,0Zm-2.328,6.48l1.824,0c0.448,0 0.884,-0.04 1.308,-0.12c0.424,-0.08 0.8,-0.216 1.128,-0.408c0.328,-0.192 0.588,-0.452 0.78,-0.78c0.192,-0.328 0.288,-0.74 0.288,-1.236c-0,-0.896 -0.308,-1.544 -0.924,-1.944c-0.616,-0.4 -1.42,-0.6 -2.412,-0.6l-1.992,0l-0,5.088Zm-0,7.248l1.872,0c0.528,0 1.024,-0.052 1.488,-0.156c0.464,-0.104 0.872,-0.276 1.224,-0.516c0.352,-0.24 0.632,-0.556 0.84,-0.948c0.208,-0.392 0.312,-0.868 0.312,-1.428c-0,-0.544 -0.112,-0.996 -0.336,-1.356c-0.224,-0.36 -0.524,-0.648 -0.9,-0.864c-0.376,-0.216 -0.808,-0.372 -1.296,-0.468c-0.488,-0.096 -0.988,-0.144 -1.5,-0.144l-1.704,0l-0,5.88Zm14.64,-13.728l1.608,0l5.856,15.12l-1.824,0l-1.656,-4.32l-6.48,0l-1.656,4.32l-1.8,0l5.952,-15.12Zm-2.016,9.408l5.472,0l-1.2,-3.24c-0.208,-0.56 -0.436,-1.196 -0.684,-1.908c-0.248,-0.712 -0.508,-1.492 -0.78,-2.34l-0.048,0c-0.128,0.416 -0.256,0.808 -0.384,1.176c-0.128,0.368 -0.252,0.72 -0.372,1.056c-0.12,0.336 -0.24,0.668 -0.36,0.996c-0.12,0.328 -0.252,0.668 -0.396,1.02l-1.248,3.24Zm11.688,-9.408l4.656,0c0.784,0 1.476,0.108 2.076,0.324c0.6,0.216 1.1,0.516 1.5,0.9c0.4,0.384 0.704,0.844 0.912,1.38c0.208,0.536 0.312,1.124 0.312,1.764c-0,0.576 -0.088,1.1 -0.264,1.572c-0.176,0.472 -0.412,0.884 -0.708,1.236c-0.296,0.352 -0.636,0.648 -1.02,0.888c-0.384,0.24 -0.784,0.432 -1.2,0.576l4.104,6.48l-1.968,0l-3.744,-6.168l-3.048,0l-0,6.168l-1.608,0l-0,-15.12Zm1.608,7.56l2.304,0c0.528,0 1.02,-0.06 1.476,-0.18c0.456,-0.12 0.852,-0.308 1.188,-0.564c0.336,-0.256 0.6,-0.58 0.792,-0.972c0.192,-0.392 0.288,-0.86 0.288,-1.404c-0,-1.056 -0.3,-1.828 -0.9,-2.316c-0.6,-0.488 -1.484,-0.732 -2.652,-0.732l-2.496,0l-0,6.168Z"
                    style="fill:#f2cc8f;" />
            </g>
        </g>
        <g id="play-controls">
            <g id="reset">
                <circle id="reset-bg" cx="240.537" cy="665.406" r="24" style="fill:#3d405b;" />
                <path id="reset-symbol"
                    d="M232.91,650.775c2.353,-1.227 4.969,-1.869 7.627,-1.869c9.106,0 16.5,7.394 16.5,16.5c-0,9.107 -7.394,16.5 -16.5,16.5c-9.113,0 -16.5,-7.387 -16.5,-16.5c-0,-0.828 0.672,-1.5 1.5,-1.5c0.827,0 1.5,0.672 1.5,1.5c-0,7.456 6.044,13.5 13.5,13.5c7.45,0 13.5,-6.049 13.5,-13.5c-0,-7.451 -6.05,-13.5 -13.5,-13.5c-2.142,0 -4.251,0.51 -6.153,1.484l1.025,1.819c0.101,0.18 0.096,0.401 -0.014,0.575c-0.11,0.175 -0.307,0.275 -0.513,0.262l-6.576,-0.441c-0.189,-0.013 -0.359,-0.12 -0.452,-0.285c-0.093,-0.165 -0.097,-0.366 -0.01,-0.534l3.028,-5.854c0.095,-0.184 0.283,-0.3 0.489,-0.304c0.206,-0.004 0.398,0.106 0.5,0.286l1.049,1.861Z"
                    style="fill:#f2cc8f;" />
            </g>
            <g id="pause">
                <circle id="pause-bg" cx="175.192" cy="677.406" r="24" style="fill:#3d405b;" />
                <path id="pause-symbol"
                    d="M180.08,664.161l-0,26.491c-0,1.205 -0.978,2.183 -2.183,2.183c-1.205,-0 -2.183,-0.978 -2.183,-2.183l-0,-26.491c-0,-1.205 0.978,-2.183 2.183,-2.183c1.205,-0 2.183,0.978 2.183,2.183Zm-5.41,-0l-0,26.491c-0,1.205 -0.979,2.183 -2.184,2.183c-1.204,-0 -2.183,-0.978 -2.183,-2.183l0,-26.491c0,-1.205 0.979,-2.183 2.183,-2.183c1.205,-0 2.184,0.978 2.184,2.183Z"
                    style="fill:#f2cc8f;" />
            </g>
            <g id="play">
                <circle id="play-bg" cx="110.537" cy="665.406" r="24" style="fill:#3d405b;" />
                <path id="play-symbol"
                    d="M127.325,668.984l-24,12c-1.24,0.62 -2.712,0.554 -3.891,-0.175c-1.18,-0.729 -1.897,-2.016 -1.897,-3.403l-0,-24c-0,-1.386 0.717,-2.674 1.897,-3.402c1.179,-0.729 2.651,-0.795 3.891,-0.175l24,12c1.356,0.677 2.212,2.062 2.212,3.577c-0,1.515 -0.856,2.9 -2.212,3.578Z"
                    style="fill:#f2cc8f;" />
            </g>
        </g>
        <g id="subdivision">
            <ellipse id="subdivision-bg" cx="324.176" cy="477.619" rx="24" ry="24" style="fill:#3d405b;" />
            <path id="subdivisions-on-symbol"
                d="M339.176,476.893l-0,1.666c-0,0.46 -0.374,0.834 -0.834,0.834l-28.333,-0c-0.46,-0 -0.833,-0.374 -0.833,-0.834l-0,-1.666c-0,-0.46 0.373,-0.834 0.833,-0.834l28.333,0c0.46,0 0.834,0.374 0.834,0.834Zm-15,-3.416c-1.245,-0 -2.376,-0.367 -3.393,-1.1c-1.018,-0.733 -1.778,-1.685 -2.281,-2.855c0.503,-1.17 1.263,-2.122 2.281,-2.855c1.017,-0.734 2.148,-1.1 3.393,-1.1c1.244,-0 2.375,0.366 3.392,1.1c1.018,0.733 1.778,1.685 2.281,2.855c-0.503,1.17 -1.263,2.122 -2.281,2.855c-1.017,0.733 -2.148,1.1 -3.392,1.1Zm-0.001,-0.989c1,0 1.911,-0.268 2.732,-0.804c0.821,-0.536 1.451,-1.257 1.891,-2.162c-0.44,-0.906 -1.07,-1.627 -1.89,-2.163c-0.82,-0.536 -1.731,-0.804 -2.731,-0.804c-1.001,0 -1.914,0.268 -2.739,0.804c-0.825,0.536 -1.457,1.257 -1.898,2.163c0.441,0.905 1.073,1.626 1.897,2.162c0.824,0.536 1.737,0.804 2.738,0.804Zm0.004,-0.902c-0.574,-0 -1.062,-0.2 -1.465,-0.6c-0.402,-0.399 -0.603,-0.886 -0.603,-1.461c0,-0.574 0.2,-1.062 0.6,-1.464c0.4,-0.402 0.887,-0.603 1.461,-0.603c0.574,-0 1.063,0.199 1.465,0.599c0.402,0.4 0.603,0.887 0.603,1.461c-0,0.575 -0.2,1.063 -0.6,1.465c-0.399,0.402 -0.886,0.603 -1.461,0.603Zm-0.005,-0.878c0.325,0 0.605,-0.116 0.838,-0.348c0.233,-0.233 0.35,-0.512 0.35,-0.837c0,-0.325 -0.116,-0.604 -0.349,-0.838c-0.232,-0.233 -0.511,-0.35 -0.836,-0.35c-0.325,0 -0.605,0.116 -0.838,0.349c-0.233,0.232 -0.35,0.511 -0.35,0.836c-0,0.326 0.116,0.605 0.349,0.838c0.232,0.234 0.511,0.35 0.836,0.35Zm0.002,18.39c-1.245,-0 -2.376,-0.367 -3.393,-1.1c-1.018,-0.734 -1.778,-1.685 -2.281,-2.855c0.503,-1.171 1.263,-2.122 2.281,-2.856c1.017,-0.733 2.148,-1.1 3.393,-1.1c1.244,0 2.375,0.367 3.392,1.1c1.018,0.734 1.778,1.685 2.281,2.856c-0.503,1.17 -1.263,2.121 -2.281,2.855c-1.017,0.733 -2.148,1.1 -3.392,1.1Zm-0.001,-0.989c1,-0 1.911,-0.268 2.732,-0.804c0.821,-0.536 1.451,-1.257 1.891,-2.162c-0.44,-0.906 -1.07,-1.627 -1.89,-2.163c-0.82,-0.536 -1.731,-0.804 -2.731,-0.804c-1.001,0 -1.914,0.268 -2.739,0.804c-0.825,0.536 -1.457,1.257 -1.898,2.163c0.441,0.905 1.073,1.626 1.897,2.162c0.824,0.536 1.737,0.804 2.738,0.804Zm0.004,-0.902c-0.574,-0 -1.062,-0.2 -1.465,-0.6c-0.402,-0.399 -0.603,-0.886 -0.603,-1.461c0,-0.574 0.2,-1.062 0.6,-1.465c0.4,-0.402 0.887,-0.603 1.461,-0.603c0.574,0 1.063,0.2 1.465,0.6c0.402,0.399 0.603,0.886 0.603,1.461c-0,0.574 -0.2,1.062 -0.6,1.465c-0.399,0.402 -0.886,0.603 -1.461,0.603Zm-0.005,-0.878c0.325,0 0.605,-0.116 0.838,-0.349c0.233,-0.232 0.35,-0.511 0.35,-0.836c0,-0.325 -0.116,-0.605 -0.349,-0.838c-0.232,-0.233 -0.511,-0.35 -0.836,-0.35c-0.325,-0 -0.605,0.116 -0.838,0.349c-0.233,0.232 -0.35,0.511 -0.35,0.836c-0,0.325 0.116,0.605 0.349,0.838c0.232,0.233 0.511,0.35 0.836,0.35Z"
                style="fill:#f2cc8f;" />
        </g>
        <g id="division">
            <ellipse id="division-bg" cx="324.176" cy="177.106" rx="24" ry="24" style="fill:#3d405b;" />
            <path id="division-symbol"
                d="M339.176,176.303l-0,1.667c-0,0.46 -0.374,0.833 -0.834,0.833l-28.333,0c-0.46,0 -0.833,-0.373 -0.833,-0.833l-0,-1.667c-0,-0.46 0.373,-0.833 0.833,-0.833l28.333,0c0.46,0 0.834,0.373 0.834,0.833Zm-13.017,-3.44c-0.191,0.131 -0.453,0.082 -0.584,-0.109c-0.132,-0.192 -0.083,-0.453 0.109,-0.585c0.983,-0.674 1.571,-1.79 1.571,-2.983c-0,-1.192 -0.588,-2.308 -1.571,-2.983c-0.192,-0.131 -0.241,-0.393 -0.109,-0.584c0.131,-0.191 0.393,-0.24 0.584,-0.109c1.212,0.831 1.937,2.206 1.937,3.676c-0,1.47 -0.725,2.846 -1.937,3.677Zm-0.824,-1.358c-0.128,0.088 -0.302,0.055 -0.39,-0.072c-0.087,-0.128 -0.055,-0.303 0.073,-0.39c0.612,-0.42 0.978,-1.114 0.978,-1.857c-0,-0.742 -0.366,-1.437 -0.978,-1.856c-0.128,-0.088 -0.16,-0.262 -0.073,-0.39c0.088,-0.127 0.262,-0.16 0.39,-0.072c0.764,0.524 1.221,1.391 1.221,2.318c0,0.928 -0.457,1.795 -1.221,2.319Zm-0.448,-1.237c-0.096,0.066 -0.227,0.041 -0.293,-0.054c-0.065,-0.096 -0.041,-0.227 0.055,-0.292c0.242,-0.167 0.387,-0.442 0.387,-0.736c-0,-0.294 -0.145,-0.569 -0.387,-0.735c-0.096,-0.066 -0.12,-0.196 -0.055,-0.292c0.066,-0.096 0.197,-0.12 0.293,-0.054c0.356,0.244 0.569,0.649 0.569,1.081c0,0.433 -0.213,0.838 -0.569,1.082Zm-1.339,-4.387c0.083,-0.055 0.19,-0.059 0.277,-0.012c0.087,0.047 0.141,0.138 0.142,0.237c0,1.289 0.002,4.721 0.003,6.087c0,0.111 -0.061,0.212 -0.159,0.262c-0.098,0.05 -0.216,0.041 -0.306,-0.023c-0.858,-0.617 -2.649,-1.905 -3.128,-2.249c-0.076,-0.055 -0.12,-0.142 -0.12,-0.234c-0.001,-0.377 -0.001,-1.37 -0.002,-1.753c0,-0.096 0.048,-0.185 0.128,-0.237c0.5,-0.328 2.332,-1.531 3.165,-2.078Zm-1.356,15.835c0.191,-0.131 0.453,-0.082 0.584,0.109c0.132,0.191 0.083,0.453 -0.109,0.584c-0.983,0.675 -1.571,1.791 -1.571,2.983c0,1.193 0.588,2.309 1.571,2.983c0.192,0.131 0.241,0.393 0.109,0.585c-0.131,0.191 -0.393,0.24 -0.584,0.109c-1.212,-0.831 -1.937,-2.207 -1.937,-3.677c0,-1.47 0.725,-2.845 1.937,-3.676Zm0.824,1.357c0.128,-0.087 0.302,-0.054 0.39,0.073c0.087,0.128 0.055,0.302 -0.073,0.39c-0.612,0.419 -0.978,1.114 -0.978,1.856c0,0.743 0.366,1.437 0.978,1.857c0.128,0.087 0.16,0.262 0.073,0.39c-0.088,0.127 -0.262,0.16 -0.39,0.072c-0.764,-0.524 -1.221,-1.391 -1.221,-2.319c-0,-0.927 0.457,-1.794 1.221,-2.319Zm0.448,1.238c0.096,-0.066 0.227,-0.042 0.293,0.054c0.065,0.096 0.041,0.226 -0.055,0.292c-0.242,0.166 -0.387,0.441 -0.387,0.735c0,0.294 0.145,0.569 0.387,0.736c0.096,0.065 0.12,0.196 0.055,0.292c-0.066,0.095 -0.197,0.12 -0.293,0.054c-0.356,-0.244 -0.569,-0.649 -0.569,-1.082c-0,-0.432 0.213,-0.837 0.569,-1.081Zm1.339,4.387c-0.083,0.055 -0.189,0.059 -0.277,0.012c-0.087,-0.047 -0.141,-0.138 -0.142,-0.238c-0,-1.289 -0.002,-4.72 -0.003,-6.087c-0,-0.11 0.061,-0.211 0.159,-0.261c0.098,-0.05 0.216,-0.042 0.306,0.023c0.858,0.617 2.649,1.904 3.128,2.249c0.076,0.054 0.12,0.141 0.121,0.234c-0,0.377 0,1.37 0.001,1.753c-0,0.095 -0.048,0.184 -0.128,0.237c-0.5,0.328 -2.332,1.531 -3.165,2.078Z"
                style="fill:#f2cc8f;" />
        </g>
        <g id="bpm">
            <ellipse id="bpm-bg" cx="175.537" cy="327.096" rx="24" ry="24" style="fill:#3d405b;" />
            <path id="bpm-symbol"
                d="M192.522,310.124l-16.971,12.728c-1.17,1.171 -1.17,3.072 0,4.243c1.171,1.17 3.072,1.17 4.243,-0l12.728,-16.971Z"
                style="fill:#f2cc8f;" />
        </g>
        <g id="settings">
            <ellipse id="settings-bg" cx="175.537" cy="27.095" rx="24" ry="24" style="fill:#3d405b;" />
            <path id="setings-symbol"
                d="M179.002,9.431c-2.288,-0.449 -4.642,-0.449 -6.93,-0l-0.765,4.166c-1.987,0.622 -3.812,1.676 -5.344,3.085l-3.99,-1.421c-1.534,1.757 -2.71,3.796 -3.466,6.003l3.226,2.744c-0.454,2.032 -0.454,4.139 0,6.172l-3.226,2.744c0.756,2.207 1.932,4.245 3.466,6.003l3.99,-1.421c1.532,1.41 3.357,2.463 5.344,3.086l0.765,4.166c2.288,0.448 4.642,0.448 6.93,-0l0.765,-4.166c1.986,-0.623 3.812,-1.676 5.344,-3.086l3.99,1.421c1.533,-1.758 2.71,-3.796 3.466,-6.003l-3.226,-2.744c0.454,-2.033 0.454,-4.14 -0,-6.172l3.226,-2.744c-0.756,-2.207 -1.933,-4.246 -3.466,-6.003l-3.99,1.421c-1.532,-1.409 -3.358,-2.463 -5.344,-3.085l-0.765,-4.166Zm-3.465,10.716c3.834,-0 6.947,3.113 6.947,6.947c-0,3.834 -3.113,6.947 -6.947,6.947c-3.834,0 -6.947,-3.113 -6.947,-6.947c0,-3.834 3.113,-6.947 6.947,-6.947Z"
                style="fill:#f2cc8f;" />
        </g>
        <g id="volume">
            <circle id="volume-bg" cx="26.533" cy="177.095" r="24" style="fill:#3d405b;" />
            <path id="volume-symbol"
                d="M34.471,190.105c-0.682,0.468 -1.617,0.294 -2.085,-0.389c-0.468,-0.683 -0.294,-1.617 0.389,-2.085c3.51,-2.407 5.607,-6.389 5.607,-10.645c0,-4.256 -2.097,-8.239 -5.607,-10.645c-0.683,-0.468 -0.857,-1.402 -0.389,-2.085c0.468,-0.683 1.403,-0.857 2.085,-0.389c4.326,2.965 6.911,7.873 6.911,13.119c0,5.246 -2.585,10.153 -6.911,13.119Zm-2.941,-4.844c-0.456,0.312 -1.078,0.196 -1.391,-0.26c-0.312,-0.455 -0.196,-1.078 0.26,-1.39c2.184,-1.497 3.489,-3.976 3.489,-6.625c0,-2.649 -1.305,-5.128 -3.489,-6.625c-0.456,-0.312 -0.572,-0.935 -0.26,-1.391c0.313,-0.455 0.935,-0.571 1.391,-0.259c2.728,1.871 4.358,4.966 4.358,8.275c0,3.309 -1.63,6.404 -4.358,8.275Zm-1.599,-4.415c-0.342,0.235 -0.809,0.148 -1.043,-0.194c-0.234,-0.341 -0.148,-0.808 0.194,-1.042c0.864,-0.594 1.381,-1.575 1.381,-2.624c0,-1.049 -0.517,-2.03 -1.381,-2.624c-0.342,-0.234 -0.428,-0.701 -0.194,-1.042c0.234,-0.342 0.701,-0.429 1.043,-0.194c1.271,0.872 2.032,2.317 2.032,3.86c0,1.543 -0.761,2.988 -2.032,3.86Zm-4.776,-15.656c0.296,-0.195 0.675,-0.211 0.986,-0.043c0.312,0.168 0.506,0.494 0.507,0.848c0.002,4.6 0.009,16.846 0.012,21.722c0.001,0.393 -0.219,0.753 -0.569,0.933c-0.35,0.179 -0.771,0.148 -1.09,-0.082c-3.064,-2.203 -9.454,-6.797 -11.164,-8.026c-0.269,-0.194 -0.428,-0.505 -0.429,-0.836c-0.001,-1.345 -0.003,-4.889 -0.004,-6.254c0,-0.341 0.171,-0.659 0.456,-0.846c1.783,-1.17 8.321,-5.463 11.295,-7.416Z"
                style="fill:#f2cc8f;" />
        </g>
        <g id="time-signature">
            <ellipse id="time-signature-bg" cx="57.299" cy="569.706" rx="24" ry="24" style="fill:#3d405b;" />
            <path id="time-signature-symbol"
                d="M58.308,557.465c1.504,0 2.936,0.312 4.296,0.936c1.36,0.624 2.472,1.472 3.336,2.544c0.864,1.072 1.296,2.28 1.296,3.624c-0,1.184 -0.4,2.2 -1.2,3.048c-0.8,0.848 -1.808,1.272 -3.024,1.272c-1.088,0 -1.984,-0.312 -2.688,-0.936c-0.704,-0.624 -1.056,-1.48 -1.056,-2.568c-0,-0.832 0.24,-1.536 0.72,-2.112c0.48,-0.576 1.056,-1.024 1.728,-1.344c0.352,-0.16 0.784,-0.296 1.296,-0.408c0.512,-0.112 0.768,-0.264 0.768,-0.456c-0,-0.512 -0.448,-0.992 -1.344,-1.44c-0.896,-0.448 -1.856,-0.672 -2.88,-0.672c-1.312,0 -2.432,0.304 -3.36,0.912c-0.928,0.608 -1.624,1.648 -2.088,3.12c-0.464,1.472 -0.696,3.52 -0.696,6.144l-0,3.744c-0,1.184 0.184,2.344 0.552,3.48c0.368,1.136 0.984,2.072 1.848,2.808c0.864,0.736 2,1.104 3.408,1.104c1.6,0 3.056,-0.72 4.368,-2.16c1.312,-1.44 2.16,-3.376 2.544,-5.808l1.296,0c-0.128,1.856 -0.608,3.512 -1.44,4.968c-0.832,1.456 -1.952,2.6 -3.36,3.432c-1.408,0.832 -3.024,1.248 -4.848,1.248c-2.016,0 -3.824,-0.584 -5.424,-1.752c-1.6,-1.168 -2.864,-2.728 -3.792,-4.68c-0.928,-1.952 -1.392,-4.128 -1.392,-6.528c-0,-1.536 0.296,-2.992 0.888,-4.368c0.592,-1.376 1.4,-2.6 2.424,-3.672c1.024,-1.072 2.208,-1.92 3.552,-2.544c1.344,-0.624 2.768,-0.936 4.272,-0.936Z"
                style="fill:#f2cc8f;fill-rule:nonzero;" />
        </g>
        <g transform="matrix(131.587,0,0,131.587,247.712,216.505)"></g><text x="103.098px" y="216.505px"
            style="font-family:'MuktaMahee-Bold', 'Mukta Mahee', sans-serif;font-weight:700;font-size:131.587px;fill:#3d405b;">6
            <tspan x="174.023px " y="216.505px ">0</tspan>
        </text>
        <g id="time-sig-indicators">
            <path id="_3-4" serif:id="3-4"
                d="M155.126,91.174c3.274,-2.151 6.642,-3.671 10.103,-4.56c3.46,-0.888 6.968,-1.333 10.523,-1.333c3.554,0 6.805,0.538 9.751,1.614c2.946,1.076 5.472,2.572 7.577,4.49c2.104,1.917 3.741,4.162 4.91,6.735c1.17,2.572 1.754,5.401 1.754,8.488c0,5.145 -1.286,9.377 -3.858,12.698c-2.573,3.321 -5.776,5.682 -9.611,7.085c4.77,1.31 8.699,3.719 11.785,7.226c3.087,3.508 4.631,7.741 4.631,12.698c-0,4.209 -0.842,7.787 -2.526,10.734c-1.684,2.946 -3.882,5.331 -6.594,7.155c-2.713,1.824 -5.753,3.134 -9.12,3.929c-3.368,0.795 -6.782,1.192 -10.243,1.192c-3.554,0 -7.202,-0.374 -10.944,-1.122c-3.741,-0.748 -6.968,-1.777 -9.681,-3.087l1.543,-5.472c5.239,2.619 11.552,3.929 18.942,3.929c2.713,-0 5.355,-0.351 7.927,-1.052c2.573,-0.702 4.864,-1.754 6.875,-3.157c2.011,-1.403 3.625,-3.181 4.841,-5.332c1.216,-2.151 1.824,-4.724 1.824,-7.717c-0,-5.145 -1.988,-9.167 -5.963,-12.066c-3.975,-2.9 -9.097,-4.35 -15.364,-4.35l-10.242,0l-0,-5.612l7.717,-0c2.899,-0 5.635,-0.374 8.208,-1.123c2.572,-0.748 4.84,-1.87 6.805,-3.367c1.964,-1.497 3.507,-3.297 4.63,-5.402c1.122,-2.104 1.683,-4.56 1.683,-7.366c0,-4.77 -1.566,-8.652 -4.7,-11.645c-3.133,-2.994 -7.46,-4.49 -12.978,-4.49c-3.087,-0 -5.987,0.374 -8.699,1.122c-2.713,0.748 -5.8,2.152 -9.261,4.209l-2.245,-5.051Zm29.493,95.316l7.998,-0l-0,54.299l14.171,-0l-0,5.752l-14.171,0l-0,22.169l-7.156,-0l0,-22.169l-41.531,0l0,-4.069l40.689,-55.982Zm-31.85,54.299l32.692,-0l0,-29.605l0.421,-17.819l-11.084,17.117l-22.029,30.307Zm51.821,-65.617l-0,5.846l-58.462,-0l0,-5.846l58.462,-0Z"
                style="fill:#3d405b;fill-opacity:0;" />
            <path id="_4-4" serif:id="4-4"
                d="M184.619,186.49l7.998,-0l-0,54.299l14.171,-0l-0,5.752l-14.171,0l-0,22.169l-7.156,-0l0,-22.169l-41.531,0l0,-4.069l40.689,-55.982Zm-31.85,54.299l32.692,-0l0,-29.605l0.421,-17.819l-11.084,17.117l-22.029,30.307Zm31.85,-153.972l7.998,0l-0,54.299l14.171,-0l-0,5.753l-14.171,-0l-0,22.168l-7.156,0l0,-22.168l-41.531,-0l0,-4.069l40.689,-55.983Zm-31.85,54.299l32.692,-0l0,-29.605l0.421,-17.819l-11.084,17.118l-22.029,30.306Zm51.821,34.056l-0,5.846l-58.462,-0l0,-5.846l58.462,-0Z"
                style="fill:#3d405b;fill-opacity:0;" />
            <path id="_5-4" serif:id="5-4"
                d="M184.619,186.076l7.998,0l-0,54.299l14.171,0l-0,5.753l-14.171,-0l-0,22.169l-7.156,-0l0,-22.169l-41.531,-0l0,-4.069l40.689,-55.983Zm-31.85,54.299l32.692,0l0,-29.604l0.421,-17.819l-11.084,17.117l-22.029,30.306Zm51.821,-65.617l-0,5.846l-58.462,0l0,-5.846l58.462,0Zm-6.992,-89.477l-0,5.753l-32.832,0l-2.947,28.202c1.029,-0.187 2.385,-0.374 4.069,-0.561c1.684,-0.188 3.461,-0.281 5.332,-0.281c3.648,-0 7.179,0.514 10.593,1.543c3.414,1.029 6.407,2.573 8.98,4.63c2.572,2.058 4.653,4.607 6.243,7.647c1.591,3.04 2.386,6.524 2.386,10.453c-0,3.929 -0.702,7.483 -2.105,10.663c-1.403,3.181 -3.414,5.893 -6.033,8.138c-2.619,2.245 -5.823,3.999 -9.611,5.262c-3.789,1.263 -8.021,1.894 -12.698,1.894c-3.18,-0 -6.384,-0.257 -9.611,-0.772c-3.227,-0.514 -5.916,-1.426 -8.068,-2.736l1.824,-5.752c1.965,1.216 4.373,2.104 7.226,2.665c2.853,0.562 5.636,0.842 8.348,0.842c3.368,0 6.478,-0.374 9.331,-1.122c2.853,-0.748 5.331,-1.941 7.436,-3.578c2.105,-1.637 3.765,-3.695 4.981,-6.174c1.216,-2.478 1.824,-5.448 1.824,-8.909c-0,-5.799 -2.105,-10.43 -6.314,-13.89c-4.209,-3.461 -9.915,-5.192 -17.117,-5.192c-2.526,0 -4.841,0.117 -6.946,0.351c-2.104,0.234 -4.326,0.678 -6.664,1.333l4.069,-40.409l38.304,0Z"
                style="fill:#3d405b;fill-opacity:0;" />
            <path id="_6-4" serif:id="6-4"
                d="M184.619,186.076l7.998,0l-0,54.299l14.171,0l-0,5.753l-14.171,-0l-0,22.169l-7.156,-0l0,-22.169l-41.531,-0l0,-4.069l40.689,-55.983Zm-31.85,54.299l32.692,0l0,-29.604l0.421,-17.819l-11.084,17.117l-22.029,30.306Zm51.821,-65.617l-0,5.846l-58.462,0l0,-5.846l58.462,0Zm-21.865,-88.378c3.087,0 5.706,0.164 7.857,0.492c2.152,0.327 4.443,0.912 6.875,1.753l-1.543,5.613c-1.871,-0.842 -3.765,-1.427 -5.683,-1.754c-1.917,-0.328 -4.092,-0.491 -6.524,-0.491c-4.115,-0 -7.927,0.771 -11.435,2.315c-3.508,1.543 -6.548,3.812 -9.12,6.805c-2.572,2.993 -4.653,6.641 -6.243,10.944c-1.591,4.302 -2.526,9.26 -2.807,14.872c0.936,-1.403 2.152,-2.806 3.648,-4.209c1.497,-1.403 3.227,-2.642 5.192,-3.718c1.964,-1.076 4.115,-1.941 6.454,-2.596c2.338,-0.655 4.864,-0.982 7.576,-0.982c3.555,0 6.922,0.561 10.103,1.684c3.18,1.122 5.963,2.806 8.348,5.051c2.385,2.245 4.256,5.028 5.612,8.348c1.356,3.321 2.035,7.132 2.035,11.435c-0,4.209 -0.679,8.068 -2.035,11.575c-1.356,3.508 -3.227,6.525 -5.612,9.05c-2.385,2.526 -5.215,4.467 -8.489,5.823c-3.274,1.356 -6.875,2.035 -10.803,2.035c-3.648,-0 -7.179,-0.632 -10.594,-1.895c-3.414,-1.262 -6.454,-3.414 -9.12,-6.454c-2.665,-3.04 -4.793,-7.039 -6.384,-11.996c-1.59,-4.958 -2.385,-11.084 -2.385,-18.38c0,-8.045 1.029,-14.92 3.087,-20.625c2.058,-5.706 4.747,-10.383 8.068,-14.031c3.32,-3.648 7.085,-6.337 11.294,-8.068c4.21,-1.73 8.419,-2.596 12.628,-2.596Zm-28.061,52.896c-0,3.929 0.561,7.483 1.683,10.664c1.123,3.18 2.666,5.846 4.63,7.997c1.965,2.152 4.256,3.812 6.875,4.981c2.62,1.169 5.426,1.754 8.419,1.754c2.713,-0 5.285,-0.515 7.717,-1.543c2.432,-1.029 4.536,-2.503 6.314,-4.42c1.777,-1.918 3.18,-4.256 4.209,-7.016c1.029,-2.759 1.543,-5.869 1.543,-9.33c0,-3.554 -0.514,-6.665 -1.543,-9.33c-1.029,-2.666 -2.456,-4.888 -4.28,-6.665c-1.824,-1.777 -3.975,-3.11 -6.454,-3.999c-2.478,-0.888 -5.168,-1.333 -8.067,-1.333c-2.432,0 -4.701,0.375 -6.805,1.123c-2.105,0.748 -4.022,1.707 -5.753,2.876c-1.73,1.169 -3.227,2.549 -4.49,4.139c-1.262,1.59 -2.221,3.227 -2.876,4.911c-0.281,0.748 -0.538,1.567 -0.772,2.455c-0.233,0.889 -0.35,1.801 -0.35,2.736Z"
                style="fill:#3d405b;fill-opacity:0;" />
            <path id="_7-4" serif:id="7-4"
                d="M184.619,186.49l7.998,-0l-0,54.299l14.171,-0l-0,5.752l-14.171,0l-0,22.169l-7.156,-0l0,-22.169l-41.531,0l0,-4.069l40.689,-55.982Zm-31.85,54.299l32.692,-0l0,-29.605l0.421,-17.819l-11.084,17.117l-22.029,30.307Zm51.821,-65.617l-0,5.846l-58.462,-0l0,-5.846l58.462,-0Zm-3.555,-89.189l0,4.069l-38.163,79.273l-6.314,-2.806l36.62,-74.783l-43.495,-0l-0,-5.753l51.352,-0Z"
                style="fill:#3d405b;fill-opacity:0;" />
            <path id="_6-8" serif:id="6-8"
                d="M204.59,174.758l-0,5.846l-58.462,0l0,-5.846l58.462,0Zm-21.865,-88.378c3.087,0 5.706,0.164 7.857,0.492c2.152,0.327 4.443,0.912 6.875,1.753l-1.543,5.613c-1.871,-0.842 -3.765,-1.427 -5.683,-1.754c-1.917,-0.328 -4.092,-0.491 -6.524,-0.491c-4.115,-0 -7.927,0.771 -11.435,2.315c-3.508,1.543 -6.548,3.812 -9.12,6.805c-2.572,2.993 -4.653,6.641 -6.243,10.944c-1.591,4.302 -2.526,9.26 -2.807,14.872c0.936,-1.403 2.152,-2.806 3.648,-4.209c1.497,-1.403 3.227,-2.642 5.192,-3.718c1.964,-1.076 4.115,-1.941 6.454,-2.596c2.338,-0.655 4.864,-0.982 7.576,-0.982c3.555,0 6.922,0.561 10.103,1.684c3.18,1.122 5.963,2.806 8.348,5.051c2.385,2.245 4.256,5.028 5.612,8.348c1.356,3.321 2.035,7.132 2.035,11.435c-0,4.209 -0.679,8.068 -2.035,11.575c-1.356,3.508 -3.227,6.525 -5.612,9.05c-2.385,2.526 -5.215,4.467 -8.489,5.823c-3.274,1.356 -6.875,2.035 -10.803,2.035c-3.648,-0 -7.179,-0.632 -10.594,-1.895c-3.414,-1.262 -6.454,-3.414 -9.12,-6.454c-2.665,-3.04 -4.793,-7.039 -6.384,-11.996c-1.59,-4.958 -2.385,-11.084 -2.385,-18.38c0,-8.045 1.029,-14.92 3.087,-20.625c2.058,-5.706 4.747,-10.383 8.068,-14.031c3.32,-3.648 7.085,-6.337 11.294,-8.068c4.21,-1.73 8.419,-2.596 12.628,-2.596Zm-28.061,52.896c-0,3.929 0.561,7.483 1.683,10.664c1.123,3.18 2.666,5.846 4.63,7.997c1.965,2.152 4.256,3.812 6.875,4.981c2.62,1.169 5.426,1.754 8.419,1.754c2.713,-0 5.285,-0.515 7.717,-1.543c2.432,-1.029 4.536,-2.503 6.314,-4.42c1.777,-1.918 3.18,-4.256 4.209,-7.016c1.029,-2.759 1.543,-5.869 1.543,-9.33c0,-3.554 -0.514,-6.665 -1.543,-9.33c-1.029,-2.666 -2.456,-4.888 -4.28,-6.665c-1.824,-1.777 -3.975,-3.11 -6.454,-3.999c-2.478,-0.888 -5.168,-1.333 -8.067,-1.333c-2.432,0 -4.701,0.375 -6.805,1.123c-2.105,0.748 -4.022,1.707 -5.753,2.876c-1.73,1.169 -3.227,2.549 -4.49,4.139c-1.262,1.59 -2.221,3.227 -2.876,4.911c-0.281,0.748 -0.538,1.567 -0.772,2.455c-0.233,0.889 -0.35,1.801 -0.35,2.736Zm20.905,47.588c4.023,-0 7.6,0.561 10.734,1.684c3.133,1.122 5.776,2.619 7.927,4.489c2.152,1.871 3.765,4.046 4.841,6.525c1.076,2.478 1.613,5.074 1.613,7.787c0,3.928 -1.169,7.53 -3.507,10.803c-2.339,3.274 -6.595,6.034 -12.768,8.278c5.893,1.965 10.429,4.748 13.61,8.349c3.18,3.601 4.77,8.021 4.77,13.259c-0,3.648 -0.702,6.898 -2.105,9.751c-1.403,2.853 -3.344,5.238 -5.822,7.156c-2.479,1.917 -5.379,3.391 -8.699,4.419c-3.321,1.029 -6.899,1.544 -10.734,1.544c-3.929,-0 -7.553,-0.515 -10.874,-1.544c-3.32,-1.028 -6.22,-2.502 -8.699,-4.419c-2.479,-1.918 -4.419,-4.256 -5.823,-7.016c-1.403,-2.759 -2.104,-5.869 -2.104,-9.33c-0,-5.332 1.45,-9.751 4.349,-13.259c2.9,-3.508 7.437,-6.337 13.61,-8.489c-4.957,-1.964 -8.722,-4.536 -11.295,-7.716c-2.572,-3.181 -3.858,-7.016 -3.858,-11.506c0,-2.899 0.514,-5.612 1.543,-8.138c1.029,-2.525 2.596,-4.723 4.701,-6.594c2.104,-1.871 4.7,-3.344 7.787,-4.42c3.086,-1.075 6.688,-1.613 10.803,-1.613Zm-0.561,43.074c-6.08,1.029 -10.991,3.087 -14.732,6.174c-3.742,3.086 -5.612,7.155 -5.612,12.206c-0,2.245 0.444,4.397 1.333,6.455c0.888,2.057 2.198,3.858 3.928,5.401c1.731,1.544 3.882,2.76 6.454,3.648c2.573,0.889 5.589,1.333 9.05,1.333c3.274,0 6.197,-0.444 8.769,-1.333c2.573,-0.888 4.747,-2.104 6.525,-3.648c1.777,-1.543 3.133,-3.344 4.068,-5.401c0.936,-2.058 1.404,-4.21 1.404,-6.455c-0,-4.77 -1.918,-8.769 -5.753,-11.996c-3.835,-3.227 -8.98,-5.355 -15.434,-6.384Zm-17.117,-22.449c-0,2.245 0.444,4.279 1.333,6.103c0.888,1.824 2.104,3.438 3.648,4.841c1.543,1.403 3.344,2.572 5.401,3.508c2.058,0.935 4.256,1.683 6.595,2.245c2.432,-0.562 4.77,-1.333 7.015,-2.316c2.245,-0.982 4.209,-2.174 5.893,-3.577c1.684,-1.403 3.04,-3.017 4.069,-4.841c1.029,-1.824 1.543,-3.812 1.543,-5.963c0,-2.338 -0.491,-4.443 -1.473,-6.314c-0.982,-1.871 -2.292,-3.461 -3.928,-4.77c-1.637,-1.31 -3.531,-2.292 -5.683,-2.947c-2.151,-0.654 -4.396,-0.982 -6.735,-0.982c-5.799,0 -10.195,1.45 -13.188,4.35c-2.994,2.899 -4.49,6.454 -4.49,10.663Z"
                style="fill:#3d405b;fill-opacity:0;" />
            <path id="_7-8" serif:id="7-8"
                d="M204.59,174.758l-0,5.846l-58.462,0l0,-5.846l58.462,0Zm-29.021,12.106c4.023,-0 7.6,0.561 10.734,1.684c3.133,1.122 5.776,2.619 7.927,4.489c2.152,1.871 3.765,4.046 4.841,6.525c1.076,2.478 1.613,5.074 1.613,7.787c0,3.928 -1.169,7.53 -3.507,10.803c-2.339,3.274 -6.595,6.034 -12.768,8.278c5.893,1.965 10.429,4.748 13.61,8.349c3.18,3.601 4.77,8.021 4.77,13.259c-0,3.648 -0.702,6.898 -2.105,9.751c-1.403,2.853 -3.344,5.238 -5.822,7.156c-2.479,1.917 -5.379,3.391 -8.699,4.419c-3.321,1.029 -6.899,1.544 -10.734,1.544c-3.929,-0 -7.553,-0.515 -10.874,-1.544c-3.32,-1.028 -6.22,-2.502 -8.699,-4.419c-2.479,-1.918 -4.419,-4.256 -5.823,-7.016c-1.403,-2.759 -2.104,-5.869 -2.104,-9.33c-0,-5.332 1.45,-9.751 4.349,-13.259c2.9,-3.508 7.437,-6.337 13.61,-8.489c-4.957,-1.964 -8.722,-4.536 -11.295,-7.716c-2.572,-3.181 -3.858,-7.016 -3.858,-11.506c0,-2.899 0.514,-5.612 1.543,-8.138c1.029,-2.525 2.596,-4.723 4.701,-6.594c2.104,-1.871 4.7,-3.344 7.787,-4.42c3.086,-1.075 6.688,-1.613 10.803,-1.613Zm-17.678,20.625c-0,2.245 0.444,4.279 1.333,6.103c0.888,1.824 2.104,3.438 3.648,4.841c1.543,1.403 3.344,2.572 5.401,3.508c2.058,0.935 4.256,1.683 6.595,2.245c2.432,-0.562 4.77,-1.333 7.015,-2.316c2.245,-0.982 4.209,-2.174 5.893,-3.577c1.684,-1.403 3.04,-3.017 4.069,-4.841c1.029,-1.824 1.543,-3.812 1.543,-5.963c0,-2.338 -0.491,-4.443 -1.473,-6.314c-0.982,-1.871 -2.292,-3.461 -3.928,-4.77c-1.637,-1.31 -3.531,-2.292 -5.683,-2.947c-2.151,-0.654 -4.396,-0.982 -6.735,-0.982c-5.799,0 -10.195,1.45 -13.188,4.35c-2.994,2.899 -4.49,6.454 -4.49,10.663Zm17.117,22.449c-6.08,1.029 -10.991,3.087 -14.732,6.174c-3.742,3.086 -5.612,7.155 -5.612,12.206c-0,2.245 0.444,4.397 1.333,6.455c0.888,2.057 2.198,3.858 3.928,5.401c1.731,1.544 3.882,2.76 6.454,3.648c2.573,0.889 5.589,1.333 9.05,1.333c3.274,0 6.197,-0.444 8.769,-1.333c2.573,-0.888 4.747,-2.104 6.525,-3.648c1.777,-1.543 3.133,-3.344 4.068,-5.401c0.936,-2.058 1.404,-4.21 1.404,-6.455c-0,-4.77 -1.918,-8.769 -5.753,-11.996c-3.835,-3.227 -8.98,-5.355 -15.434,-6.384Zm26.027,-143.207l0,4.069l-38.163,79.274l-6.314,-2.806l36.62,-74.784l-43.495,-0l-0,-5.753l51.352,0Z"
                style="fill:#3d405b;fill-opacity:0;" />
            <path id="_9-8" serif:id="9-8"
                d="M204.59,174.758l-0,5.846l-58.462,0l0,-5.846l58.462,0Zm-29.021,12.106c4.023,-0 7.6,0.561 10.734,1.684c3.133,1.122 5.776,2.619 7.927,4.489c2.152,1.871 3.765,4.046 4.841,6.525c1.076,2.478 1.613,5.074 1.613,7.787c0,3.928 -1.169,7.53 -3.507,10.803c-2.339,3.274 -6.595,6.034 -12.768,8.278c5.893,1.965 10.429,4.748 13.61,8.349c3.18,3.601 4.77,8.021 4.77,13.259c-0,3.648 -0.702,6.898 -2.105,9.751c-1.403,2.853 -3.344,5.238 -5.822,7.156c-2.479,1.917 -5.379,3.391 -8.699,4.419c-3.321,1.029 -6.899,1.544 -10.734,1.544c-3.929,-0 -7.553,-0.515 -10.874,-1.544c-3.32,-1.028 -6.22,-2.502 -8.699,-4.419c-2.479,-1.918 -4.419,-4.256 -5.823,-7.016c-1.403,-2.759 -2.104,-5.869 -2.104,-9.33c-0,-5.332 1.45,-9.751 4.349,-13.259c2.9,-3.508 7.437,-6.337 13.61,-8.489c-4.957,-1.964 -8.722,-4.536 -11.295,-7.716c-2.572,-3.181 -3.858,-7.016 -3.858,-11.506c0,-2.899 0.514,-5.612 1.543,-8.138c1.029,-2.525 2.596,-4.723 4.701,-6.594c2.104,-1.871 4.7,-3.344 7.787,-4.42c3.086,-1.075 6.688,-1.613 10.803,-1.613Zm-17.678,20.625c-0,2.245 0.444,4.279 1.333,6.103c0.888,1.824 2.104,3.438 3.648,4.841c1.543,1.403 3.344,2.572 5.401,3.508c2.058,0.935 4.256,1.683 6.595,2.245c2.432,-0.562 4.77,-1.333 7.015,-2.316c2.245,-0.982 4.209,-2.174 5.893,-3.577c1.684,-1.403 3.04,-3.017 4.069,-4.841c1.029,-1.824 1.543,-3.812 1.543,-5.963c0,-2.338 -0.491,-4.443 -1.473,-6.314c-0.982,-1.871 -2.292,-3.461 -3.928,-4.77c-1.637,-1.31 -3.531,-2.292 -5.683,-2.947c-2.151,-0.654 -4.396,-0.982 -6.735,-0.982c-5.799,0 -10.195,1.45 -13.188,4.35c-2.994,2.899 -4.49,6.454 -4.49,10.663Zm17.117,22.449c-6.08,1.029 -10.991,3.087 -14.732,6.174c-3.742,3.086 -5.612,7.155 -5.612,12.206c-0,2.245 0.444,4.397 1.333,6.455c0.888,2.057 2.198,3.858 3.928,5.401c1.731,1.544 3.882,2.76 6.454,3.648c2.573,0.889 5.589,1.333 9.05,1.333c3.274,0 6.197,-0.444 8.769,-1.333c2.573,-0.888 4.747,-2.104 6.525,-3.648c1.777,-1.543 3.133,-3.344 4.068,-5.401c0.936,-2.058 1.404,-4.21 1.404,-6.455c-0,-4.77 -1.918,-8.769 -5.753,-11.996c-3.835,-3.227 -8.98,-5.355 -15.434,-6.384Zm-6.103,-62.074c-3.368,-0 -6.22,-0.164 -8.559,-0.491c-2.338,-0.328 -4.583,-0.959 -6.735,-1.894l1.544,-5.613c1.683,0.749 3.765,1.31 6.243,1.684c2.479,0.374 4.888,0.561 7.226,0.561c8.419,0 15.036,-2.806 19.854,-8.418c4.817,-5.612 7.459,-14.171 7.927,-25.676c-1.871,2.993 -4.724,5.565 -8.559,7.717c-3.835,2.151 -8.512,3.227 -14.03,3.227c-3.555,-0 -6.922,-0.608 -10.103,-1.824c-3.18,-1.216 -5.963,-2.97 -8.348,-5.262c-2.385,-2.292 -4.279,-5.098 -5.682,-8.418c-1.403,-3.321 -2.105,-7.133 -2.105,-11.435c0,-4.584 0.725,-8.629 2.175,-12.137c1.45,-3.508 3.437,-6.454 5.963,-8.839c2.525,-2.386 5.449,-4.186 8.769,-5.402c3.321,-1.216 6.852,-1.824 10.593,-1.824c3.461,-0 6.875,0.701 10.243,2.104c3.367,1.404 6.36,3.648 8.979,6.735c2.619,3.087 4.747,7.062 6.384,11.926c1.637,4.864 2.456,10.804 2.456,17.819c-0,8.325 -0.865,15.387 -2.596,21.187c-1.73,5.799 -4.116,10.499 -7.156,14.101c-3.04,3.601 -6.664,6.197 -10.873,7.787c-4.21,1.59 -8.746,2.385 -13.61,2.385Zm27.079,-51.072c0,-3.18 -0.468,-6.407 -1.403,-9.681c-0.935,-3.274 -2.315,-6.22 -4.139,-8.839c-1.824,-2.62 -4.046,-4.748 -6.665,-6.384c-2.619,-1.637 -5.612,-2.456 -8.979,-2.456c-2.713,0 -5.285,0.515 -7.717,1.544c-2.432,1.028 -4.56,2.502 -6.384,4.419c-1.824,1.918 -3.274,4.28 -4.35,7.086c-1.075,2.806 -1.613,5.939 -1.613,9.4c-0,3.555 0.514,6.642 1.543,9.261c1.029,2.619 2.456,4.84 4.28,6.664c1.824,1.824 3.975,3.18 6.454,4.069c2.478,0.889 5.168,1.333 8.067,1.333c5.051,0 9.354,-1.216 12.909,-3.648c3.554,-2.432 6.033,-5.332 7.436,-8.699c0.374,-1.403 0.561,-2.572 0.561,-3.508l0,-0.561Z"
                style="fill:#3d405b;fill-opacity:0;" />
            <path id="_11-8" serif:id="11-8"
                d="M210.436,174.945l-0,5.847l-58.462,-0l0,-5.847l58.462,0Zm-29.02,12.106c4.022,-0 7.599,0.561 10.733,1.684c3.134,1.122 5.776,2.619 7.927,4.489c2.152,1.871 3.765,4.046 4.841,6.525c1.076,2.478 1.614,5.074 1.614,7.787c-0,3.928 -1.17,7.53 -3.508,10.803c-2.339,3.274 -6.595,6.034 -12.768,8.279c5.893,1.964 10.429,4.747 13.61,8.348c3.18,3.601 4.77,8.021 4.77,13.259c0,3.648 -0.701,6.898 -2.104,9.751c-1.404,2.853 -3.344,5.238 -5.823,7.156c-2.479,1.917 -5.379,3.391 -8.699,4.42c-3.321,1.028 -6.899,1.543 -10.734,1.543c-3.928,-0 -7.553,-0.515 -10.874,-1.543c-3.32,-1.029 -6.22,-2.503 -8.699,-4.42c-2.478,-1.918 -4.419,-4.256 -5.822,-7.015c-1.403,-2.76 -2.105,-5.87 -2.105,-9.331c-0,-5.332 1.45,-9.751 4.35,-13.259c2.899,-3.508 7.436,-6.337 13.609,-8.489c-4.957,-1.964 -8.722,-4.536 -11.294,-7.716c-2.573,-3.181 -3.859,-7.016 -3.859,-11.506c0,-2.899 0.515,-5.612 1.544,-8.137c1.028,-2.526 2.595,-4.724 4.7,-6.595c2.104,-1.871 4.7,-3.344 7.787,-4.42c3.087,-1.075 6.688,-1.613 10.804,-1.613Zm-17.679,20.625c-0,2.245 0.444,4.279 1.333,6.103c0.888,1.824 2.104,3.438 3.648,4.841c1.543,1.403 3.344,2.572 5.402,3.508c2.057,0.935 4.256,1.683 6.594,2.245c2.432,-0.562 4.77,-1.333 7.015,-2.315c2.245,-0.983 4.21,-2.175 5.893,-3.578c1.684,-1.403 3.04,-3.017 4.069,-4.841c1.029,-1.824 1.544,-3.812 1.544,-5.963c-0,-2.338 -0.492,-4.443 -1.474,-6.314c-0.982,-1.871 -2.291,-3.461 -3.928,-4.77c-1.637,-1.31 -3.531,-2.292 -5.683,-2.947c-2.151,-0.654 -4.396,-0.982 -6.734,-0.982c-5.8,0 -10.196,1.45 -13.189,4.35c-2.994,2.899 -4.49,6.454 -4.49,10.663Zm17.117,22.449c-6.08,1.029 -10.99,3.087 -14.732,6.174c-3.741,3.087 -5.612,7.155 -5.612,12.206c-0,2.245 0.444,4.397 1.333,6.455c0.888,2.057 2.198,3.858 3.928,5.401c1.731,1.544 3.882,2.76 6.454,3.648c2.573,0.889 5.589,1.333 9.05,1.333c3.274,0 6.197,-0.444 8.769,-1.333c2.573,-0.888 4.747,-2.104 6.525,-3.648c1.777,-1.543 3.133,-3.344 4.069,-5.401c0.935,-2.058 1.403,-4.21 1.403,-6.455c-0,-4.77 -1.918,-8.769 -5.753,-11.996c-3.835,-3.227 -8.98,-5.355 -15.434,-6.384Zm-21.911,-142.645l5.332,-0l-0,82.22l-6.875,-0l-0,-74.363l-17.118,7.436l-1.543,-5.893l20.204,-9.4Zm47.704,-0l5.332,-0l0,82.22l-6.875,-0l0,-74.363l-17.117,7.436l-1.544,-5.893l20.204,-9.4Z"
                style="fill:#3d405b;fill-opacity:0;" />
            <path id="_12-8" serif:id="12-8"
                d="M207.513,171.835l-0,5.846l-58.462,0l0,-5.846l58.462,0Zm-29.021,12.106c4.023,-0 7.6,0.561 10.734,1.683c3.133,1.123 5.776,2.62 7.927,4.49c2.152,1.871 3.765,4.046 4.841,6.525c1.076,2.478 1.613,5.074 1.613,7.787c0,3.928 -1.169,7.529 -3.507,10.803c-2.339,3.274 -6.595,6.034 -12.768,8.278c5.893,1.965 10.429,4.747 13.61,8.349c3.18,3.601 4.77,8.021 4.77,13.259c0,3.648 -0.701,6.898 -2.105,9.751c-1.403,2.853 -3.344,5.238 -5.822,7.156c-2.479,1.917 -5.379,3.391 -8.699,4.419c-3.321,1.029 -6.899,1.544 -10.734,1.544c-3.928,-0 -7.553,-0.515 -10.874,-1.544c-3.32,-1.028 -6.22,-2.502 -8.699,-4.419c-2.478,-1.918 -4.419,-4.256 -5.822,-7.016c-1.404,-2.759 -2.105,-5.869 -2.105,-9.33c-0,-5.332 1.45,-9.751 4.349,-13.259c2.9,-3.508 7.437,-6.337 13.61,-8.489c-4.957,-1.964 -8.722,-4.536 -11.294,-7.717c-2.573,-3.18 -3.859,-7.015 -3.859,-11.505c0,-2.899 0.515,-5.612 1.543,-8.138c1.029,-2.525 2.596,-4.723 4.701,-6.594c2.104,-1.871 4.7,-3.344 7.787,-4.42c3.087,-1.075 6.688,-1.613 10.803,-1.613Zm-0.561,43.074c-6.08,1.029 -10.991,3.087 -14.732,6.174c-3.742,3.086 -5.612,7.155 -5.612,12.206c-0,2.245 0.444,4.397 1.333,6.454c0.888,2.058 2.198,3.859 3.928,5.402c1.731,1.544 3.882,2.76 6.454,3.648c2.573,0.889 5.589,1.333 9.05,1.333c3.274,0 6.197,-0.444 8.769,-1.333c2.573,-0.888 4.747,-2.104 6.525,-3.648c1.777,-1.543 3.133,-3.344 4.069,-5.402c0.935,-2.057 1.403,-4.209 1.403,-6.454c-0,-4.77 -1.918,-8.769 -5.753,-11.996c-3.835,-3.227 -8.98,-5.355 -15.434,-6.384Zm-17.117,-22.449c-0,2.245 0.444,4.279 1.333,6.103c0.888,1.824 2.104,3.438 3.648,4.841c1.543,1.403 3.344,2.572 5.401,3.508c2.058,0.935 4.256,1.683 6.595,2.245c2.432,-0.562 4.77,-1.333 7.015,-2.316c2.245,-0.982 4.209,-2.174 5.893,-3.577c1.684,-1.403 3.04,-3.017 4.069,-4.841c1.029,-1.824 1.543,-3.812 1.543,-5.963c0,-2.339 -0.491,-4.443 -1.473,-6.314c-0.982,-1.871 -2.291,-3.461 -3.928,-4.77c-1.637,-1.31 -3.531,-2.292 -5.683,-2.947c-2.151,-0.655 -4.396,-0.982 -6.735,-0.982c-5.799,0 -10.195,1.45 -13.188,4.35c-2.994,2.899 -4.49,6.454 -4.49,10.663Zm-13.867,-120.629l5.331,-0l0,82.22l-6.875,-0l0,-74.363l-17.117,7.436l-1.544,-5.893l20.205,-9.4Zm49.388,4.77c-2.993,0 -6.08,0.468 -9.26,1.403c-3.181,0.936 -6.408,2.853 -9.682,5.753l-3.367,-4.911c3.929,-3.274 7.787,-5.402 11.575,-6.384c3.789,-0.982 7.366,-1.473 10.734,-1.473c4.022,-0 7.553,0.585 10.593,1.754c3.04,1.169 5.566,2.783 7.577,4.84c2.011,2.058 3.531,4.537 4.56,7.437c1.029,2.899 1.543,6.033 1.543,9.4c0,3.181 -0.514,6.361 -1.543,9.541c-1.029,3.18 -2.596,6.501 -4.701,9.962c-2.104,3.461 -4.793,7.109 -8.067,10.944c-3.274,3.835 -7.203,7.951 -11.786,12.347l-11.505,11.084l40.969,0l0,5.753l-49.668,-0l-1.123,-4.63l11.084,-10.804c5.051,-4.957 9.424,-9.447 13.119,-13.469c3.695,-4.023 6.712,-7.788 9.05,-11.295c2.338,-3.508 4.069,-6.805 5.191,-9.892c1.123,-3.087 1.684,-6.173 1.684,-9.26c0,-5.612 -1.426,-10.032 -4.279,-13.259c-2.853,-3.227 -7.086,-4.841 -12.698,-4.841Z"
                style="fill:#3d405b;fill-opacity:0;" />
        </g>
        <g id="division-indicators">
            <g transform="matrix(131.587,0,0,131.587,257.642,214.49)"></g><text x="198.559px" y="214.49px"
                style="font-family:'MuktaMahee-Regular', 'Mukta Mahee', sans-serif;font-size:131.587px;fill:#3d405b;">2</text>
            <path id="division-sign"
                d="M173.695,173.457l-0,4.166c-0,1.15 -0.934,2.084 -2.083,2.084l-70.834,-0c-1.15,-0 -2.083,-0.934 -2.083,-2.084l-0,-4.166c-0,-1.15 0.933,-2.084 2.083,-2.084l70.834,0c1.149,0 2.083,0.934 2.083,2.084Zm-37.5,14.608c4.214,0 7.636,3.422 7.636,7.636c-0,4.215 -3.422,7.636 -7.636,7.636c-4.215,0 -7.636,-3.421 -7.636,-7.636c-0,-4.214 3.421,-7.636 7.636,-7.636Zm-0,-40.322c4.214,-0 7.636,3.421 7.636,7.636c-0,4.214 -3.422,7.636 -7.636,7.636c-4.215,-0 -7.636,-3.422 -7.636,-7.636c-0,-4.215 3.421,-7.636 7.636,-7.636Z"
                style="fill:#3d405b;" />
        </g>
    </g>
</svg>